G04*
G04 #@! TF.GenerationSoftware,Altium Limited,Altium Designer,24.1.2 (44)*
G04*
G04 Layer_Color=65535*
%FSLAX25Y25*%
%MOIN*%
G70*
G04*
G04 #@! TF.SameCoordinates,9647829F-9D65-4518-952E-74710912C15A*
G04*
G04*
G04 #@! TF.FilePolarity,Positive*
G04*
G01*
G75*
%ADD10C,0.00787*%
%ADD11C,0.00984*%
%ADD12C,0.01968*%
%ADD13C,0.00787*%
%ADD14C,0.00394*%
%ADD15C,0.01000*%
%ADD16C,0.00606*%
D10*
X78105Y23057D02*
X79109Y23216D01*
X80015Y23678D01*
X80733Y24396D01*
X81195Y25302D01*
X81353Y26305D01*
X63046Y26305D02*
X63205Y25302D01*
X63667Y24396D01*
X64385Y23678D01*
X65291Y23216D01*
X66294Y23057D01*
X66294Y67743D02*
X65291Y67584D01*
X64385Y67122D01*
X63667Y66404D01*
X63205Y65498D01*
X63046Y64495D01*
X81353D02*
X81195Y65498D01*
X80733Y66404D01*
X80015Y67122D01*
X79109Y67584D01*
X78105Y67743D01*
X89220Y169075D02*
X88575D01*
X89220D01*
X198252D02*
X197606D01*
X198252D01*
X144295D02*
X143650D01*
X144295D01*
X119551Y93425D02*
X118764D01*
X119551D01*
X53606Y77300D02*
X53562Y78303D01*
X53431Y79298D01*
X53214Y80278D01*
X52912Y81235D01*
X52528Y82163D01*
X52064Y83053D01*
X51525Y83899D01*
X50914Y84696D01*
X50236Y85436D01*
X49496Y86114D01*
X48700Y86725D01*
X47853Y87264D01*
X46963Y87728D01*
X46035Y88112D01*
X45078Y88414D01*
X44098Y88631D01*
X43103Y88762D01*
X42100Y88806D01*
X41097Y88762D01*
X40102Y88631D01*
X39122Y88414D01*
X38165Y88112D01*
X37237Y87728D01*
X36347Y87264D01*
X35500Y86725D01*
X34704Y86114D01*
X33964Y85436D01*
X33286Y84696D01*
X32675Y83899D01*
X32136Y83053D01*
X31672Y82163D01*
X31288Y81235D01*
X30986Y80278D01*
X30769Y79298D01*
X30638Y78303D01*
X30594Y77300D01*
X30638Y76297D01*
X30769Y75302D01*
X30986Y74322D01*
X31288Y73365D01*
X31672Y72437D01*
X32136Y71547D01*
X32675Y70701D01*
X33286Y69904D01*
X33964Y69164D01*
X34704Y68486D01*
X35500Y67875D01*
X36347Y67336D01*
X37237Y66872D01*
X38165Y66488D01*
X39122Y66186D01*
X40102Y65969D01*
X41097Y65838D01*
X42100Y65794D01*
X43103Y65838D01*
X44098Y65969D01*
X45078Y66186D01*
X46035Y66488D01*
X46963Y66872D01*
X47853Y67336D01*
X48700Y67875D01*
X49496Y68486D01*
X50236Y69164D01*
X50914Y69904D01*
X51525Y70701D01*
X52064Y71547D01*
X52528Y72437D01*
X52912Y73365D01*
X53214Y74322D01*
X53431Y75302D01*
X53562Y76297D01*
X53606Y77300D01*
X173051Y93425D02*
X172264D01*
X173051D01*
X66294Y67743D02*
X78105D01*
X66294Y23058D02*
X78106D01*
X81354Y26306D02*
Y64495D01*
X63046Y26306D02*
Y64495D01*
X160844Y80257D02*
X166356D01*
X197043Y53109D02*
X202357D01*
X113437Y176378D02*
X121906D01*
X74661D02*
X83130D01*
X74661Y223622D02*
X83130D01*
X113437D02*
X121906D01*
X74661Y176378D02*
Y223622D01*
X121906Y176378D02*
Y223622D01*
X222469Y176378D02*
X230937D01*
X183693D02*
X192161D01*
X183693Y223622D02*
X192161D01*
X222469D02*
X230937D01*
X183693Y176378D02*
Y223622D01*
X230937Y176378D02*
Y223622D01*
X168512Y176378D02*
X176980D01*
X129736D02*
X138205D01*
X129736Y223622D02*
X138205D01*
X168512D02*
X176980D01*
X129736Y176378D02*
Y223622D01*
X176980Y176378D02*
Y223622D01*
X39600Y94300D02*
X44600D01*
X42100Y91800D02*
Y96800D01*
X147343Y80000D02*
X152657D01*
X134543Y79900D02*
X139857D01*
X121443D02*
X126757D01*
X50567Y48371D02*
X60433D01*
X50567Y57229D02*
X60433D01*
X50367Y40529D02*
X60233D01*
X50367Y31671D02*
X60233D01*
X92143Y82900D02*
X97457D01*
X178691Y55843D02*
Y61157D01*
X106743Y79700D02*
X112057D01*
X178600Y42743D02*
Y48057D01*
X66050Y76601D02*
Y91561D01*
X59750Y76601D02*
Y89199D01*
D11*
X72692Y70302D02*
X71954Y70728D01*
Y69875D01*
X72692Y70302D01*
D12*
X58740Y98358D02*
X58144Y99178D01*
X57180Y98865D01*
Y97852D01*
X58144Y97538D01*
X58740Y98358D01*
D13*
X79597Y92252D02*
D03*
D14*
X149500Y114685D02*
Y128465D01*
X108500Y114685D02*
X149500D01*
X108500D02*
Y128465D01*
X203000Y114685D02*
Y128465D01*
X162000Y114685D02*
X203000D01*
X162000D02*
Y128465D01*
X134932Y90019D02*
Y92381D01*
X136113D01*
X136506Y91987D01*
Y91200D01*
X136113Y90806D01*
X134932D01*
X135719D02*
X136506Y90019D01*
X137294Y91987D02*
X137687Y92381D01*
X138474D01*
X138868Y91987D01*
Y91594D01*
X138474Y91200D01*
X138868Y90806D01*
Y90413D01*
X138474Y90019D01*
X137687D01*
X137294Y90413D01*
Y90806D01*
X137687Y91200D01*
X137294Y91594D01*
Y91987D01*
X137687Y91200D02*
X138474D01*
X148632Y90319D02*
Y92681D01*
X149813D01*
X150206Y92287D01*
Y91500D01*
X149813Y91106D01*
X148632D01*
X149419D02*
X150206Y90319D01*
X150994Y92681D02*
X152568D01*
Y92287D01*
X150994Y90713D01*
Y90319D01*
X163306Y91987D02*
X162913Y92381D01*
X162126D01*
X161732Y91987D01*
Y90413D01*
X162126Y90019D01*
X162913D01*
X163306Y90413D01*
X165668Y92381D02*
X164881Y91987D01*
X164094Y91200D01*
Y90413D01*
X164487Y90019D01*
X165274D01*
X165668Y90413D01*
Y90806D01*
X165274Y91200D01*
X164094D01*
X107532Y88919D02*
Y91281D01*
X108713D01*
X109106Y90887D01*
Y90100D01*
X108713Y89706D01*
X107532D01*
X108319D02*
X109106Y88919D01*
X109894Y89313D02*
X110287Y88919D01*
X111074D01*
X111468Y89313D01*
Y90887D01*
X111074Y91281D01*
X110287D01*
X109894Y90887D01*
Y90494D01*
X110287Y90100D01*
X111468D01*
X122332Y89319D02*
Y91681D01*
X123513D01*
X123906Y91287D01*
Y90500D01*
X123513Y90106D01*
X122332D01*
X123119D02*
X123906Y89319D01*
X126268Y91681D02*
X125481Y91287D01*
X124694Y90500D01*
Y89713D01*
X125087Y89319D01*
X125874D01*
X126268Y89713D01*
Y90106D01*
X125874Y90500D01*
X124694D01*
X92332Y93219D02*
Y95581D01*
X93513D01*
X93906Y95187D01*
Y94400D01*
X93513Y94006D01*
X92332D01*
X93119D02*
X93906Y93219D01*
X96268Y95581D02*
X94694D01*
Y94400D01*
X95481Y94794D01*
X95874D01*
X96268Y94400D01*
Y93613D01*
X95874Y93219D01*
X95087D01*
X94694Y93613D01*
X176732Y50919D02*
Y53281D01*
X177913D01*
X178306Y52887D01*
Y52100D01*
X177913Y51706D01*
X176732D01*
X177519D02*
X178306Y50919D01*
X180274D02*
Y53281D01*
X179094Y52100D01*
X180668D01*
X176732Y38319D02*
Y40681D01*
X177913D01*
X178306Y40287D01*
Y39500D01*
X177913Y39106D01*
X176732D01*
X177519D02*
X178306Y38319D01*
X180668D02*
X179094D01*
X180668Y39894D01*
Y40287D01*
X180274Y40681D01*
X179487D01*
X179094Y40287D01*
X198626Y62319D02*
Y64681D01*
X199806D01*
X200200Y64287D01*
Y63500D01*
X199806Y63106D01*
X198626D01*
X199413D02*
X200200Y62319D01*
X200987D02*
X201774D01*
X201381D01*
Y64681D01*
X200987Y64287D01*
X51906Y44187D02*
X51513Y44581D01*
X50726D01*
X50332Y44187D01*
Y42613D01*
X50726Y42219D01*
X51513D01*
X51906Y42613D01*
X52694Y44187D02*
X53087Y44581D01*
X53874D01*
X54268Y44187D01*
Y43794D01*
X53874Y43400D01*
X54268Y43006D01*
Y42613D01*
X53874Y42219D01*
X53087D01*
X52694Y42613D01*
Y43006D01*
X53087Y43400D01*
X52694Y43794D01*
Y44187D01*
X53087Y43400D02*
X53874D01*
X52606Y60687D02*
X52213Y61081D01*
X51426D01*
X51032Y60687D01*
Y59113D01*
X51426Y58719D01*
X52213D01*
X52606Y59113D01*
X53394Y61081D02*
X54968D01*
Y60687D01*
X53394Y59113D01*
Y58719D01*
X79106Y95487D02*
X78713Y95881D01*
X77926D01*
X77532Y95487D01*
Y93913D01*
X77926Y93519D01*
X78713D01*
X79106Y93913D01*
X81468Y93519D02*
X79894D01*
X81468Y95094D01*
Y95487D01*
X81074Y95881D01*
X80287D01*
X79894Y95487D01*
X63100Y95287D02*
X62706Y95681D01*
X61919D01*
X61526Y95287D01*
Y93713D01*
X61919Y93319D01*
X62706D01*
X63100Y93713D01*
X63887Y93319D02*
X64674D01*
X64281D01*
Y95681D01*
X63887Y95287D01*
D15*
X54921Y116480D02*
X95079D01*
X54921D02*
Y122524D01*
X95079Y116480D02*
Y122953D01*
X152559Y201499D02*
X151559Y202499D01*
X149560D01*
X148560Y201499D01*
Y200500D01*
X149560Y199500D01*
X151559D01*
X152559Y198500D01*
Y197501D01*
X151559Y196501D01*
X149560D01*
X148560Y197501D01*
X154558Y201499D02*
X155558Y202499D01*
X157557D01*
X158557Y201499D01*
Y200500D01*
X157557Y199500D01*
X156557D01*
X157557D01*
X158557Y198500D01*
Y197501D01*
X157557Y196501D01*
X155558D01*
X154558Y197501D01*
X95767Y201899D02*
X94768Y202899D01*
X92768D01*
X91768Y201899D01*
Y200900D01*
X92768Y199900D01*
X94768D01*
X95767Y198900D01*
Y197901D01*
X94768Y196901D01*
X92768D01*
X91768Y197901D01*
X101765Y196901D02*
X97767D01*
X101765Y200900D01*
Y201899D01*
X100766Y202899D01*
X98766D01*
X97767Y201899D01*
X163006Y125299D02*
X165006D01*
X164006D01*
Y119301D01*
X163006D01*
X165006D01*
X168005D02*
Y125299D01*
X171004D01*
X172003Y124299D01*
Y122300D01*
X171004Y121300D01*
X168005D01*
X170004D02*
X172003Y119301D01*
X174003Y125299D02*
Y119301D01*
X178001D01*
X180001Y125299D02*
X184000D01*
Y124299D01*
X180001Y120301D01*
Y119301D01*
X184000D01*
X188998D02*
Y125299D01*
X185999Y122300D01*
X189998D01*
X194996Y119301D02*
Y125299D01*
X191997Y122300D01*
X195996D01*
X197995Y119301D02*
Y125299D01*
X201994Y119301D01*
Y125299D01*
X109506Y125099D02*
X111506D01*
X110506D01*
Y119101D01*
X109506D01*
X111506D01*
X114505D02*
Y125099D01*
X117504D01*
X118503Y124099D01*
Y122100D01*
X117504Y121100D01*
X114505D01*
X116504D02*
X118503Y119101D01*
X120503Y125099D02*
Y119101D01*
X124502D01*
X126501Y125099D02*
X130499D01*
Y124099D01*
X126501Y120101D01*
Y119101D01*
X130499D01*
X135498D02*
Y125099D01*
X132499Y122100D01*
X136498D01*
X141496Y119101D02*
Y125099D01*
X138497Y122100D01*
X142496D01*
X144495Y119101D02*
Y125099D01*
X148494Y119101D01*
Y125099D01*
X35726Y62315D02*
Y58285D01*
X38413D01*
X42443Y62315D02*
X39757D01*
Y58285D01*
X42443D01*
X39757Y60300D02*
X41100D01*
X43787Y62315D02*
Y58285D01*
X45802D01*
X46474Y58957D01*
Y61643D01*
X45802Y62315D01*
X43787D01*
X206715Y202499D02*
X205715Y203499D01*
X203716D01*
X202716Y202499D01*
Y201500D01*
X203716Y200500D01*
X205715D01*
X206715Y199500D01*
Y198501D01*
X205715Y197501D01*
X203716D01*
X202716Y198501D01*
X208714Y197501D02*
X210714D01*
X209714D01*
Y203499D01*
X208714Y202499D01*
X61818Y122961D02*
Y118239D01*
X64967D01*
X66541D02*
Y122961D01*
X68116Y121387D01*
X69690Y122961D01*
Y118239D01*
X71264Y122961D02*
X74413D01*
Y122174D01*
X71264Y119026D01*
Y118239D01*
X75987Y122174D02*
X76774Y122961D01*
X78349D01*
X79136Y122174D01*
Y121387D01*
X78349Y120600D01*
X79136Y119813D01*
Y119026D01*
X78349Y118239D01*
X76774D01*
X75987Y119026D01*
Y119813D01*
X76774Y120600D01*
X75987Y121387D01*
Y122174D01*
X76774Y120600D02*
X78349D01*
X80710Y122174D02*
X81497Y122961D01*
X83072D01*
X83859Y122174D01*
Y119026D01*
X83072Y118239D01*
X81497D01*
X80710Y119026D01*
Y122174D01*
X88582Y122961D02*
X85433D01*
Y120600D01*
X87007Y121387D01*
X87794D01*
X88582Y120600D01*
Y119026D01*
X87794Y118239D01*
X86220D01*
X85433Y119026D01*
D16*
X65987Y18919D02*
X66774D01*
X66380D01*
Y21281D01*
X65987Y20887D01*
X69529Y21281D02*
X68742Y20887D01*
X67955Y20100D01*
Y19313D01*
X68348Y18919D01*
X69135D01*
X69529Y19313D01*
Y19706D01*
X69135Y20100D01*
X67955D01*
X70316Y18919D02*
Y21281D01*
X71103Y20494D01*
X71890Y21281D01*
Y18919D01*
X72677Y21281D02*
Y18919D01*
Y20100D01*
X74252D01*
Y21281D01*
Y18919D01*
X75039Y20494D02*
X76613D01*
X75039Y18919D01*
X76613D01*
M02*
