G04*
G04 #@! TF.GenerationSoftware,Altium Limited,Altium Designer,24.1.2 (44)*
G04*
G04 Layer_Color=8421504*
%FSLAX25Y25*%
%MOIN*%
G70*
G04*
G04 #@! TF.SameCoordinates,9647829F-9D65-4518-952E-74710912C15A*
G04*
G04*
G04 #@! TF.FilePolarity,Positive*
G04*
G01*
G75*
%ADD17R,0.07559X0.05118*%
%ADD18R,0.06693X0.04331*%
%ADD19R,0.08189X0.15000*%
%ADD20R,0.45000X0.35000*%
%ADD21R,0.04152X0.05339*%
%ADD22R,0.04331X0.06693*%
%ADD23R,0.06299X0.13780*%
%ADD24R,0.48031X0.38386*%
%ADD25R,0.07087X0.04528*%
%ADD26R,0.04921X0.07087*%
D17*
X163600Y85415D02*
D03*
Y75100D02*
D03*
D18*
X199700Y47400D02*
D03*
Y58817D02*
D03*
X150000Y74291D02*
D03*
Y85709D02*
D03*
X137200Y74191D02*
D03*
Y85609D02*
D03*
X124100Y74191D02*
D03*
Y85609D02*
D03*
X94800Y88609D02*
D03*
Y77191D02*
D03*
X109400Y73991D02*
D03*
Y85409D02*
D03*
D19*
X139000Y102500D02*
D03*
X119000D02*
D03*
X192500D02*
D03*
X172500D02*
D03*
D20*
X129000Y147500D02*
D03*
X182500D02*
D03*
D21*
X52643Y52800D02*
D03*
X58357D02*
D03*
X58157Y36100D02*
D03*
X52443D02*
D03*
D22*
X172983Y58500D02*
D03*
X184400D02*
D03*
X184309Y45400D02*
D03*
X172891D02*
D03*
D23*
X65000Y105047D02*
D03*
X85000D02*
D03*
D24*
X75000Y145500D02*
D03*
D25*
X79400Y88906D02*
D03*
Y77094D02*
D03*
D26*
X62900Y88018D02*
D03*
Y77782D02*
D03*
M02*
