G04*
G04 #@! TF.GenerationSoftware,Altium Limited,Altium Designer,24.1.2 (44)*
G04*
G04 Layer_Color=2752767*
%FSLAX25Y25*%
%MOIN*%
G70*
G04*
G04 #@! TF.SameCoordinates,9647829F-9D65-4518-952E-74710912C15A*
G04*
G04*
G04 #@! TF.FilePolarity,Positive*
G04*
G01*
G75*
%ADD87C,0.00500*%
%ADD88C,0.00667*%
%ADD89C,0.00400*%
D87*
X70200Y53006D02*
X71200D01*
X72200Y54006D01*
X73200Y53006D01*
X74200D01*
Y54006D01*
X73200Y55006D01*
X74200Y56006D01*
Y57006D01*
X73200D01*
X72200Y56006D01*
X71200Y57006D01*
X70200D01*
Y56006D01*
X71200Y55006D01*
X70200Y54006D01*
Y53006D01*
Y33794D02*
X71200D01*
X72200Y34794D01*
X73200Y33794D01*
X74200D01*
Y34794D01*
X73200Y35794D01*
X74200Y36794D01*
Y37794D01*
X73200D01*
X72200Y36794D01*
X71200Y37794D01*
X70200D01*
Y36794D01*
X71200Y35794D01*
X70200Y34794D01*
Y33794D01*
X106126Y222606D02*
Y226606D01*
X110126D01*
Y222606D01*
X106126D01*
X106926Y223406D02*
Y225806D01*
X109326D01*
Y223406D01*
X106926D01*
X106126Y173394D02*
Y177394D01*
X110126D01*
Y173394D01*
X106126D01*
X106926Y174194D02*
Y176594D01*
X109326D01*
Y174194D01*
X106926D01*
X86441Y222606D02*
Y226606D01*
X90441D01*
Y222606D01*
X86441D01*
X87241Y223406D02*
Y225806D01*
X89641D01*
Y223406D01*
X87241D01*
X86441Y173394D02*
Y177394D01*
X90441D01*
Y173394D01*
X86441D01*
X87241Y174194D02*
Y176594D01*
X89641D01*
Y174194D01*
X87241D01*
X215158Y222606D02*
Y226606D01*
X219158D01*
Y222606D01*
X215158D01*
X215958Y223406D02*
Y225806D01*
X218358D01*
Y223406D01*
X215958D01*
X215158Y173394D02*
Y177394D01*
X219158D01*
Y173394D01*
X215158D01*
X215958Y174194D02*
Y176594D01*
X218358D01*
Y174194D01*
X215958D01*
X195472Y222606D02*
Y226606D01*
X199472D01*
Y222606D01*
X195472D01*
X196272Y223406D02*
Y225806D01*
X198672D01*
Y223406D01*
X196272D01*
X195472Y173394D02*
Y177394D01*
X199472D01*
Y173394D01*
X195472D01*
X196272Y174194D02*
Y176594D01*
X198672D01*
Y174194D01*
X196272D01*
X161201Y222606D02*
Y226606D01*
X165201D01*
Y222606D01*
X161201D01*
X162001Y223406D02*
Y225806D01*
X164401D01*
Y223406D01*
X162001D01*
X161201Y173394D02*
Y177394D01*
X165201D01*
Y173394D01*
X161201D01*
X162001Y174194D02*
Y176594D01*
X164401D01*
Y174194D01*
X162001D01*
X141516Y222606D02*
Y226606D01*
X145516D01*
Y222606D01*
X141516D01*
X142316Y223406D02*
Y225806D01*
X144716D01*
Y223406D01*
X142316D01*
X141516Y173394D02*
Y177394D01*
X145516D01*
Y173394D01*
X141516D01*
X142316Y174194D02*
Y176594D01*
X144716D01*
Y174194D01*
X142316D01*
X42100Y70300D02*
X40100Y74300D01*
X44100D01*
X42100Y70300D01*
Y80300D02*
X40100Y84300D01*
X44100D01*
X42100Y80300D01*
X123495Y22358D02*
Y26358D01*
X127495D01*
Y22358D01*
X123495D01*
X97905D02*
Y26358D01*
X101905D01*
Y22358D01*
X97905D01*
X123495Y4642D02*
Y8642D01*
X127495D01*
Y4642D01*
X123495D01*
X97905D02*
Y8642D01*
X101905D01*
Y4642D01*
X97905D01*
X152515Y17800D02*
X154515Y19800D01*
X156515Y17800D01*
X154515Y15800D01*
X152515Y17800D01*
X162358D02*
X164358Y19800D01*
X166358Y17800D01*
X164358Y15800D01*
X162358Y17800D01*
X172200D02*
X174200Y19800D01*
X176200Y17800D01*
X174200Y15800D01*
X172200Y17800D01*
X182043D02*
X184043Y19800D01*
X186043Y17800D01*
X184043Y15800D01*
X182043Y17800D01*
X191885D02*
X193885Y19800D01*
X195885Y17800D01*
X193885Y15800D01*
X191885Y17800D01*
X201728D02*
X203728Y19800D01*
X205728Y17800D01*
X203728Y15800D01*
X201728Y17800D01*
X222867Y46858D02*
X224867Y48858D01*
X226867Y46858D01*
X224867Y44858D01*
X222867Y46858D01*
Y56700D02*
X224867Y58700D01*
X226867Y56700D01*
X224867Y54700D01*
X222867Y56700D01*
Y66543D02*
X224867Y68543D01*
X226867Y66543D01*
X224867Y64543D01*
X222867Y66543D01*
X213600Y243600D02*
X211600Y247600D01*
X215600D01*
X213600Y243600D01*
X223443D02*
X221443Y247600D01*
X225443D01*
X223443Y243600D01*
X229742Y235726D02*
X230742Y236726D01*
X231742D01*
X230742Y237726D01*
X231742Y238726D01*
X230742D01*
X229742Y239726D01*
X228742Y238726D01*
X227742D01*
X228742Y237726D01*
X227742Y236726D01*
X228742D01*
X229742Y235726D01*
X222600Y102258D02*
X224600Y104258D01*
X226600Y102258D01*
X224600Y100258D01*
X222600Y102258D01*
Y112100D02*
X224600Y114100D01*
X226600Y112100D01*
X224600Y110100D01*
X222600Y112100D01*
Y121943D02*
X224600Y123943D01*
X226600Y121943D01*
X224600Y119943D01*
X222600Y121943D01*
X184300Y245500D02*
X186300Y247500D01*
X188300Y245500D01*
X186300Y243500D01*
X184300Y245500D01*
X174457D02*
X176457Y247500D01*
X178457Y245500D01*
X176457Y243500D01*
X174457Y245500D01*
X164615D02*
X166615Y247500D01*
X168615Y245500D01*
X166615Y243500D01*
X164615Y245500D01*
X140370D02*
X142370Y247500D01*
X144370Y245500D01*
X142370Y243500D01*
X140370Y245500D01*
X130528D02*
X132528Y247500D01*
X134528Y245500D01*
X132528Y243500D01*
X130528Y245500D01*
X120685D02*
X122685Y247500D01*
X124685Y245500D01*
X122685Y243500D01*
X120685Y245500D01*
X110843D02*
X112843Y247500D01*
X114843Y245500D01*
X112843Y243500D01*
X110843Y245500D01*
X101000D02*
X103000Y247500D01*
X105000Y245500D01*
X103000Y243500D01*
X101000Y245500D01*
X91157D02*
X93157Y247500D01*
X95157Y245500D01*
X93157Y243500D01*
X91157Y245500D01*
X26426Y139601D02*
X27426Y140601D01*
X28426D01*
X27426Y141601D01*
X28426Y142601D01*
X27426D01*
X26426Y143601D01*
X25426Y142601D01*
X24426D01*
X25426Y141601D01*
X24426Y140601D01*
X25426D01*
X26426Y139601D01*
X34300Y145900D02*
X32300Y149900D01*
X36300D01*
X34300Y145900D01*
Y155743D02*
X32300Y159743D01*
X36300D01*
X34300Y155743D01*
X18600Y97158D02*
X20600Y99158D01*
X22600Y97158D01*
X20600Y95158D01*
X18600Y97158D01*
Y107000D02*
X20600Y109000D01*
X22600Y107000D01*
X20600Y105000D01*
X18600Y107000D01*
Y116843D02*
X20600Y118843D01*
X22600Y116843D01*
X20600Y114843D01*
X18600Y116843D01*
X13500Y63600D02*
Y62600D01*
X15500D01*
Y63600D01*
X16500D01*
Y65600D01*
X15500D01*
Y66600D01*
X13500D01*
Y65600D01*
X12500D01*
Y63600D01*
X13500D01*
Y53600D02*
Y52600D01*
X15500D01*
Y53600D01*
X16500D01*
Y55600D01*
X15500D01*
Y56600D01*
X13500D01*
Y55600D01*
X12500D01*
Y53600D01*
X13500D01*
Y43600D02*
Y42600D01*
X15500D01*
Y43600D01*
X16500D01*
Y45600D01*
X15500D01*
Y46600D01*
X13500D01*
Y45600D01*
X12500D01*
Y43600D01*
X13500D01*
Y33600D02*
Y32600D01*
X15500D01*
Y33600D01*
X16500D01*
Y35600D01*
X15500D01*
Y36600D01*
X13500D01*
Y35600D01*
X12500D01*
Y33600D01*
X13500D01*
Y23600D02*
Y22600D01*
X15500D01*
Y23600D01*
X16500D01*
Y25600D01*
X15500D01*
Y26600D01*
X13500D01*
Y25600D01*
X12500D01*
Y23600D01*
X13500D01*
X23500Y63600D02*
Y62600D01*
X25500D01*
Y63600D01*
X26500D01*
Y65600D01*
X25500D01*
Y66600D01*
X23500D01*
Y65600D01*
X22500D01*
Y63600D01*
X23500D01*
Y53600D02*
Y52600D01*
X25500D01*
Y53600D01*
X26500D01*
Y55600D01*
X25500D01*
Y56600D01*
X23500D01*
Y55600D01*
X22500D01*
Y53600D01*
X23500D01*
Y43600D02*
Y42600D01*
X25500D01*
Y43600D01*
X26500D01*
Y45600D01*
X25500D01*
Y46600D01*
X23500D01*
Y45600D01*
X22500D01*
Y43600D01*
X23500D01*
Y33600D02*
Y32600D01*
X25500D01*
Y33600D01*
X26500D01*
Y35600D01*
X25500D01*
Y36600D01*
X23500D01*
Y35600D01*
X22500D01*
Y33600D01*
X23500D01*
Y23600D02*
Y22600D01*
X25500D01*
Y23600D01*
X26500D01*
Y25600D01*
X25500D01*
Y26600D01*
X23500D01*
Y25600D01*
X22500D01*
Y23600D01*
X23500D01*
X40515Y13600D02*
X42515Y15600D01*
X44515Y13600D01*
X42515Y11600D01*
X40515Y13600D01*
X50357D02*
X52357Y15600D01*
X54357Y13600D01*
X52357Y11600D01*
X50357Y13600D01*
X60200D02*
X62200Y15600D01*
X64200Y13600D01*
X62200Y11600D01*
X60200Y13600D01*
X70043D02*
X72043Y15600D01*
X74043Y13600D01*
X72043Y11600D01*
X70043Y13600D01*
X34216Y19474D02*
X35216Y21474D01*
X34216Y23474D01*
X36216Y22474D01*
X38216Y23474D01*
X37216Y21474D01*
X38216Y19474D01*
X36216Y20474D01*
X34216Y19474D01*
X35016Y20274D02*
X35616Y21474D01*
X35016Y22674D01*
X36216Y22074D01*
X37416Y22674D01*
X36816Y21474D01*
X37416Y20274D01*
X36216Y20874D01*
X35016Y20274D01*
X10000Y163000D02*
X11000Y164000D01*
X12000D01*
X11000Y165000D01*
X12000Y166000D01*
X11000D01*
X10000Y167000D01*
X9000Y166000D01*
X8000D01*
X9000Y165000D01*
X8000Y164000D01*
X9000D01*
X10000Y163000D01*
Y163800D02*
X10600Y164400D01*
X11200D01*
X10600Y165000D01*
X11200Y165600D01*
X10600D01*
X10000Y166200D01*
X9400Y165600D01*
X8800D01*
X9400Y165000D01*
X8800Y164400D01*
X9400D01*
X10000Y163800D01*
Y8000D02*
X11000Y9000D01*
X12000D01*
X11000Y10000D01*
X12000Y11000D01*
X11000D01*
X10000Y12000D01*
X9000Y11000D01*
X8000D01*
X9000Y10000D01*
X8000Y9000D01*
X9000D01*
X10000Y8000D01*
Y8800D02*
X10600Y9400D01*
X11200D01*
X10600Y10000D01*
X11200Y10600D01*
X10600D01*
X10000Y11200D01*
X9400Y10600D01*
X8800D01*
X9400Y10000D01*
X8800Y9400D01*
X9400D01*
X10000Y8800D01*
X225800Y8200D02*
X226800Y9200D01*
X227800D01*
X226800Y10200D01*
X227800Y11200D01*
X226800D01*
X225800Y12200D01*
X224800Y11200D01*
X223800D01*
X224800Y10200D01*
X223800Y9200D01*
X224800D01*
X225800Y8200D01*
Y9000D02*
X226400Y9600D01*
X227000D01*
X226400Y10200D01*
X227000Y10800D01*
X226400D01*
X225800Y11400D01*
X225200Y10800D01*
X224600D01*
X225200Y10200D01*
X224600Y9600D01*
X225200D01*
X225800Y9000D01*
X225700Y152300D02*
X226700Y153300D01*
X227700D01*
X226700Y154300D01*
X227700Y155300D01*
X226700D01*
X225700Y156300D01*
X224700Y155300D01*
X223700D01*
X224700Y154300D01*
X223700Y153300D01*
X224700D01*
X225700Y152300D01*
Y153100D02*
X226300Y153700D01*
X226900D01*
X226300Y154300D01*
X226900Y154900D01*
X226300D01*
X225700Y155500D01*
X225100Y154900D01*
X224500D01*
X225100Y154300D01*
X224500Y153700D01*
X225100D01*
X225700Y153100D01*
X75000Y243000D02*
X76000Y244000D01*
X77000D01*
X76000Y245000D01*
X77000Y246000D01*
X76000D01*
X75000Y247000D01*
X74000Y246000D01*
X73000D01*
X74000Y245000D01*
X73000Y244000D01*
X74000D01*
X75000Y243000D01*
Y243800D02*
X75600Y244400D01*
X76200D01*
X75600Y245000D01*
X76200Y245600D01*
X75600D01*
X75000Y246200D01*
X74400Y245600D01*
X73800D01*
X74400Y245000D01*
X73800Y244400D01*
X74400D01*
X75000Y243800D01*
D88*
X82567Y200000D02*
X82338Y200929D01*
X81703Y201646D01*
X80808Y201985D01*
X79858Y201870D01*
X79070Y201326D01*
X78625Y200479D01*
Y199521D01*
X79070Y198674D01*
X79858Y198130D01*
X80808Y198015D01*
X81703Y198354D01*
X82338Y199071D01*
X82567Y200000D01*
X118000D02*
X117771Y200929D01*
X117136Y201646D01*
X116241Y201985D01*
X115291Y201870D01*
X114503Y201326D01*
X114058Y200479D01*
Y199521D01*
X114503Y198674D01*
X115291Y198130D01*
X116241Y198015D01*
X117136Y198354D01*
X117771Y199071D01*
X118000Y200000D01*
X191598D02*
X191369Y200929D01*
X190735Y201646D01*
X189839Y201985D01*
X188889Y201870D01*
X188101Y201326D01*
X187656Y200479D01*
Y199521D01*
X188101Y198674D01*
X188889Y198130D01*
X189839Y198015D01*
X190735Y198354D01*
X191369Y199071D01*
X191598Y200000D01*
X227032D02*
X226802Y200929D01*
X226168Y201646D01*
X225273Y201985D01*
X224322Y201870D01*
X223535Y201326D01*
X223090Y200479D01*
Y199521D01*
X223535Y198674D01*
X224322Y198130D01*
X225273Y198015D01*
X226168Y198354D01*
X226802Y199071D01*
X227032Y200000D01*
X137642D02*
X137413Y200929D01*
X136778Y201646D01*
X135883Y201985D01*
X134932Y201870D01*
X134145Y201326D01*
X133700Y200479D01*
Y199521D01*
X134145Y198674D01*
X134932Y198130D01*
X135883Y198015D01*
X136778Y198354D01*
X137413Y199071D01*
X137642Y200000D01*
X173075D02*
X172846Y200929D01*
X172211Y201646D01*
X171316Y201985D01*
X170366Y201870D01*
X169578Y201326D01*
X169133Y200479D01*
Y199521D01*
X169578Y198674D01*
X170366Y198130D01*
X171316Y198015D01*
X172211Y198354D01*
X172846Y199071D01*
X173075Y200000D01*
X119000Y63000D02*
X118771Y63929D01*
X118136Y64646D01*
X117241Y64985D01*
X116291Y64870D01*
X115503Y64326D01*
X115058Y63479D01*
Y62521D01*
X115503Y61674D01*
X116291Y61130D01*
X117241Y61015D01*
X118136Y61354D01*
X118771Y62071D01*
X119000Y63000D01*
X112500Y63700D02*
X112271Y64629D01*
X111636Y65346D01*
X110741Y65685D01*
X109791Y65570D01*
X109003Y65026D01*
X108558Y64179D01*
Y63221D01*
X109003Y62374D01*
X109791Y61830D01*
X110741Y61715D01*
X111636Y62054D01*
X112271Y62771D01*
X112500Y63700D01*
X128600Y57900D02*
X128371Y58829D01*
X127736Y59546D01*
X126841Y59885D01*
X125891Y59770D01*
X125103Y59226D01*
X124658Y58379D01*
Y57421D01*
X125103Y56574D01*
X125891Y56030D01*
X126841Y55915D01*
X127736Y56254D01*
X128371Y56971D01*
X128600Y57900D01*
X127300Y49400D02*
X127071Y50330D01*
X126436Y51046D01*
X125541Y51385D01*
X124591Y51270D01*
X123803Y50726D01*
X123358Y49879D01*
Y48921D01*
X123803Y48074D01*
X124591Y47530D01*
X125541Y47415D01*
X126436Y47754D01*
X127071Y48471D01*
X127300Y49400D01*
X112700Y48800D02*
X112471Y49729D01*
X111836Y50446D01*
X110941Y50785D01*
X109991Y50670D01*
X109203Y50126D01*
X108758Y49279D01*
Y48321D01*
X109203Y47474D01*
X109991Y46930D01*
X110941Y46815D01*
X111836Y47154D01*
X112471Y47871D01*
X112700Y48800D01*
X86400Y63900D02*
X86171Y64829D01*
X85536Y65546D01*
X84641Y65885D01*
X83691Y65770D01*
X82903Y65226D01*
X82458Y64379D01*
Y63421D01*
X82903Y62574D01*
X83691Y62030D01*
X84641Y61915D01*
X85536Y62254D01*
X86171Y62971D01*
X86400Y63900D01*
X57200Y62800D02*
X56971Y63729D01*
X56336Y64446D01*
X55441Y64785D01*
X54491Y64670D01*
X53703Y64126D01*
X53258Y63279D01*
Y62321D01*
X53703Y61474D01*
X54491Y60930D01*
X55441Y60815D01*
X56336Y61154D01*
X56971Y61871D01*
X57200Y62800D01*
X124100Y67200D02*
X123871Y68129D01*
X123236Y68846D01*
X122341Y69185D01*
X121391Y69070D01*
X120603Y68526D01*
X120158Y67679D01*
Y66721D01*
X120603Y65874D01*
X121391Y65330D01*
X122341Y65215D01*
X123236Y65554D01*
X123871Y66271D01*
X124100Y67200D01*
X124000Y63000D02*
X123771Y63929D01*
X123136Y64646D01*
X122241Y64985D01*
X121291Y64870D01*
X120503Y64326D01*
X120058Y63479D01*
Y62521D01*
X120503Y61674D01*
X121291Y61130D01*
X122241Y61015D01*
X123136Y61354D01*
X123771Y62071D01*
X124000Y63000D01*
X129300Y63900D02*
X129071Y64829D01*
X128436Y65546D01*
X127541Y65885D01*
X126591Y65770D01*
X125803Y65226D01*
X125358Y64379D01*
Y63421D01*
X125803Y62574D01*
X126591Y62030D01*
X127541Y61915D01*
X128436Y62254D01*
X129071Y62971D01*
X129300Y63900D01*
X217300Y27300D02*
X217071Y28229D01*
X216436Y28946D01*
X215541Y29285D01*
X214591Y29170D01*
X213803Y28626D01*
X213358Y27779D01*
Y26821D01*
X213803Y25974D01*
X214591Y25430D01*
X215541Y25315D01*
X216436Y25654D01*
X217071Y26371D01*
X217300Y27300D01*
X197900Y31200D02*
X197671Y32129D01*
X197036Y32846D01*
X196141Y33185D01*
X195191Y33070D01*
X194403Y32526D01*
X193958Y31679D01*
Y30721D01*
X194403Y29874D01*
X195191Y29330D01*
X196141Y29215D01*
X197036Y29554D01*
X197671Y30271D01*
X197900Y31200D01*
X198400Y39500D02*
X198171Y40429D01*
X197536Y41146D01*
X196641Y41485D01*
X195691Y41370D01*
X194903Y40826D01*
X194458Y39979D01*
Y39021D01*
X194903Y38174D01*
X195691Y37630D01*
X196641Y37515D01*
X197536Y37854D01*
X198171Y38571D01*
X198400Y39500D01*
X36000Y39400D02*
X35771Y40330D01*
X35136Y41046D01*
X34241Y41385D01*
X33291Y41270D01*
X32503Y40726D01*
X32058Y39879D01*
Y38921D01*
X32503Y38074D01*
X33291Y37530D01*
X34241Y37415D01*
X35136Y37754D01*
X35771Y38471D01*
X36000Y39400D01*
X43600Y41500D02*
X43371Y42430D01*
X42736Y43146D01*
X41841Y43485D01*
X40891Y43370D01*
X40103Y42826D01*
X39658Y41979D01*
Y41021D01*
X40103Y40174D01*
X40891Y39630D01*
X41841Y39515D01*
X42736Y39854D01*
X43371Y40571D01*
X43600Y41500D01*
X61000Y43500D02*
X60771Y44429D01*
X60136Y45146D01*
X59241Y45485D01*
X58291Y45370D01*
X57503Y44826D01*
X57058Y43979D01*
Y43021D01*
X57503Y42174D01*
X58291Y41630D01*
X59241Y41515D01*
X60136Y41854D01*
X60771Y42571D01*
X61000Y43500D01*
X95500Y45900D02*
X95271Y46830D01*
X94636Y47546D01*
X93741Y47885D01*
X92791Y47770D01*
X92003Y47226D01*
X91558Y46379D01*
Y45421D01*
X92003Y44574D01*
X92791Y44030D01*
X93741Y43915D01*
X94636Y44254D01*
X95271Y44971D01*
X95500Y45900D01*
X117800Y48600D02*
X117571Y49529D01*
X116936Y50246D01*
X116041Y50585D01*
X115091Y50470D01*
X114303Y49926D01*
X113858Y49079D01*
Y48121D01*
X114303Y47274D01*
X115091Y46730D01*
X116041Y46615D01*
X116936Y46954D01*
X117571Y47671D01*
X117800Y48600D01*
X118700Y54600D02*
X118471Y55529D01*
X117836Y56246D01*
X116941Y56585D01*
X115991Y56470D01*
X115203Y55926D01*
X114758Y55079D01*
Y54121D01*
X115203Y53274D01*
X115991Y52730D01*
X116941Y52615D01*
X117836Y52954D01*
X118471Y53671D01*
X118700Y54600D01*
X88763Y29700D02*
X88534Y30630D01*
X87899Y31346D01*
X87004Y31685D01*
X86054Y31570D01*
X85266Y31026D01*
X84821Y30179D01*
Y29221D01*
X85266Y28374D01*
X86054Y27830D01*
X87004Y27715D01*
X87899Y28054D01*
X88534Y28771D01*
X88763Y29700D01*
X101700Y31700D02*
X101471Y32629D01*
X100836Y33346D01*
X99941Y33685D01*
X98991Y33570D01*
X98203Y33026D01*
X97758Y32179D01*
Y31221D01*
X98203Y30374D01*
X98991Y29830D01*
X99941Y29715D01*
X100836Y30054D01*
X101471Y30771D01*
X101700Y31700D01*
X96400Y26400D02*
X96171Y27329D01*
X95536Y28046D01*
X94641Y28385D01*
X93691Y28270D01*
X92903Y27726D01*
X92458Y26879D01*
Y25921D01*
X92903Y25074D01*
X93691Y24530D01*
X94641Y24415D01*
X95536Y24754D01*
X96171Y25471D01*
X96400Y26400D01*
X116200Y34800D02*
X115971Y35730D01*
X115336Y36446D01*
X114441Y36785D01*
X113491Y36670D01*
X112703Y36126D01*
X112258Y35279D01*
Y34321D01*
X112703Y33474D01*
X113491Y32930D01*
X114441Y32815D01*
X115336Y33154D01*
X115971Y33871D01*
X116200Y34800D01*
X46100Y26000D02*
X45871Y26930D01*
X45236Y27646D01*
X44341Y27985D01*
X43391Y27870D01*
X42603Y27326D01*
X42158Y26479D01*
Y25521D01*
X42603Y24674D01*
X43391Y24130D01*
X44341Y24015D01*
X45236Y24354D01*
X45871Y25071D01*
X46100Y26000D01*
X34800Y10900D02*
X34571Y11829D01*
X33936Y12546D01*
X33041Y12885D01*
X32091Y12770D01*
X31303Y12226D01*
X30858Y11379D01*
Y10421D01*
X31303Y9574D01*
X32091Y9030D01*
X33041Y8915D01*
X33936Y9254D01*
X34571Y9971D01*
X34800Y10900D01*
X89200Y34100D02*
X88971Y35030D01*
X88336Y35746D01*
X87441Y36085D01*
X86491Y35970D01*
X85703Y35426D01*
X85258Y34579D01*
Y33621D01*
X85703Y32774D01*
X86491Y32230D01*
X87441Y32115D01*
X88336Y32454D01*
X88971Y33171D01*
X89200Y34100D01*
X90800Y49200D02*
X90571Y50129D01*
X89936Y50846D01*
X89041Y51185D01*
X88091Y51070D01*
X87303Y50526D01*
X86858Y49679D01*
Y48721D01*
X87303Y47874D01*
X88091Y47330D01*
X89041Y47215D01*
X89936Y47554D01*
X90571Y48271D01*
X90800Y49200D01*
X89300Y84800D02*
X89071Y85729D01*
X88436Y86446D01*
X87541Y86785D01*
X86591Y86670D01*
X85803Y86126D01*
X85358Y85279D01*
Y84321D01*
X85803Y83474D01*
X86591Y82930D01*
X87541Y82815D01*
X88436Y83154D01*
X89071Y83871D01*
X89300Y84800D01*
X104500Y112400D02*
X104271Y113329D01*
X103636Y114046D01*
X102741Y114385D01*
X101791Y114270D01*
X101003Y113726D01*
X100558Y112879D01*
Y111921D01*
X101003Y111074D01*
X101791Y110530D01*
X102741Y110415D01*
X103636Y110754D01*
X104271Y111471D01*
X104500Y112400D01*
X208331Y66069D02*
X208102Y66998D01*
X207467Y67715D01*
X206572Y68054D01*
X205622Y67939D01*
X204834Y67395D01*
X204389Y66548D01*
Y65590D01*
X204834Y64743D01*
X205622Y64199D01*
X206572Y64084D01*
X207467Y64423D01*
X208102Y65140D01*
X208331Y66069D01*
X213800Y53600D02*
X213571Y54529D01*
X212936Y55246D01*
X212041Y55585D01*
X211091Y55470D01*
X210303Y54926D01*
X209858Y54079D01*
Y53121D01*
X210303Y52274D01*
X211091Y51730D01*
X212041Y51615D01*
X212936Y51954D01*
X213571Y52671D01*
X213800Y53600D01*
X208800Y123800D02*
X208571Y124729D01*
X207936Y125446D01*
X207041Y125785D01*
X206091Y125670D01*
X205303Y125126D01*
X204858Y124279D01*
Y123321D01*
X205303Y122474D01*
X206091Y121930D01*
X207041Y121815D01*
X207936Y122154D01*
X208571Y122871D01*
X208800Y123800D01*
X180800Y68800D02*
X180571Y69729D01*
X179936Y70446D01*
X179041Y70785D01*
X178091Y70670D01*
X177303Y70126D01*
X176858Y69279D01*
Y68321D01*
X177303Y67474D01*
X178091Y66930D01*
X179041Y66815D01*
X179936Y67154D01*
X180571Y67871D01*
X180800Y68800D01*
X175000Y67800D02*
X174771Y68729D01*
X174136Y69446D01*
X173241Y69785D01*
X172291Y69670D01*
X171503Y69126D01*
X171058Y68279D01*
Y67321D01*
X171503Y66474D01*
X172291Y65930D01*
X173241Y65815D01*
X174136Y66154D01*
X174771Y66871D01*
X175000Y67800D01*
X205400Y87900D02*
X205171Y88829D01*
X204536Y89546D01*
X203641Y89885D01*
X202691Y89770D01*
X201903Y89226D01*
X201458Y88379D01*
Y87421D01*
X201903Y86574D01*
X202691Y86030D01*
X203641Y85915D01*
X204536Y86254D01*
X205171Y86971D01*
X205400Y87900D01*
X134800Y36200D02*
X134571Y37130D01*
X133936Y37846D01*
X133041Y38185D01*
X132091Y38070D01*
X131303Y37526D01*
X130858Y36679D01*
Y35721D01*
X131303Y34874D01*
X132091Y34330D01*
X133041Y34215D01*
X133936Y34554D01*
X134571Y35271D01*
X134800Y36200D01*
X50300Y94100D02*
X50071Y95029D01*
X49436Y95746D01*
X48541Y96085D01*
X47591Y95970D01*
X46803Y95426D01*
X46358Y94579D01*
Y93621D01*
X46803Y92774D01*
X47591Y92230D01*
X48541Y92115D01*
X49436Y92454D01*
X50071Y93171D01*
X50300Y94100D01*
X152900Y111200D02*
X152671Y112129D01*
X152036Y112846D01*
X151141Y113185D01*
X150191Y113070D01*
X149403Y112526D01*
X148958Y111679D01*
Y110721D01*
X149403Y109874D01*
X150191Y109330D01*
X151141Y109215D01*
X152036Y109554D01*
X152671Y110271D01*
X152900Y111200D01*
X157600Y104200D02*
X157371Y105129D01*
X156736Y105846D01*
X155841Y106185D01*
X154891Y106070D01*
X154103Y105526D01*
X153658Y104679D01*
Y103721D01*
X154103Y102874D01*
X154891Y102330D01*
X155841Y102215D01*
X156736Y102554D01*
X157371Y103271D01*
X157600Y104200D01*
X153300Y218900D02*
X153071Y219829D01*
X152436Y220546D01*
X151541Y220885D01*
X150591Y220770D01*
X149803Y220226D01*
X149358Y219379D01*
Y218421D01*
X149803Y217574D01*
X150591Y217030D01*
X151541Y216915D01*
X152436Y217254D01*
X153071Y217971D01*
X153300Y218900D01*
X143200Y61600D02*
X142971Y62529D01*
X142336Y63246D01*
X141441Y63585D01*
X140491Y63470D01*
X139703Y62926D01*
X139258Y62079D01*
Y61121D01*
X139703Y60274D01*
X140491Y59730D01*
X141441Y59615D01*
X142336Y59954D01*
X142971Y60671D01*
X143200Y61600D01*
X160372Y92900D02*
X160143Y93829D01*
X159509Y94546D01*
X158614Y94885D01*
X157663Y94770D01*
X156876Y94226D01*
X156431Y93379D01*
Y92421D01*
X156876Y91574D01*
X157663Y91030D01*
X158614Y90915D01*
X159509Y91254D01*
X160143Y91971D01*
X160372Y92900D01*
X150400Y94900D02*
X150171Y95829D01*
X149536Y96546D01*
X148641Y96885D01*
X147691Y96770D01*
X146903Y96226D01*
X146458Y95379D01*
Y94421D01*
X146903Y93574D01*
X147691Y93030D01*
X148641Y92915D01*
X149536Y93254D01*
X150171Y93971D01*
X150400Y94900D01*
X133300Y86200D02*
X133071Y87129D01*
X132436Y87846D01*
X131541Y88185D01*
X130591Y88070D01*
X129803Y87526D01*
X129358Y86679D01*
Y85721D01*
X129803Y84874D01*
X130591Y84330D01*
X131541Y84215D01*
X132436Y84554D01*
X133071Y85271D01*
X133300Y86200D01*
X117300Y81300D02*
X117071Y82229D01*
X116436Y82946D01*
X115541Y83285D01*
X114591Y83170D01*
X113803Y82626D01*
X113358Y81779D01*
Y80821D01*
X113803Y79974D01*
X114591Y79430D01*
X115541Y79315D01*
X116436Y79654D01*
X117071Y80371D01*
X117300Y81300D01*
X128600Y31500D02*
X128371Y32430D01*
X127736Y33146D01*
X126841Y33485D01*
X125891Y33370D01*
X125103Y32826D01*
X124658Y31979D01*
Y31021D01*
X125103Y30174D01*
X125891Y29630D01*
X126841Y29515D01*
X127736Y29854D01*
X128371Y30571D01*
X128600Y31500D01*
X161600Y43400D02*
X161371Y44330D01*
X160736Y45046D01*
X159841Y45385D01*
X158891Y45270D01*
X158103Y44726D01*
X157658Y43879D01*
Y42921D01*
X158103Y42074D01*
X158891Y41530D01*
X159841Y41415D01*
X160736Y41754D01*
X161371Y42471D01*
X161600Y43400D01*
X187200Y36500D02*
X186971Y37429D01*
X186336Y38146D01*
X185441Y38485D01*
X184491Y38370D01*
X183703Y37826D01*
X183258Y36979D01*
Y36021D01*
X183703Y35174D01*
X184491Y34630D01*
X185441Y34515D01*
X186336Y34854D01*
X186971Y35571D01*
X187200Y36500D01*
X165900Y39200D02*
X165671Y40130D01*
X165036Y40846D01*
X164141Y41185D01*
X163191Y41070D01*
X162403Y40526D01*
X161958Y39679D01*
Y38721D01*
X162403Y37874D01*
X163191Y37330D01*
X164141Y37215D01*
X165036Y37554D01*
X165671Y38271D01*
X165900Y39200D01*
X196700Y68800D02*
X196471Y69729D01*
X195836Y70446D01*
X194941Y70785D01*
X193991Y70670D01*
X193203Y70126D01*
X192758Y69279D01*
Y68321D01*
X193203Y67474D01*
X193991Y66930D01*
X194941Y66815D01*
X195836Y67154D01*
X196471Y67871D01*
X196700Y68800D01*
X81400Y187200D02*
X81171Y188129D01*
X80536Y188846D01*
X79641Y189185D01*
X78691Y189070D01*
X77903Y188526D01*
X77458Y187679D01*
Y186721D01*
X77903Y185874D01*
X78691Y185330D01*
X79641Y185215D01*
X80536Y185554D01*
X81171Y186271D01*
X81400Y187200D01*
X77000Y106900D02*
X76771Y107829D01*
X76136Y108546D01*
X75241Y108885D01*
X74291Y108770D01*
X73503Y108226D01*
X73058Y107379D01*
Y106421D01*
X73503Y105574D01*
X74291Y105030D01*
X75241Y104915D01*
X76136Y105254D01*
X76771Y105971D01*
X77000Y106900D01*
X67300Y119000D02*
X67071Y119929D01*
X66436Y120646D01*
X65541Y120985D01*
X64591Y120870D01*
X63803Y120326D01*
X63358Y119479D01*
Y118521D01*
X63803Y117674D01*
X64591Y117130D01*
X65541Y117015D01*
X66436Y117354D01*
X67071Y118071D01*
X67300Y119000D01*
X117800Y191500D02*
X117571Y192429D01*
X116936Y193146D01*
X116041Y193485D01*
X115091Y193370D01*
X114303Y192826D01*
X113858Y191979D01*
Y191021D01*
X114303Y190174D01*
X115091Y189630D01*
X116041Y189515D01*
X116936Y189854D01*
X117571Y190571D01*
X117800Y191500D01*
X140200D02*
X139971Y192429D01*
X139336Y193146D01*
X138441Y193485D01*
X137491Y193370D01*
X136703Y192826D01*
X136258Y191979D01*
Y191021D01*
X136703Y190174D01*
X137491Y189630D01*
X138441Y189515D01*
X139336Y189854D01*
X139971Y190571D01*
X140200Y191500D01*
D89*
X81767Y200000D02*
X81415Y200849D01*
X80567Y201200D01*
X79719Y200849D01*
X79367Y200000D01*
X79719Y199152D01*
X80567Y198800D01*
X81415Y199152D01*
X81767Y200000D01*
X117200D02*
X116849Y200849D01*
X116000Y201200D01*
X115152Y200849D01*
X114800Y200000D01*
X115152Y199152D01*
X116000Y198800D01*
X116849Y199152D01*
X117200Y200000D01*
X190798D02*
X190447Y200849D01*
X189598Y201200D01*
X188750Y200849D01*
X188398Y200000D01*
X188750Y199152D01*
X189598Y198800D01*
X190447Y199152D01*
X190798Y200000D01*
X226232D02*
X225880Y200849D01*
X225032Y201200D01*
X224183Y200849D01*
X223832Y200000D01*
X224183Y199152D01*
X225032Y198800D01*
X225880Y199152D01*
X226232Y200000D01*
X136842D02*
X136490Y200849D01*
X135642Y201200D01*
X134793Y200849D01*
X134442Y200000D01*
X134793Y199152D01*
X135642Y198800D01*
X136490Y199152D01*
X136842Y200000D01*
X172275D02*
X171923Y200849D01*
X171075Y201200D01*
X170226Y200849D01*
X169875Y200000D01*
X170226Y199152D01*
X171075Y198800D01*
X171923Y199152D01*
X172275Y200000D01*
M02*
