G04*
G04 #@! TF.GenerationSoftware,Altium Limited,Altium Designer,24.1.2 (44)*
G04*
G04 Layer_Color=255*
%FSLAX25Y25*%
%MOIN*%
G70*
G04*
G04 #@! TF.SameCoordinates,9647829F-9D65-4518-952E-74710912C15A*
G04*
G04*
G04 #@! TF.FilePolarity,Positive*
G04*
G01*
G75*
%ADD18R,0.06693X0.04331*%
%ADD25R,0.07087X0.04528*%
%ADD38C,0.07874*%
%ADD42R,0.06102X0.06102*%
%ADD43C,0.06102*%
%ADD44R,0.05512X0.05512*%
%ADD45C,0.05512*%
%ADD46R,0.05512X0.05512*%
%ADD51C,0.04331*%
%ADD58R,0.04724X0.04724*%
%ADD59C,0.04724*%
%ADD60C,0.07284*%
%ADD61R,0.06102X0.06102*%
%ADD62R,0.06201X0.06201*%
%ADD63C,0.06201*%
%ADD64C,0.02559*%
%ADD65R,0.06201X0.06201*%
%ADD68R,0.06299X0.12598*%
%ADD69R,0.07008X0.04213*%
%ADD70R,0.05118X0.04331*%
%ADD71R,0.05906X0.04921*%
%ADD72O,0.05315X0.02165*%
%ADD73O,0.02165X0.05315*%
D18*
X41800Y59109D02*
D03*
Y47691D02*
D03*
D25*
X150500Y48194D02*
D03*
Y60006D02*
D03*
X184400Y59805D02*
D03*
Y47994D02*
D03*
D38*
X108126Y224606D02*
D03*
Y175394D02*
D03*
X88441Y224606D02*
D03*
Y175394D02*
D03*
X217158Y224606D02*
D03*
Y175394D02*
D03*
X197472Y224606D02*
D03*
Y175394D02*
D03*
X163201Y224606D02*
D03*
Y175394D02*
D03*
X143516Y224606D02*
D03*
Y175394D02*
D03*
X14500Y64600D02*
D03*
Y54600D02*
D03*
Y44600D02*
D03*
Y34600D02*
D03*
Y24600D02*
D03*
X24500Y64600D02*
D03*
Y54600D02*
D03*
Y44600D02*
D03*
Y34600D02*
D03*
Y24600D02*
D03*
D42*
X125495Y24358D02*
D03*
D43*
X42100Y72300D02*
D03*
X99905Y24358D02*
D03*
X125495Y6642D02*
D03*
X99905D02*
D03*
D44*
X154515Y17800D02*
D03*
X186300Y245500D02*
D03*
X93157D02*
D03*
X42515Y13600D02*
D03*
D45*
X164358Y17800D02*
D03*
X174200D02*
D03*
X184043D02*
D03*
X193885D02*
D03*
X203728D02*
D03*
X224867Y56700D02*
D03*
Y66543D02*
D03*
X224600Y112100D02*
D03*
Y121943D02*
D03*
X176457Y245500D02*
D03*
X166615D02*
D03*
X142370D02*
D03*
X132528D02*
D03*
X122685D02*
D03*
X112843D02*
D03*
X103000D02*
D03*
X20600Y107000D02*
D03*
Y116843D02*
D03*
X52357Y13600D02*
D03*
X62200D02*
D03*
X72043D02*
D03*
D46*
X224867Y46858D02*
D03*
X224600Y102258D02*
D03*
X20600Y97158D02*
D03*
D51*
X36216Y21474D02*
D03*
D58*
X72200Y55006D02*
D03*
D59*
Y35794D02*
D03*
D60*
X80567Y200000D02*
D03*
X116000D02*
D03*
X189598D02*
D03*
X225032D02*
D03*
X135642D02*
D03*
X171075D02*
D03*
D61*
X42100Y82300D02*
D03*
D62*
X213600Y245600D02*
D03*
D63*
X223443D02*
D03*
X34300Y147900D02*
D03*
D64*
X229742Y237726D02*
D03*
X26426Y141601D02*
D03*
D65*
X34300Y157743D02*
D03*
D68*
X97800Y190157D02*
D03*
Y209843D02*
D03*
D69*
X167100Y59300D02*
D03*
Y48591D02*
D03*
D70*
X180100Y83834D02*
D03*
Y75566D02*
D03*
X194500Y75600D02*
D03*
Y83868D02*
D03*
D71*
X153600Y206091D02*
D03*
Y192509D02*
D03*
D72*
X101861Y45876D02*
D03*
Y49026D02*
D03*
Y52176D02*
D03*
Y55325D02*
D03*
Y58475D02*
D03*
Y61624D02*
D03*
Y64774D02*
D03*
Y67924D02*
D03*
X134539D02*
D03*
Y64774D02*
D03*
Y61624D02*
D03*
Y58475D02*
D03*
Y55325D02*
D03*
Y52176D02*
D03*
Y49026D02*
D03*
Y45876D02*
D03*
D73*
X107176Y73239D02*
D03*
X110326D02*
D03*
X113476D02*
D03*
X116625D02*
D03*
X119775D02*
D03*
X122924D02*
D03*
X126074D02*
D03*
X129224D02*
D03*
Y40561D02*
D03*
X126074D02*
D03*
X122924D02*
D03*
X119775D02*
D03*
X116625D02*
D03*
X113476D02*
D03*
X110326D02*
D03*
X107176D02*
D03*
M02*
