G04*
G04 #@! TF.GenerationSoftware,Altium Limited,Altium Designer,24.1.2 (44)*
G04*
G04 Layer_Color=32768*
%FSLAX25Y25*%
%MOIN*%
G70*
G04*
G04 #@! TF.SameCoordinates,9647829F-9D65-4518-952E-74710912C15A*
G04*
G04*
G04 #@! TF.FilePolarity,Positive*
G04*
G01*
G75*
%ADD10C,0.00787*%
%ADD14C,0.00394*%
%ADD80C,0.00197*%
D10*
X50173Y56048D02*
X60827D01*
Y49552D02*
Y56048D01*
X50173Y49552D02*
X60827D01*
X50173D02*
Y56048D01*
X49973Y32852D02*
X60627D01*
X49973D02*
Y39348D01*
X60627D01*
Y32852D02*
Y39348D01*
D14*
X72200Y43432D02*
Y47369D01*
X70231Y45400D02*
X74168D01*
X102563Y89094D02*
Y168937D01*
Y89094D02*
X155437D01*
Y168937D01*
X102563D02*
X155437D01*
X156063Y89094D02*
Y168937D01*
Y89094D02*
X208937D01*
Y168937D01*
X156063D02*
X208937D01*
D80*
X65904Y68063D02*
X64863Y67838D01*
X63940Y67308D01*
X63223Y66520D01*
X62779Y65552D01*
X62653Y64495D01*
X81747Y64421D02*
X81639Y65495D01*
X81205Y66483D01*
X80487Y67289D01*
X79554Y67833D01*
X78499Y68063D01*
Y22664D02*
X79554Y22893D01*
X80487Y23437D01*
X81205Y24243D01*
X81639Y25231D01*
X81747Y26305D01*
X62653Y26232D02*
X62779Y25174D01*
X63223Y24206D01*
X63940Y23419D01*
X64863Y22888D01*
X65904Y22664D01*
X54000Y77300D02*
X53958Y78296D01*
X53833Y79285D01*
X53626Y80259D01*
X53338Y81213D01*
X52971Y82140D01*
X52528Y83033D01*
X52011Y83885D01*
X51426Y84691D01*
X50774Y85446D01*
X50062Y86143D01*
X49294Y86778D01*
X48476Y87347D01*
X47613Y87845D01*
X46711Y88270D01*
X45777Y88617D01*
X44817Y88885D01*
X43838Y89072D01*
X42847Y89176D01*
X41851Y89197D01*
X40856Y89134D01*
X39870Y88989D01*
X38900Y88761D01*
X37952Y88453D01*
X37033Y88067D01*
X36150Y87605D01*
X35309Y87071D01*
X34515Y86469D01*
X33774Y85802D01*
X33092Y85075D01*
X32473Y84294D01*
X31921Y83464D01*
X31441Y82591D01*
X31036Y81681D01*
X30708Y80739D01*
X30460Y79774D01*
X30294Y78791D01*
X30211Y77798D01*
Y76802D01*
X30294Y75809D01*
X30460Y74826D01*
X30708Y73861D01*
X31036Y72919D01*
X31441Y72009D01*
X31921Y71136D01*
X32473Y70306D01*
X33092Y69525D01*
X33774Y68798D01*
X34515Y68131D01*
X35309Y67529D01*
X36150Y66995D01*
X37033Y66533D01*
X37952Y66147D01*
X38900Y65839D01*
X39870Y65611D01*
X40856Y65466D01*
X41851Y65403D01*
X42847Y65424D01*
X43838Y65528D01*
X44817Y65715D01*
X45777Y65983D01*
X46711Y66330D01*
X47613Y66755D01*
X48476Y67253D01*
X49294Y67822D01*
X50062Y68457D01*
X50774Y69154D01*
X51426Y69909D01*
X52011Y70715D01*
X52528Y71567D01*
X52971Y72460D01*
X53338Y73387D01*
X53626Y74341D01*
X53833Y75315D01*
X53958Y76304D01*
X54000Y77300D01*
X65904Y68063D02*
X78499D01*
X65904Y22664D02*
X78499D01*
X62653Y26306D02*
Y64495D01*
X81747Y26306D02*
Y64495D01*
X167970Y71950D02*
Y88564D01*
X159230Y71950D02*
X167970D01*
X159230D02*
Y88564D01*
X167970D01*
X195369Y44250D02*
Y61967D01*
X204031D01*
Y44250D02*
Y61967D01*
X195369Y44250D02*
X204031D01*
X145669Y71142D02*
Y88858D01*
X154331D01*
Y71142D02*
Y88858D01*
X145669Y71142D02*
X154331D01*
X132869Y71042D02*
Y88758D01*
X141531D01*
Y71042D02*
Y88758D01*
X132869Y71042D02*
X141531D01*
X119769D02*
Y88758D01*
X128431D01*
Y71042D02*
Y88758D01*
X119769Y71042D02*
X128431D01*
X90469Y74042D02*
X99131D01*
Y91758D01*
X90469D02*
X99131D01*
X90469Y74042D02*
Y91758D01*
X169833Y62831D02*
X187550D01*
Y54169D02*
Y62831D01*
X169833Y54169D02*
X187550D01*
X169833D02*
Y62831D01*
X105069Y70842D02*
Y88558D01*
X113731D01*
Y70842D02*
Y88558D01*
X105069Y70842D02*
X113731D01*
X169742Y41069D02*
X187458D01*
X169742D02*
Y49731D01*
X187458D01*
Y41069D02*
Y49731D01*
X86487Y71681D02*
Y94319D01*
X72313Y71681D02*
X86487D01*
X72313D02*
Y94319D01*
X86487D01*
X67428Y73254D02*
Y92546D01*
X58372Y73254D02*
X67428D01*
X58372D02*
Y92546D01*
X67428D01*
M02*
