G04*
G04 #@! TF.GenerationSoftware,Altium Limited,Altium Designer,24.1.2 (44)*
G04*
G04 Layer_Color=16711935*
%FSLAX25Y25*%
%MOIN*%
G70*
G04*
G04 #@! TF.SameCoordinates,9647829F-9D65-4518-952E-74710912C15A*
G04*
G04*
G04 #@! TF.FilePolarity,Positive*
G04*
G01*
G75*
%ADD10C,0.00787*%
%ADD14C,0.00394*%
%ADD15C,0.01000*%
D10*
X74661Y223622D02*
X121906D01*
X74661Y176378D02*
Y223622D01*
Y176378D02*
X121906D01*
Y223622D01*
X183693D02*
X230937D01*
X183693Y176378D02*
Y223622D01*
Y176378D02*
X230937D01*
Y223622D01*
X129736D02*
X176980D01*
X129736Y176378D02*
Y223622D01*
Y176378D02*
X176980D01*
Y223622D01*
X149500Y114685D02*
Y149370D01*
X108500Y114685D02*
X149500D01*
X108500D02*
Y149370D01*
X149500D01*
X51563Y55261D02*
X59437D01*
Y50339D02*
Y55261D01*
X51563Y50339D02*
X59437D01*
X51563D02*
Y55261D01*
X51363Y33639D02*
X59237D01*
X51363D02*
Y38561D01*
X59237D01*
Y33639D02*
Y38561D01*
X203000Y114685D02*
Y149370D01*
X162000Y114685D02*
X203000D01*
X162000D02*
Y149370D01*
X203000D01*
X82550Y76701D02*
Y89299D01*
X76250Y76701D02*
X82550D01*
X76250D02*
Y89299D01*
X82550D01*
D14*
X81354Y64494D02*
X81195Y65498D01*
X80734Y66403D01*
X80015Y67122D01*
X79110Y67583D01*
X78106Y67742D01*
X66295Y67742D02*
X65291Y67583D01*
X64386Y67122D01*
X63667Y66403D01*
X63206Y65498D01*
X63047Y64494D01*
Y26305D02*
X63206Y25302D01*
X63667Y24396D01*
X64386Y23677D01*
X65291Y23216D01*
X66295Y23057D01*
X78106Y23057D02*
X79110Y23216D01*
X80015Y23677D01*
X80734Y24396D01*
X81195Y25302D01*
X81354Y26305D01*
X79484Y63411D02*
X79246Y64297D01*
X78598Y64946D01*
X77712Y65183D01*
X66689D02*
X65803Y64946D01*
X65154Y64297D01*
X64917Y63411D01*
Y27388D02*
X65154Y26502D01*
X65803Y25854D01*
X66689Y25616D01*
X77712D02*
X78598Y25854D01*
X79246Y26502D01*
X79484Y27388D01*
X53606Y77300D02*
X53562Y78303D01*
X53431Y79298D01*
X53214Y80278D01*
X52912Y81235D01*
X52528Y82163D01*
X52064Y83053D01*
X51525Y83899D01*
X50914Y84696D01*
X50236Y85436D01*
X49496Y86114D01*
X48700Y86725D01*
X47853Y87264D01*
X46963Y87728D01*
X46035Y88112D01*
X45078Y88414D01*
X44098Y88631D01*
X43103Y88762D01*
X42100Y88806D01*
X41097Y88762D01*
X40102Y88631D01*
X39122Y88414D01*
X38165Y88112D01*
X37237Y87728D01*
X36347Y87264D01*
X35500Y86725D01*
X34704Y86114D01*
X33964Y85436D01*
X33286Y84696D01*
X32675Y83899D01*
X32136Y83053D01*
X31672Y82163D01*
X31288Y81235D01*
X30986Y80278D01*
X30769Y79298D01*
X30638Y78303D01*
X30594Y77300D01*
X30638Y76297D01*
X30769Y75302D01*
X30986Y74322D01*
X31288Y73365D01*
X31672Y72437D01*
X32136Y71547D01*
X32675Y70701D01*
X33286Y69904D01*
X33964Y69164D01*
X34704Y68486D01*
X35500Y67875D01*
X36347Y67336D01*
X37237Y66872D01*
X38165Y66488D01*
X39122Y66186D01*
X40102Y65969D01*
X41097Y65838D01*
X42100Y65794D01*
X43103Y65838D01*
X44098Y65969D01*
X45078Y66186D01*
X46035Y66488D01*
X46963Y66872D01*
X47853Y67336D01*
X48700Y67875D01*
X49496Y68486D01*
X50236Y69164D01*
X50914Y69904D01*
X51525Y70701D01*
X52064Y71547D01*
X52528Y72437D01*
X52912Y73365D01*
X53214Y74322D01*
X53431Y75302D01*
X53562Y76297D01*
X53606Y77300D01*
X63047Y26305D02*
Y64494D01*
X81354Y26305D02*
Y64494D01*
X64917Y27388D02*
Y63412D01*
X79484Y27388D02*
Y63412D01*
X66689Y25616D02*
X77712D01*
X66295Y23057D02*
X78106D01*
X66689Y65183D02*
X77712D01*
X66295Y67742D02*
X78106D01*
X66295D02*
Y67742D01*
X166750Y73958D02*
Y86557D01*
X160450Y73958D02*
X166750D01*
X160450D02*
Y86557D01*
X166750D01*
X196649Y46959D02*
Y59258D01*
X202751D01*
Y46959D02*
Y59258D01*
X196649Y46959D02*
X202751D01*
X146949Y73850D02*
Y86150D01*
X153051D01*
Y73850D02*
Y86150D01*
X146949Y73850D02*
X153051D01*
X134149Y73750D02*
Y86050D01*
X140251D01*
Y73750D02*
Y86050D01*
X134149Y73750D02*
X140251D01*
X121049D02*
Y86050D01*
X127151D01*
Y73750D02*
Y86050D01*
X121049Y73750D02*
X127151D01*
X91749Y76750D02*
X97851D01*
Y89050D01*
X91749D02*
X97851D01*
X91749Y76750D02*
Y89050D01*
X172542Y61551D02*
X184841D01*
Y55449D02*
Y61551D01*
X172542Y55449D02*
X184841D01*
X172542D02*
Y61551D01*
X106349Y73550D02*
Y85850D01*
X112451D01*
Y73550D02*
Y85850D01*
X106349Y73550D02*
X112451D01*
X172450Y42349D02*
X184750D01*
X172450D02*
Y48451D01*
X184750D01*
Y42349D02*
Y48451D01*
X66050Y76601D02*
Y89199D01*
X59750Y76601D02*
X66050D01*
X59750D02*
Y89199D01*
X66050D01*
X63589D02*
X66050Y86739D01*
D15*
X95079Y116480D02*
Y152504D01*
X54921Y116480D02*
X95079D01*
X54921D02*
Y152504D01*
X95079D01*
M02*
