G04*
G04 #@! TF.GenerationSoftware,Altium Limited,Altium Designer,24.1.2 (44)*
G04*
G04 Layer_Color=128*
%FSLAX25Y25*%
%MOIN*%
G70*
G04*
G04 #@! TF.SameCoordinates,9647829F-9D65-4518-952E-74710912C15A*
G04*
G04*
G04 #@! TF.FilePolarity,Positive*
G04*
G01*
G75*
%ADD87C,0.00500*%
D87*
X70822Y55006D02*
X73578D01*
X72200Y53628D02*
Y56384D01*
X70822Y35794D02*
X73578D01*
X72200Y34416D02*
Y37172D01*
X76925Y200000D02*
X84209D01*
X80567Y196358D02*
Y203642D01*
X112358Y200000D02*
X119642D01*
X116000Y196358D02*
Y203642D01*
X105665Y224606D02*
X110587D01*
X108126Y222146D02*
Y227067D01*
X105665Y175394D02*
X110587D01*
X108126Y172933D02*
Y177854D01*
X85980Y224606D02*
X90902D01*
X88441Y222146D02*
Y227067D01*
X85980Y175394D02*
X90902D01*
X88441Y172933D02*
Y177854D01*
X185957Y200000D02*
X193240D01*
X189598Y196358D02*
Y203642D01*
X221390Y200000D02*
X228673D01*
X225032Y196358D02*
Y203642D01*
X214697Y224606D02*
X219618D01*
X217158Y222146D02*
Y227067D01*
X214697Y175394D02*
X219618D01*
X217158Y172933D02*
Y177854D01*
X195012Y224606D02*
X199933D01*
X197472Y222146D02*
Y227067D01*
X195012Y175394D02*
X199933D01*
X197472Y172933D02*
Y177854D01*
X132000Y200000D02*
X139283D01*
X135642Y196358D02*
Y203642D01*
X167433Y200000D02*
X174716D01*
X171075Y196358D02*
Y203642D01*
X160740Y224606D02*
X165661D01*
X163201Y222146D02*
Y227067D01*
X160740Y175394D02*
X165661D01*
X163201Y172933D02*
Y177854D01*
X141055Y224606D02*
X145976D01*
X143516Y222146D02*
Y227067D01*
X141055Y175394D02*
X145976D01*
X143516Y172933D02*
Y177854D01*
X40033Y72300D02*
X44167D01*
X42100Y70233D02*
Y74367D01*
X40033Y82300D02*
X44167D01*
X42100Y80233D02*
Y84367D01*
X123527Y24358D02*
X127464D01*
X125495Y22390D02*
Y26327D01*
X97936Y24358D02*
X101873D01*
X99905Y22390D02*
Y26327D01*
X123527Y6642D02*
X127464D01*
X125495Y4673D02*
Y8610D01*
X97936Y6642D02*
X101873D01*
X99905Y4673D02*
Y8610D01*
X152743Y17800D02*
X156287D01*
X154515Y16028D02*
Y19572D01*
X162586Y17800D02*
X166129D01*
X164358Y16028D02*
Y19572D01*
X172428Y17800D02*
X175972D01*
X174200Y16028D02*
Y19572D01*
X182271Y17800D02*
X185814D01*
X184043Y16028D02*
Y19572D01*
X192113Y17800D02*
X195657D01*
X193885Y16028D02*
Y19572D01*
X201956Y17800D02*
X205499D01*
X203728Y16028D02*
Y19572D01*
X223095Y46858D02*
X226639D01*
X224867Y45086D02*
Y48629D01*
X223095Y56700D02*
X226639D01*
X224867Y54928D02*
Y58472D01*
X223095Y66543D02*
X226639D01*
X224867Y64771D02*
Y68314D01*
X211533Y245600D02*
X215667D01*
X213600Y243533D02*
Y247667D01*
X221376Y245600D02*
X225510D01*
X223443Y243533D02*
Y247667D01*
X227183Y237726D02*
X232301D01*
X229742Y235167D02*
Y240285D01*
X222828Y102258D02*
X226372D01*
X224600Y100486D02*
Y104029D01*
X222828Y112100D02*
X226372D01*
X224600Y110328D02*
Y113872D01*
X222828Y121943D02*
X226372D01*
X224600Y120171D02*
Y123714D01*
X184528Y245500D02*
X188072D01*
X186300Y243728D02*
Y247272D01*
X174686Y245500D02*
X178229D01*
X176457Y243728D02*
Y247272D01*
X164843Y245500D02*
X168386D01*
X166615Y243728D02*
Y247272D01*
X140598Y245500D02*
X144142D01*
X142370Y243728D02*
Y247272D01*
X130756Y245500D02*
X134299D01*
X132528Y243728D02*
Y247272D01*
X120913Y245500D02*
X124457D01*
X122685Y243728D02*
Y247272D01*
X111071Y245500D02*
X114614D01*
X112843Y243728D02*
Y247272D01*
X101228Y245500D02*
X104772D01*
X103000Y243728D02*
Y247272D01*
X91386Y245500D02*
X94929D01*
X93157Y243728D02*
Y247272D01*
X23867Y141601D02*
X28985D01*
X26426Y139042D02*
Y144160D01*
X32233Y147900D02*
X36367D01*
X34300Y145833D02*
Y149967D01*
X32233Y157743D02*
X36367D01*
X34300Y155676D02*
Y159810D01*
X18828Y97158D02*
X22372D01*
X20600Y95386D02*
Y98929D01*
X18828Y107000D02*
X22372D01*
X20600Y105228D02*
Y108772D01*
X18828Y116843D02*
X22372D01*
X20600Y115071D02*
Y118614D01*
X12335Y64600D02*
X16665D01*
X14500Y62435D02*
Y66765D01*
X12335Y54600D02*
X16665D01*
X14500Y52435D02*
Y56765D01*
X12335Y44600D02*
X16665D01*
X14500Y42435D02*
Y46765D01*
X12335Y34600D02*
X16665D01*
X14500Y32435D02*
Y36765D01*
X12335Y24600D02*
X16665D01*
X14500Y22435D02*
Y26765D01*
X22335Y64600D02*
X26665D01*
X24500Y62435D02*
Y66765D01*
X22335Y54600D02*
X26665D01*
X24500Y52435D02*
Y56765D01*
X22335Y44600D02*
X26665D01*
X24500Y42435D02*
Y46765D01*
X22335Y34600D02*
X26665D01*
X24500Y32435D02*
Y36765D01*
X22335Y24600D02*
X26665D01*
X24500Y22435D02*
Y26765D01*
X40743Y13600D02*
X44287D01*
X42515Y11828D02*
Y15372D01*
X50586Y13600D02*
X54129D01*
X52357Y11828D02*
Y15372D01*
X60428Y13600D02*
X63972D01*
X62200Y11828D02*
Y15372D01*
X70271Y13600D02*
X73814D01*
X72043Y11828D02*
Y15372D01*
X34051Y21474D02*
X38381D01*
X36216Y19309D02*
Y23639D01*
X6063Y165000D02*
X13937D01*
X10000Y161063D02*
Y168937D01*
X6063Y10000D02*
X13937D01*
X10000Y6063D02*
Y13937D01*
X221863Y10200D02*
X229737D01*
X225800Y6263D02*
Y14137D01*
X221763Y154300D02*
X229637D01*
X225700Y150363D02*
Y158237D01*
X71063Y245000D02*
X78937D01*
X75000Y241063D02*
Y248937D01*
X116409Y63000D02*
X117591D01*
X117000Y62410D02*
Y63591D01*
X109909Y63700D02*
X111091D01*
X110500Y63109D02*
Y64290D01*
X126009Y57900D02*
X127191D01*
X126600Y57310D02*
Y58491D01*
X124709Y49400D02*
X125891D01*
X125300Y48809D02*
Y49991D01*
X110109Y48800D02*
X111291D01*
X110700Y48209D02*
Y49391D01*
X83810Y63900D02*
X84991D01*
X84400Y63310D02*
Y64490D01*
X54610Y62800D02*
X55791D01*
X55200Y62209D02*
Y63390D01*
X121509Y67200D02*
X122691D01*
X122100Y66610D02*
Y67791D01*
X121409Y63000D02*
X122591D01*
X122000Y62410D02*
Y63591D01*
X126709Y63900D02*
X127891D01*
X127300Y63310D02*
Y64490D01*
X214709Y27300D02*
X215891D01*
X215300Y26709D02*
Y27891D01*
X195309Y31200D02*
X196491D01*
X195900Y30609D02*
Y31791D01*
X195809Y39500D02*
X196991D01*
X196400Y38909D02*
Y40091D01*
X33409Y39400D02*
X34591D01*
X34000Y38809D02*
Y39991D01*
X41009Y41500D02*
X42191D01*
X41600Y40909D02*
Y42091D01*
X58410Y43500D02*
X59591D01*
X59000Y42909D02*
Y44091D01*
X92909Y45900D02*
X94090D01*
X93500Y45309D02*
Y46491D01*
X115209Y48600D02*
X116391D01*
X115800Y48009D02*
Y49191D01*
X116109Y54600D02*
X117291D01*
X116700Y54009D02*
Y55190D01*
X86172Y29700D02*
X87354D01*
X86763Y29109D02*
Y30291D01*
X99110Y31700D02*
X100291D01*
X99700Y31109D02*
Y32291D01*
X93809Y26400D02*
X94990D01*
X94400Y25809D02*
Y26991D01*
X113609Y34800D02*
X114791D01*
X114200Y34209D02*
Y35391D01*
X43509Y26000D02*
X44691D01*
X44100Y25409D02*
Y26591D01*
X32209Y10900D02*
X33391D01*
X32800Y10309D02*
Y11491D01*
X86610Y34100D02*
X87791D01*
X87200Y33509D02*
Y34691D01*
X88209Y49200D02*
X89390D01*
X88800Y48609D02*
Y49791D01*
X86709Y84800D02*
X87890D01*
X87300Y84210D02*
Y85391D01*
X101909Y112400D02*
X103091D01*
X102500Y111809D02*
Y112991D01*
X205740Y66069D02*
X206922D01*
X206331Y65478D02*
Y66660D01*
X211210Y53600D02*
X212390D01*
X211800Y53009D02*
Y54190D01*
X206209Y123800D02*
X207390D01*
X206800Y123209D02*
Y124391D01*
X178209Y68800D02*
X179391D01*
X178800Y68209D02*
Y69390D01*
X172409Y67800D02*
X173591D01*
X173000Y67210D02*
Y68391D01*
X202809Y87900D02*
X203991D01*
X203400Y87309D02*
Y88490D01*
X132209Y36200D02*
X133391D01*
X132800Y35609D02*
Y36791D01*
X47709Y94100D02*
X48891D01*
X48300Y93510D02*
Y94691D01*
X150309Y111200D02*
X151491D01*
X150900Y110609D02*
Y111791D01*
X155009Y104200D02*
X156191D01*
X155600Y103609D02*
Y104791D01*
X150709Y218900D02*
X151891D01*
X151300Y218309D02*
Y219491D01*
X140609Y61600D02*
X141791D01*
X141200Y61010D02*
Y62191D01*
X157782Y92900D02*
X158963D01*
X158372Y92309D02*
Y93490D01*
X147809Y94900D02*
X148991D01*
X148400Y94310D02*
Y95490D01*
X130709Y86200D02*
X131891D01*
X131300Y85610D02*
Y86791D01*
X114709Y81300D02*
X115891D01*
X115300Y80709D02*
Y81890D01*
X126009Y31500D02*
X127191D01*
X126600Y30909D02*
Y32091D01*
X159009Y43400D02*
X160191D01*
X159600Y42809D02*
Y43991D01*
X184609Y36500D02*
X185791D01*
X185200Y35909D02*
Y37091D01*
X163309Y39200D02*
X164491D01*
X163900Y38609D02*
Y39791D01*
X194109Y68800D02*
X195291D01*
X194700Y68209D02*
Y69390D01*
X78809Y187200D02*
X79991D01*
X79400Y186609D02*
Y187791D01*
X74410Y106900D02*
X75590D01*
X75000Y106309D02*
Y107491D01*
X64710Y119000D02*
X65891D01*
X65300Y118409D02*
Y119591D01*
X115209Y191500D02*
X116391D01*
X115800Y190909D02*
Y192091D01*
X137609Y191500D02*
X138791D01*
X138200Y190909D02*
Y192091D01*
M02*
