G04*
G04 #@! TF.GenerationSoftware,Altium Limited,Altium Designer,24.1.2 (44)*
G04*
G04 Layer_Color=32768*
%FSLAX25Y25*%
%MOIN*%
G70*
G04*
G04 #@! TF.SameCoordinates,9647829F-9D65-4518-952E-74710912C15A*
G04*
G04*
G04 #@! TF.FilePolarity,Positive*
G04*
G01*
G75*
%ADD10C,0.00787*%
%ADD14C,0.00394*%
D10*
X147350Y60399D02*
X153650D01*
Y47801D02*
Y60399D01*
X147350Y47801D02*
X153650D01*
X147350D02*
Y60399D01*
X181250Y47601D02*
Y60199D01*
Y47601D02*
X187550D01*
Y60199D01*
X181250D02*
X187550D01*
X100889Y27311D02*
X124511D01*
X100889Y3689D02*
Y27311D01*
Y3689D02*
X124511D01*
Y27311D01*
X144869Y4414D02*
X213373D01*
Y27052D01*
X144869D02*
X213373D01*
X144869Y4414D02*
Y27052D01*
X234119Y37212D02*
Y76188D01*
X211481D02*
X234119D01*
X211481Y37212D02*
Y76188D01*
Y37212D02*
X234119D01*
X203954Y254852D02*
X233088D01*
Y232214D02*
Y254852D01*
X203954Y232214D02*
X233088D01*
X203954D02*
Y254852D01*
X233852Y92612D02*
Y131588D01*
X211214D02*
X233852D01*
X211214Y92612D02*
Y131588D01*
Y92612D02*
X233852D01*
X156969Y254752D02*
X195946D01*
X156969Y232114D02*
Y254752D01*
Y232114D02*
X195946D01*
Y254752D01*
X83512Y232114D02*
Y254752D01*
X152016D01*
Y232114D02*
Y254752D01*
X83512Y232114D02*
X152016D01*
X20914Y167388D02*
X43552D01*
X20914Y138254D02*
Y167388D01*
Y138254D02*
X43552D01*
Y167388D01*
X29852Y87512D02*
Y126488D01*
X7214D02*
X29852D01*
X7214Y87512D02*
Y126488D01*
Y87512D02*
X29852D01*
X32869Y26986D02*
X81688D01*
X32869Y4348D02*
Y26986D01*
Y4348D02*
X81688D01*
Y26986D01*
D14*
X109932Y46664D02*
X109669Y47648D01*
X108948Y48368D01*
X107964Y48632D01*
X106980Y48368D01*
X106259Y47648D01*
X105995Y46664D01*
X106259Y45680D01*
X106980Y44959D01*
X107964Y44695D01*
X108948Y44959D01*
X109669Y45680D01*
X109932Y46664D01*
X103706Y187008D02*
X110792Y194094D01*
Y212992D01*
X84808D02*
X110792D01*
X84808Y194094D02*
Y212992D01*
Y194094D02*
X91894Y187008D01*
X103706D01*
X110792Y194094D01*
X38749Y47250D02*
Y59550D01*
Y47250D02*
X44851D01*
Y59550D01*
X38749D02*
X44851D01*
X163950Y47646D02*
X170250D01*
X163950D02*
Y60245D01*
X170250D01*
Y47646D02*
Y60245D01*
X150549Y193150D02*
Y205450D01*
Y193150D02*
X156651D01*
Y205450D01*
X150549D02*
X156651D01*
X104420Y43120D02*
Y70680D01*
X131980Y43120D02*
Y70680D01*
X104420Y43120D02*
X131980D01*
X104420Y70680D02*
X131980D01*
M02*
