M48
;Layer_Color=9474304
;FILE_FORMAT=2:4
INCH,TZ
;TYPE=PLATED
T01F00S00C0.0118
T02F00S00C0.0276
T03F00S00C0.0354
T04F00S00C0.0394
T05F00S00C0.0413
T06F00S00C0.0433
T07F00S00C0.0492
T08F00S00C0.0787
;TYPE=NON_PLATED
T09F00S00C0.0433
T10F00S00C0.0512
T11F00S00C0.0728
%
T01
X3280Y1090
X4410Y2600
X4160Y4150
X3400Y3940
X5900Y4350
X8880Y4920
X9350Y4590
X8720Y3410
X8676Y2970
X9440Y2640
X9970Y3170
X11420Y3480
X11580Y4860
X11070Y4880
X11670Y5460
X12530Y4940
X12660Y3150
X13280Y3620
X15960Y4340
X16390Y3920
X18520Y3650
X19640Y3950
X19590Y3120
X21530Y2730
X21180Y5360
X20633Y6607
X19470Y6880
X17880
X17300Y6780
X14120Y6160
X12730Y6390
X12200Y6300
X12210Y6720
X11700Y6300
X11050Y6370
X12660Y5790
X13130Y8620
X11530Y8130
X8730Y8480
X8440Y6390
X5520Y6280
X7500Y10690
X6530Y11900
X10250Y11240
X15090Y11120
X15560Y10420
X15837Y9290
X14840Y9490
X20340Y8790
X20680Y12380
X13820Y19150
X11580
X7940Y18720
X4830Y9410
X15130Y21890
T02
X7220Y3579
Y5501
T03
X4252Y1360
X5236
X6220
X7204
X15452Y1780
X16436
X17420
X18404
X19389
X20373
X22487Y4686
Y5670
Y6654
X22460Y10226
Y11210
Y12194
X2060Y11684
Y10700
Y9716
X9316Y24550
X10300
X11284
X12269
X13253
X14237
X16661
X17646
X18630
T04
X9990Y664
Y2436
X12550
Y664
T05
X4210Y7230
Y8230
X3430Y14790
Y15774
X21360Y24560
X22344
T06
X1450Y2460
Y3460
Y4460
Y5460
X2450
Y4460
Y3460
Y2460
Y6460
X1450
T07
X21716Y17539
X19747
X16320
X14352
X10813
X8844
Y22461
X10813
X14352
X16320
X19747
X21716
T08
X1000Y1000
X22580Y1020
X22570Y15430
X1000Y16500
X7500Y24500
T09
X3622Y2147
T10
X2643Y14160
X22974Y23773
T11
X22503Y20000
X18960
X17107
X13564
X11600
X8057
M30
