G04*
G04 #@! TF.GenerationSoftware,Altium Limited,Altium Designer,24.1.2 (44)*
G04*
G04 Layer_Color=32896*
%FSLAX25Y25*%
%MOIN*%
G70*
G04*
G04 #@! TF.SameCoordinates,9647829F-9D65-4518-952E-74710912C15A*
G04*
G04*
G04 #@! TF.FilePolarity,Positive*
G04*
G01*
G75*
%ADD10C,0.00787*%
G36*
X112700Y15543D02*
X112698D01*
Y15550D01*
X112696D01*
Y15549D01*
X112695D01*
Y15548D01*
X112694Y15547D01*
Y15546D01*
X112692Y15543D01*
X112689D01*
X112692Y15547D01*
Y15548D01*
X112693Y15549D01*
Y15550D01*
X112694D01*
X112692Y15551D01*
X112691D01*
X112690Y15553D01*
Y15554D01*
Y15555D01*
X112691Y15556D01*
Y15557D01*
X112692D01*
X112694Y15558D01*
X112700D01*
Y15543D01*
D02*
G37*
G36*
X112686D02*
X112676D01*
Y15545D01*
X112684D01*
Y15550D01*
X112677D01*
Y15552D01*
X112684D01*
Y15556D01*
X112676D01*
Y15558D01*
X112686D01*
Y15543D01*
D02*
G37*
G36*
X110325D02*
X110315D01*
Y15545D01*
X110323D01*
Y15550D01*
X110316D01*
Y15552D01*
X110323D01*
Y15556D01*
X110315D01*
Y15558D01*
X110325D01*
Y15543D01*
D02*
G37*
G36*
X110314Y15556D02*
X110309D01*
Y15543D01*
X110307D01*
Y15556D01*
X110302D01*
Y15558D01*
X110314D01*
Y15556D01*
D02*
G37*
G36*
X111626Y18104D02*
X111714Y18094D01*
X111793Y18078D01*
X111862Y18065D01*
X111891Y18055D01*
X111917Y18048D01*
X111940Y18039D01*
X111960Y18032D01*
X111976Y18029D01*
X111986Y18022D01*
X111993Y18019D01*
X111996D01*
X112068Y17983D01*
X112134Y17943D01*
X112186Y17901D01*
X112232Y17862D01*
X112265Y17826D01*
X112291Y17793D01*
X112304Y17773D01*
X112311Y17770D01*
Y17766D01*
X112347Y17704D01*
X112373Y17642D01*
X112393Y17583D01*
X112406Y17527D01*
X112413Y17478D01*
X112416Y17442D01*
X112419Y17429D01*
Y17419D01*
Y17412D01*
Y17409D01*
X112416Y17347D01*
X112406Y17288D01*
X112393Y17232D01*
X112377Y17186D01*
X112360Y17146D01*
X112347Y17120D01*
X112337Y17101D01*
X112334Y17097D01*
Y17094D01*
X112298Y17045D01*
X112255Y16999D01*
X112209Y16960D01*
X112167Y16927D01*
X112127Y16897D01*
X112094Y16878D01*
X112081Y16871D01*
X112072Y16864D01*
X112068Y16861D01*
X112065D01*
X112035Y16848D01*
X112003Y16832D01*
X111931Y16805D01*
X111848Y16776D01*
X111770Y16753D01*
X111694Y16730D01*
X111665Y16723D01*
X111635Y16714D01*
X111612Y16710D01*
X111596Y16704D01*
X111583Y16700D01*
X111580D01*
X111517Y16684D01*
X111461Y16671D01*
X111409Y16658D01*
X111363Y16648D01*
X111320Y16635D01*
X111284Y16625D01*
X111251Y16618D01*
X111225Y16609D01*
X111199Y16602D01*
X111179Y16596D01*
X111163Y16592D01*
X111150Y16586D01*
X111137Y16582D01*
X111130Y16579D01*
X111074Y16556D01*
X111029Y16530D01*
X110989Y16507D01*
X110956Y16484D01*
X110933Y16464D01*
X110917Y16448D01*
X110907Y16435D01*
X110904Y16432D01*
X110881Y16399D01*
X110861Y16363D01*
X110848Y16327D01*
X110842Y16294D01*
X110835Y16267D01*
X110832Y16244D01*
Y16231D01*
Y16225D01*
X110835Y16182D01*
X110842Y16143D01*
X110855Y16107D01*
X110868Y16074D01*
X110881Y16048D01*
X110894Y16025D01*
X110901Y16012D01*
X110904Y16008D01*
X110933Y15972D01*
X110969Y15943D01*
X111005Y15916D01*
X111042Y15893D01*
X111074Y15877D01*
X111101Y15864D01*
X111117Y15857D01*
X111120Y15854D01*
X111124D01*
X111179Y15834D01*
X111235Y15821D01*
X111294Y15811D01*
X111343Y15805D01*
X111389Y15802D01*
X111425Y15798D01*
X111458D01*
X111537Y15802D01*
X111609Y15808D01*
X111675Y15821D01*
X111730Y15834D01*
X111780Y15848D01*
X111799Y15854D01*
X111816Y15861D01*
X111829Y15864D01*
X111839Y15867D01*
X111842Y15871D01*
X111845D01*
X111904Y15900D01*
X111957Y15933D01*
X111999Y15966D01*
X112035Y15999D01*
X112062Y16025D01*
X112081Y16048D01*
X112094Y16061D01*
X112098Y16067D01*
X112124Y16117D01*
X112147Y16169D01*
X112167Y16221D01*
X112180Y16271D01*
X112190Y16317D01*
X112196Y16350D01*
Y16363D01*
X112199Y16372D01*
Y16379D01*
Y16382D01*
X112514Y16356D01*
X112508Y16264D01*
X112491Y16176D01*
X112468Y16100D01*
X112442Y16031D01*
X112429Y16002D01*
X112419Y15976D01*
X112406Y15956D01*
X112396Y15936D01*
X112390Y15920D01*
X112383Y15910D01*
X112377Y15903D01*
Y15900D01*
X112324Y15831D01*
X112265Y15769D01*
X112206Y15716D01*
X112147Y15674D01*
X112094Y15641D01*
X112072Y15628D01*
X112055Y15618D01*
X112039Y15608D01*
X112026Y15602D01*
X112019Y15598D01*
X112016D01*
X111924Y15565D01*
X111829Y15543D01*
X111730Y15523D01*
X111642Y15513D01*
X111599Y15510D01*
X111563Y15507D01*
X111527Y15503D01*
X111497D01*
X111475Y15500D01*
X111442D01*
X111343Y15503D01*
X111251Y15516D01*
X111170Y15533D01*
X111101Y15549D01*
X111068Y15559D01*
X111042Y15569D01*
X111019Y15575D01*
X110996Y15582D01*
X110983Y15588D01*
X110969Y15595D01*
X110963Y15598D01*
X110960D01*
X110884Y15638D01*
X110815Y15684D01*
X110759Y15730D01*
X110714Y15772D01*
X110678Y15811D01*
X110648Y15844D01*
X110642Y15857D01*
X110635Y15867D01*
X110628Y15871D01*
Y15874D01*
X110589Y15939D01*
X110559Y16008D01*
X110540Y16071D01*
X110523Y16130D01*
X110517Y16179D01*
X110513Y16199D01*
Y16218D01*
X110510Y16231D01*
Y16241D01*
Y16248D01*
Y16251D01*
X110513Y16327D01*
X110527Y16392D01*
X110543Y16454D01*
X110563Y16507D01*
X110586Y16549D01*
X110602Y16582D01*
X110609Y16592D01*
X110615Y16602D01*
X110618Y16605D01*
Y16609D01*
X110661Y16664D01*
X110714Y16717D01*
X110766Y16759D01*
X110819Y16799D01*
X110868Y16828D01*
X110907Y16848D01*
X110924Y16858D01*
X110933Y16864D01*
X110940Y16868D01*
X110943D01*
X110973Y16881D01*
X111009Y16894D01*
X111051Y16907D01*
X111094Y16924D01*
X111186Y16950D01*
X111278Y16973D01*
X111324Y16986D01*
X111363Y16996D01*
X111402Y17006D01*
X111435Y17012D01*
X111461Y17019D01*
X111484Y17025D01*
X111497Y17028D01*
X111501D01*
X111573Y17045D01*
X111639Y17061D01*
X111698Y17078D01*
X111750Y17094D01*
X111796Y17110D01*
X111835Y17124D01*
X111872Y17140D01*
X111904Y17153D01*
X111927Y17163D01*
X111950Y17173D01*
X111967Y17183D01*
X111980Y17192D01*
X111989Y17196D01*
X111996Y17202D01*
X112003Y17206D01*
X112035Y17242D01*
X112058Y17278D01*
X112075Y17314D01*
X112085Y17350D01*
X112091Y17383D01*
X112098Y17406D01*
Y17422D01*
Y17429D01*
X112091Y17484D01*
X112075Y17537D01*
X112055Y17583D01*
X112029Y17622D01*
X112003Y17655D01*
X111983Y17678D01*
X111967Y17691D01*
X111960Y17698D01*
X111934Y17717D01*
X111901Y17734D01*
X111832Y17763D01*
X111760Y17783D01*
X111688Y17796D01*
X111622Y17803D01*
X111596Y17806D01*
X111570Y17809D01*
X111468D01*
X111419Y17803D01*
X111373Y17799D01*
X111330Y17789D01*
X111291Y17780D01*
X111255Y17770D01*
X111222Y17760D01*
X111193Y17750D01*
X111170Y17737D01*
X111147Y17727D01*
X111127Y17717D01*
X111110Y17707D01*
X111101Y17698D01*
X111091Y17694D01*
X111084Y17688D01*
X111032Y17639D01*
X110992Y17580D01*
X110963Y17520D01*
X110940Y17465D01*
X110924Y17412D01*
X110917Y17389D01*
X110914Y17370D01*
X110910Y17353D01*
X110907Y17340D01*
Y17334D01*
Y17330D01*
X110586Y17353D01*
X110592Y17432D01*
X110609Y17507D01*
X110628Y17573D01*
X110651Y17632D01*
X110674Y17681D01*
X110684Y17701D01*
X110691Y17717D01*
X110701Y17730D01*
X110704Y17740D01*
X110710Y17743D01*
Y17747D01*
X110756Y17809D01*
X110812Y17865D01*
X110864Y17911D01*
X110920Y17947D01*
X110966Y17976D01*
X111005Y17999D01*
X111022Y18006D01*
X111032Y18012D01*
X111038Y18016D01*
X111042D01*
X111124Y18045D01*
X111209Y18068D01*
X111291Y18085D01*
X111366Y18098D01*
X111402Y18101D01*
X111435Y18104D01*
X111461D01*
X111488Y18108D01*
X111534D01*
X111626Y18104D01*
D02*
G37*
G36*
X179144Y15676D02*
X179142D01*
Y15682D01*
X179135D01*
Y15676D01*
X179133D01*
Y15690D01*
X179135D01*
Y15684D01*
X179142D01*
Y15690D01*
X179144D01*
Y15676D01*
D02*
G37*
G36*
X179123Y15685D02*
X179126D01*
X179128Y15684D01*
X179129D01*
X179131Y15682D01*
Y15680D01*
Y15679D01*
X179130Y15678D01*
Y15677D01*
X179129D01*
X179128Y15676D01*
X179127D01*
X179126Y15676D01*
X179121D01*
Y15690D01*
X179123D01*
Y15685D01*
D02*
G37*
G36*
X182556Y15727D02*
X182612Y15723D01*
X182713Y15707D01*
X182759Y15694D01*
X182802Y15681D01*
X182841Y15667D01*
X182877Y15651D01*
X182910Y15638D01*
X182936Y15625D01*
X182963Y15612D01*
X182982Y15599D01*
X182999Y15589D01*
X183009Y15582D01*
X183015Y15576D01*
X183018D01*
X183087Y15513D01*
X183146Y15441D01*
X183195Y15369D01*
X183235Y15300D01*
X183261Y15238D01*
X183274Y15208D01*
X183281Y15185D01*
X183291Y15166D01*
X183294Y15153D01*
X183297Y15143D01*
Y15139D01*
X182976Y15097D01*
X182949Y15166D01*
X182917Y15225D01*
X182884Y15277D01*
X182854Y15317D01*
X182828Y15346D01*
X182805Y15369D01*
X182792Y15382D01*
X182785Y15385D01*
X182740Y15415D01*
X182690Y15438D01*
X182641Y15451D01*
X182598Y15464D01*
X182556Y15471D01*
X182526Y15474D01*
X182497D01*
X182454Y15471D01*
X182415Y15467D01*
X182339Y15448D01*
X182274Y15425D01*
X182218Y15395D01*
X182175Y15366D01*
X182139Y15339D01*
X182130Y15330D01*
X182120Y15323D01*
X182116Y15320D01*
X182113Y15317D01*
X182087Y15284D01*
X182064Y15251D01*
X182025Y15179D01*
X181995Y15103D01*
X181972Y15028D01*
X181959Y14962D01*
X181956Y14933D01*
X181952Y14907D01*
X181949Y14887D01*
X181946Y14871D01*
Y14861D01*
Y14857D01*
X183307D01*
X183310Y14821D01*
Y14795D01*
Y14782D01*
Y14775D01*
X183307Y14693D01*
X183300Y14615D01*
X183287Y14543D01*
X183274Y14474D01*
X183258Y14411D01*
X183238Y14356D01*
X183215Y14303D01*
X183195Y14254D01*
X183173Y14211D01*
X183150Y14175D01*
X183130Y14146D01*
X183114Y14119D01*
X183100Y14100D01*
X183087Y14087D01*
X183081Y14077D01*
X183077Y14073D01*
X183031Y14031D01*
X182985Y13991D01*
X182936Y13959D01*
X182884Y13929D01*
X182835Y13906D01*
X182785Y13886D01*
X182736Y13867D01*
X182690Y13854D01*
X182648Y13844D01*
X182605Y13837D01*
X182569Y13831D01*
X182539Y13827D01*
X182513Y13824D01*
X182477D01*
X182408Y13827D01*
X182343Y13834D01*
X182280Y13847D01*
X182221Y13863D01*
X182169Y13883D01*
X182116Y13906D01*
X182070Y13929D01*
X182028Y13952D01*
X181992Y13975D01*
X181959Y13998D01*
X181929Y14021D01*
X181906Y14041D01*
X181887Y14057D01*
X181874Y14070D01*
X181867Y14077D01*
X181864Y14080D01*
X181821Y14129D01*
X181785Y14182D01*
X181755Y14241D01*
X181726Y14300D01*
X181703Y14359D01*
X181687Y14418D01*
X181670Y14477D01*
X181657Y14533D01*
X181647Y14585D01*
X181641Y14634D01*
X181634Y14680D01*
X181631Y14720D01*
Y14749D01*
X181628Y14775D01*
Y14788D01*
Y14795D01*
X181631Y14877D01*
X181638Y14953D01*
X181651Y15021D01*
X181664Y15090D01*
X181680Y15149D01*
X181700Y15208D01*
X181723Y15258D01*
X181746Y15307D01*
X181765Y15346D01*
X181788Y15382D01*
X181808Y15412D01*
X181824Y15438D01*
X181838Y15458D01*
X181851Y15471D01*
X181857Y15481D01*
X181860Y15484D01*
X181906Y15527D01*
X181956Y15566D01*
X182008Y15599D01*
X182061Y15625D01*
X182113Y15651D01*
X182166Y15671D01*
X182218Y15687D01*
X182267Y15700D01*
X182313Y15710D01*
X182359Y15717D01*
X182398Y15723D01*
X182431Y15727D01*
X182457D01*
X182480Y15730D01*
X182497D01*
X182556Y15727D01*
D02*
G37*
G36*
X185173Y14569D02*
Y14493D01*
X185170Y14431D01*
X185167Y14382D01*
X185163Y14339D01*
X185160Y14310D01*
X185157Y14287D01*
X185154Y14274D01*
Y14270D01*
X185141Y14221D01*
X185127Y14178D01*
X185111Y14139D01*
X185098Y14106D01*
X185082Y14077D01*
X185068Y14057D01*
X185062Y14044D01*
X185058Y14041D01*
X185029Y14008D01*
X184996Y13975D01*
X184963Y13949D01*
X184931Y13929D01*
X184898Y13909D01*
X184875Y13896D01*
X184858Y13890D01*
X184852Y13886D01*
X184799Y13867D01*
X184747Y13850D01*
X184694Y13841D01*
X184649Y13831D01*
X184606Y13827D01*
X184576Y13824D01*
X184547D01*
X184478Y13827D01*
X184412Y13837D01*
X184353Y13850D01*
X184298Y13870D01*
X184245Y13893D01*
X184199Y13919D01*
X184157Y13946D01*
X184117Y13975D01*
X184081Y14005D01*
X184052Y14031D01*
X184029Y14057D01*
X184006Y14080D01*
X183989Y14096D01*
X183979Y14113D01*
X183973Y14123D01*
X183970Y14126D01*
Y13863D01*
X183691D01*
Y15690D01*
X183999D01*
Y14697D01*
X184002Y14634D01*
X184006Y14575D01*
X184012Y14523D01*
X184022Y14474D01*
X184032Y14431D01*
X184045Y14392D01*
X184058Y14359D01*
X184071Y14326D01*
X184084Y14300D01*
X184094Y14280D01*
X184107Y14260D01*
X184117Y14247D01*
X184127Y14234D01*
X184134Y14228D01*
X184140Y14221D01*
X184196Y14178D01*
X184255Y14146D01*
X184314Y14123D01*
X184366Y14109D01*
X184412Y14100D01*
X184452Y14096D01*
X184465Y14093D01*
X184485D01*
X184527Y14096D01*
X184570Y14103D01*
X184606Y14113D01*
X184635Y14123D01*
X184662Y14132D01*
X184681Y14142D01*
X184694Y14149D01*
X184698Y14152D01*
X184731Y14175D01*
X184757Y14198D01*
X184780Y14224D01*
X184796Y14247D01*
X184809Y14270D01*
X184819Y14287D01*
X184826Y14300D01*
Y14303D01*
X184839Y14342D01*
X184849Y14385D01*
X184855Y14431D01*
X184862Y14477D01*
Y14516D01*
X184865Y14552D01*
Y14565D01*
Y14572D01*
Y14579D01*
Y14582D01*
Y15690D01*
X185173D01*
Y14569D01*
D02*
G37*
G36*
X189673Y14739D02*
X189677Y14667D01*
X189680Y14598D01*
X189690Y14539D01*
X189700Y14483D01*
X189706Y14441D01*
X189716Y14408D01*
X189719Y14395D01*
Y14385D01*
X189723Y14382D01*
Y14378D01*
X189739Y14339D01*
X189755Y14306D01*
X189775Y14277D01*
X189795Y14254D01*
X189811Y14234D01*
X189824Y14218D01*
X189834Y14211D01*
X189838Y14208D01*
X189870Y14188D01*
X189900Y14172D01*
X189933Y14162D01*
X189959Y14152D01*
X189985Y14149D01*
X190005Y14146D01*
X190021D01*
X190064Y14149D01*
X190106Y14155D01*
X190146Y14165D01*
X190179Y14178D01*
X190208Y14191D01*
X190231Y14201D01*
X190244Y14208D01*
X190251Y14211D01*
X190359Y13926D01*
X190297Y13893D01*
X190241Y13867D01*
X190185Y13850D01*
X190136Y13837D01*
X190097Y13831D01*
X190064Y13824D01*
X190038D01*
X189998Y13827D01*
X189962Y13834D01*
X189926Y13844D01*
X189897Y13854D01*
X189874Y13867D01*
X189854Y13877D01*
X189841Y13883D01*
X189838Y13886D01*
X189805Y13916D01*
X189769Y13952D01*
X189736Y13995D01*
X189706Y14041D01*
X189683Y14080D01*
X189660Y14113D01*
X189654Y14126D01*
X189647Y14136D01*
X189644Y14142D01*
Y13863D01*
X189365D01*
Y15690D01*
X189673D01*
Y14739D01*
D02*
G37*
G36*
X188237Y15727D02*
X188319Y15713D01*
X188394Y15694D01*
X188457Y15674D01*
X188512Y15654D01*
X188535Y15645D01*
X188552Y15635D01*
X188568Y15628D01*
X188578Y15622D01*
X188584Y15618D01*
X188588D01*
X188660Y15572D01*
X188722Y15523D01*
X188775Y15471D01*
X188817Y15421D01*
X188854Y15376D01*
X188876Y15339D01*
X188886Y15326D01*
X188893Y15317D01*
X188896Y15310D01*
Y15307D01*
X188916Y15267D01*
X188932Y15225D01*
X188958Y15133D01*
X188978Y15041D01*
X188991Y14953D01*
X188995Y14913D01*
X188998Y14874D01*
X189001Y14841D01*
X189004Y14811D01*
Y14785D01*
Y14769D01*
Y14756D01*
Y14752D01*
X189001Y14674D01*
X188995Y14598D01*
X188981Y14529D01*
X188968Y14464D01*
X188949Y14401D01*
X188929Y14346D01*
X188906Y14297D01*
X188886Y14251D01*
X188863Y14211D01*
X188840Y14175D01*
X188821Y14142D01*
X188801Y14119D01*
X188788Y14100D01*
X188775Y14083D01*
X188768Y14077D01*
X188765Y14073D01*
X188719Y14031D01*
X188670Y13991D01*
X188621Y13959D01*
X188568Y13929D01*
X188516Y13906D01*
X188463Y13886D01*
X188414Y13867D01*
X188368Y13854D01*
X188322Y13844D01*
X188279Y13837D01*
X188243Y13831D01*
X188211Y13827D01*
X188184Y13824D01*
X188148D01*
X188086Y13827D01*
X188027Y13834D01*
X187971Y13844D01*
X187915Y13857D01*
X187866Y13870D01*
X187817Y13890D01*
X187774Y13906D01*
X187735Y13926D01*
X187699Y13946D01*
X187666Y13962D01*
X187640Y13982D01*
X187617Y13995D01*
X187597Y14008D01*
X187584Y14018D01*
X187577Y14024D01*
X187574Y14028D01*
X187525Y14077D01*
X187482Y14129D01*
X187446Y14188D01*
X187414Y14247D01*
X187387Y14310D01*
X187364Y14372D01*
X187345Y14434D01*
X187331Y14497D01*
X187318Y14552D01*
X187312Y14605D01*
X187305Y14654D01*
X187299Y14697D01*
Y14729D01*
X187295Y14756D01*
Y14772D01*
Y14779D01*
X187299Y14864D01*
X187305Y14943D01*
X187318Y15015D01*
X187331Y15084D01*
X187351Y15149D01*
X187371Y15205D01*
X187391Y15258D01*
X187414Y15307D01*
X187436Y15349D01*
X187456Y15385D01*
X187476Y15415D01*
X187496Y15441D01*
X187509Y15461D01*
X187522Y15474D01*
X187528Y15484D01*
X187532Y15487D01*
X187577Y15530D01*
X187627Y15566D01*
X187676Y15599D01*
X187728Y15628D01*
X187781Y15651D01*
X187830Y15671D01*
X187879Y15687D01*
X187928Y15700D01*
X187974Y15710D01*
X188017Y15717D01*
X188053Y15723D01*
X188086Y15727D01*
X188112D01*
X188132Y15730D01*
X188148D01*
X188237Y15727D01*
D02*
G37*
G36*
X186384D02*
X186456Y15720D01*
X186521Y15707D01*
X186577Y15694D01*
X186623Y15681D01*
X186659Y15667D01*
X186672Y15664D01*
X186682Y15661D01*
X186685Y15658D01*
X186689D01*
X186748Y15628D01*
X186800Y15592D01*
X186846Y15559D01*
X186885Y15523D01*
X186912Y15494D01*
X186935Y15471D01*
X186948Y15454D01*
X186951Y15448D01*
X186981Y15395D01*
X187004Y15343D01*
X187020Y15294D01*
X187033Y15248D01*
X187040Y15208D01*
X187043Y15179D01*
Y15159D01*
Y15156D01*
Y15153D01*
X187040Y15097D01*
X187030Y15044D01*
X187020Y15002D01*
X187007Y14962D01*
X186990Y14933D01*
X186981Y14910D01*
X186971Y14893D01*
X186968Y14890D01*
X186938Y14851D01*
X186902Y14818D01*
X186869Y14792D01*
X186836Y14769D01*
X186807Y14749D01*
X186784Y14736D01*
X186767Y14729D01*
X186761Y14726D01*
X186735Y14716D01*
X186705Y14703D01*
X186636Y14680D01*
X186561Y14657D01*
X186485Y14634D01*
X186416Y14615D01*
X186384Y14608D01*
X186357Y14598D01*
X186338Y14592D01*
X186318Y14588D01*
X186308Y14585D01*
X186305D01*
X186266Y14575D01*
X186230Y14562D01*
X186197Y14556D01*
X186167Y14546D01*
X186141Y14539D01*
X186118Y14533D01*
X186082Y14523D01*
X186056Y14516D01*
X186039Y14510D01*
X186033Y14506D01*
X186029D01*
X186003Y14493D01*
X185977Y14480D01*
X185957Y14467D01*
X185941Y14454D01*
X185928Y14441D01*
X185918Y14431D01*
X185915Y14428D01*
X185911Y14424D01*
X185898Y14405D01*
X185892Y14385D01*
X185879Y14352D01*
Y14336D01*
X185875Y14326D01*
Y14319D01*
Y14316D01*
X185879Y14280D01*
X185888Y14251D01*
X185905Y14221D01*
X185921Y14198D01*
X185934Y14178D01*
X185951Y14165D01*
X185960Y14155D01*
X185964Y14152D01*
X186003Y14129D01*
X186049Y14109D01*
X186101Y14096D01*
X186151Y14090D01*
X186197Y14083D01*
X186233Y14080D01*
X186269D01*
X186334Y14083D01*
X186390Y14093D01*
X186439Y14106D01*
X186479Y14119D01*
X186512Y14136D01*
X186531Y14149D01*
X186548Y14159D01*
X186551Y14162D01*
X186584Y14195D01*
X186610Y14228D01*
X186633Y14264D01*
X186649Y14300D01*
X186659Y14329D01*
X186666Y14356D01*
X186672Y14372D01*
Y14378D01*
X186974Y14336D01*
X186961Y14274D01*
X186944Y14218D01*
X186928Y14172D01*
X186908Y14132D01*
X186892Y14100D01*
X186879Y14077D01*
X186869Y14060D01*
X186866Y14057D01*
X186833Y14018D01*
X186794Y13985D01*
X186754Y13955D01*
X186715Y13932D01*
X186679Y13913D01*
X186649Y13896D01*
X186630Y13890D01*
X186626Y13886D01*
X186623D01*
X186561Y13867D01*
X186498Y13850D01*
X186433Y13841D01*
X186377Y13831D01*
X186325Y13827D01*
X186305D01*
X186285Y13824D01*
X186197D01*
X186147Y13831D01*
X186101Y13837D01*
X186062Y13844D01*
X186026Y13850D01*
X186003Y13857D01*
X185987Y13860D01*
X185980Y13863D01*
X185938Y13877D01*
X185898Y13893D01*
X185862Y13906D01*
X185836Y13923D01*
X185813Y13932D01*
X185796Y13942D01*
X185787Y13949D01*
X185783Y13952D01*
X185751Y13978D01*
X185721Y14008D01*
X185695Y14037D01*
X185672Y14064D01*
X185655Y14090D01*
X185642Y14109D01*
X185636Y14123D01*
X185633Y14126D01*
X185613Y14165D01*
X185600Y14205D01*
X185590Y14244D01*
X185583Y14277D01*
X185580Y14310D01*
X185577Y14333D01*
Y14346D01*
Y14352D01*
X185580Y14401D01*
X185587Y14447D01*
X185596Y14490D01*
X185609Y14526D01*
X185623Y14556D01*
X185633Y14579D01*
X185639Y14592D01*
X185642Y14598D01*
X185672Y14638D01*
X185701Y14670D01*
X185738Y14700D01*
X185767Y14723D01*
X185796Y14743D01*
X185819Y14756D01*
X185836Y14765D01*
X185842Y14769D01*
X185869Y14782D01*
X185901Y14792D01*
X185934Y14805D01*
X185970Y14818D01*
X186049Y14844D01*
X186128Y14867D01*
X186200Y14887D01*
X186233Y14897D01*
X186259Y14903D01*
X186282Y14910D01*
X186298Y14916D01*
X186311Y14920D01*
X186315D01*
X186361Y14930D01*
X186400Y14943D01*
X186439Y14953D01*
X186472Y14962D01*
X186502Y14972D01*
X186528Y14979D01*
X186548Y14985D01*
X186567Y14995D01*
X186600Y15005D01*
X186620Y15015D01*
X186630Y15018D01*
X186633Y15021D01*
X186662Y15048D01*
X186685Y15074D01*
X186702Y15100D01*
X186715Y15126D01*
X186722Y15149D01*
X186725Y15169D01*
Y15182D01*
Y15185D01*
X186722Y15228D01*
X186708Y15267D01*
X186692Y15300D01*
X186672Y15330D01*
X186653Y15356D01*
X186636Y15372D01*
X186623Y15385D01*
X186620Y15389D01*
X186577Y15418D01*
X186525Y15438D01*
X186472Y15454D01*
X186423Y15464D01*
X186374Y15471D01*
X186338Y15474D01*
X186302D01*
X186226Y15471D01*
X186161Y15458D01*
X186105Y15445D01*
X186056Y15425D01*
X186020Y15408D01*
X185993Y15392D01*
X185977Y15382D01*
X185970Y15379D01*
X185931Y15339D01*
X185898Y15294D01*
X185875Y15248D01*
X185855Y15202D01*
X185842Y15159D01*
X185836Y15126D01*
X185833Y15113D01*
X185829Y15103D01*
Y15100D01*
Y15097D01*
X185524Y15146D01*
X185534Y15199D01*
X185547Y15248D01*
X185564Y15294D01*
X185583Y15336D01*
X185600Y15376D01*
X185619Y15412D01*
X185642Y15445D01*
X185662Y15474D01*
X185682Y15500D01*
X185698Y15523D01*
X185714Y15543D01*
X185731Y15559D01*
X185744Y15569D01*
X185754Y15579D01*
X185757Y15582D01*
X185760Y15586D01*
X185796Y15612D01*
X185839Y15631D01*
X185924Y15667D01*
X186016Y15694D01*
X186101Y15710D01*
X186144Y15717D01*
X186184Y15723D01*
X186216Y15727D01*
X186246D01*
X186272Y15730D01*
X186305D01*
X186384Y15727D01*
D02*
G37*
G36*
X180483Y15730D02*
X180575Y15717D01*
X180657Y15700D01*
X180726Y15684D01*
X180758Y15674D01*
X180785Y15664D01*
X180808Y15658D01*
X180831Y15651D01*
X180844Y15645D01*
X180857Y15638D01*
X180863Y15635D01*
X180867D01*
X180942Y15595D01*
X181011Y15549D01*
X181067Y15504D01*
X181113Y15461D01*
X181149Y15421D01*
X181178Y15389D01*
X181185Y15376D01*
X181191Y15366D01*
X181198Y15362D01*
Y15359D01*
X181237Y15294D01*
X181267Y15225D01*
X181287Y15162D01*
X181303Y15103D01*
X181309Y15054D01*
X181313Y15034D01*
Y15015D01*
X181316Y15002D01*
Y14992D01*
Y14985D01*
Y14982D01*
X181313Y14907D01*
X181300Y14841D01*
X181283Y14779D01*
X181264Y14726D01*
X181241Y14683D01*
X181224Y14651D01*
X181218Y14641D01*
X181211Y14631D01*
X181208Y14628D01*
Y14625D01*
X181165Y14569D01*
X181113Y14516D01*
X181060Y14474D01*
X181008Y14434D01*
X180958Y14405D01*
X180919Y14385D01*
X180903Y14375D01*
X180893Y14369D01*
X180886Y14365D01*
X180883D01*
X180853Y14352D01*
X180817Y14339D01*
X180775Y14326D01*
X180732Y14310D01*
X180640Y14283D01*
X180549Y14260D01*
X180503Y14247D01*
X180463Y14237D01*
X180424Y14228D01*
X180391Y14221D01*
X180365Y14214D01*
X180342Y14208D01*
X180329Y14205D01*
X180325D01*
X180253Y14188D01*
X180188Y14172D01*
X180129Y14155D01*
X180076Y14139D01*
X180030Y14123D01*
X179991Y14109D01*
X179955Y14093D01*
X179922Y14080D01*
X179899Y14070D01*
X179876Y14060D01*
X179860Y14051D01*
X179847Y14041D01*
X179837Y14037D01*
X179830Y14031D01*
X179824Y14028D01*
X179791Y13991D01*
X179768Y13955D01*
X179752Y13919D01*
X179742Y13883D01*
X179735Y13850D01*
X179728Y13827D01*
Y13811D01*
Y13804D01*
X179735Y13749D01*
X179752Y13696D01*
X179771Y13650D01*
X179797Y13611D01*
X179824Y13578D01*
X179843Y13555D01*
X179860Y13542D01*
X179866Y13535D01*
X179893Y13516D01*
X179925Y13499D01*
X179994Y13470D01*
X180066Y13450D01*
X180139Y13437D01*
X180204Y13431D01*
X180230Y13427D01*
X180257Y13424D01*
X180358D01*
X180408Y13431D01*
X180453Y13434D01*
X180496Y13444D01*
X180535Y13453D01*
X180571Y13463D01*
X180604Y13473D01*
X180634Y13483D01*
X180657Y13496D01*
X180680Y13506D01*
X180699Y13516D01*
X180716Y13526D01*
X180726Y13535D01*
X180736Y13539D01*
X180742Y13545D01*
X180795Y13595D01*
X180834Y13654D01*
X180863Y13713D01*
X180886Y13768D01*
X180903Y13821D01*
X180909Y13844D01*
X180913Y13863D01*
X180916Y13880D01*
X180919Y13893D01*
Y13900D01*
Y13903D01*
X181241Y13880D01*
X181234Y13801D01*
X181218Y13726D01*
X181198Y13660D01*
X181175Y13601D01*
X181152Y13552D01*
X181142Y13532D01*
X181136Y13516D01*
X181126Y13503D01*
X181123Y13493D01*
X181116Y13490D01*
Y13486D01*
X181070Y13424D01*
X181014Y13368D01*
X180962Y13322D01*
X180906Y13286D01*
X180860Y13257D01*
X180821Y13234D01*
X180804Y13227D01*
X180795Y13221D01*
X180788Y13217D01*
X180785D01*
X180703Y13188D01*
X180617Y13165D01*
X180535Y13149D01*
X180460Y13135D01*
X180424Y13132D01*
X180391Y13129D01*
X180365D01*
X180339Y13126D01*
X180293D01*
X180201Y13129D01*
X180112Y13139D01*
X180034Y13155D01*
X179965Y13168D01*
X179935Y13178D01*
X179909Y13185D01*
X179886Y13194D01*
X179866Y13201D01*
X179850Y13204D01*
X179840Y13211D01*
X179833Y13214D01*
X179830D01*
X179758Y13250D01*
X179692Y13289D01*
X179640Y13332D01*
X179594Y13372D01*
X179561Y13408D01*
X179535Y13440D01*
X179522Y13460D01*
X179515Y13463D01*
Y13467D01*
X179479Y13529D01*
X179453Y13591D01*
X179433Y13650D01*
X179420Y13706D01*
X179414Y13755D01*
X179410Y13791D01*
X179407Y13804D01*
Y13814D01*
Y13821D01*
Y13824D01*
X179410Y13886D01*
X179420Y13946D01*
X179433Y14001D01*
X179450Y14047D01*
X179466Y14087D01*
X179479Y14113D01*
X179489Y14132D01*
X179492Y14136D01*
Y14139D01*
X179528Y14188D01*
X179571Y14234D01*
X179617Y14274D01*
X179660Y14306D01*
X179699Y14336D01*
X179732Y14356D01*
X179745Y14362D01*
X179755Y14369D01*
X179758Y14372D01*
X179761D01*
X179791Y14385D01*
X179824Y14401D01*
X179896Y14428D01*
X179978Y14457D01*
X180057Y14480D01*
X180132Y14503D01*
X180161Y14510D01*
X180191Y14520D01*
X180214Y14523D01*
X180230Y14529D01*
X180244Y14533D01*
X180247D01*
X180309Y14549D01*
X180365Y14562D01*
X180417Y14575D01*
X180463Y14585D01*
X180506Y14598D01*
X180542Y14608D01*
X180575Y14615D01*
X180601Y14625D01*
X180627Y14631D01*
X180647Y14638D01*
X180663Y14641D01*
X180676Y14647D01*
X180690Y14651D01*
X180696Y14654D01*
X180752Y14677D01*
X180798Y14703D01*
X180837Y14726D01*
X180870Y14749D01*
X180893Y14769D01*
X180909Y14785D01*
X180919Y14798D01*
X180922Y14802D01*
X180945Y14834D01*
X180965Y14871D01*
X180978Y14907D01*
X180985Y14939D01*
X180991Y14966D01*
X180995Y14989D01*
Y15002D01*
Y15008D01*
X180991Y15051D01*
X180985Y15090D01*
X180972Y15126D01*
X180958Y15159D01*
X180945Y15185D01*
X180932Y15208D01*
X180926Y15221D01*
X180922Y15225D01*
X180893Y15261D01*
X180857Y15290D01*
X180821Y15317D01*
X180785Y15339D01*
X180752Y15356D01*
X180726Y15369D01*
X180709Y15376D01*
X180706Y15379D01*
X180703D01*
X180647Y15399D01*
X180591Y15412D01*
X180532Y15421D01*
X180483Y15428D01*
X180437Y15431D01*
X180401Y15435D01*
X180368D01*
X180289Y15431D01*
X180217Y15425D01*
X180152Y15412D01*
X180096Y15399D01*
X180047Y15385D01*
X180027Y15379D01*
X180011Y15372D01*
X179998Y15369D01*
X179988Y15366D01*
X179984Y15362D01*
X179981D01*
X179922Y15333D01*
X179870Y15300D01*
X179827Y15267D01*
X179791Y15235D01*
X179765Y15208D01*
X179745Y15185D01*
X179732Y15172D01*
X179728Y15166D01*
X179702Y15116D01*
X179679Y15064D01*
X179660Y15011D01*
X179647Y14962D01*
X179637Y14916D01*
X179630Y14884D01*
Y14871D01*
X179627Y14861D01*
Y14854D01*
Y14851D01*
X179312Y14877D01*
X179318Y14969D01*
X179335Y15057D01*
X179358Y15133D01*
X179384Y15202D01*
X179397Y15231D01*
X179407Y15258D01*
X179420Y15277D01*
X179430Y15297D01*
X179437Y15313D01*
X179443Y15323D01*
X179450Y15330D01*
Y15333D01*
X179502Y15402D01*
X179561Y15464D01*
X179620Y15517D01*
X179679Y15559D01*
X179732Y15592D01*
X179755Y15605D01*
X179771Y15615D01*
X179788Y15625D01*
X179801Y15631D01*
X179807Y15635D01*
X179811D01*
X179902Y15667D01*
X179998Y15690D01*
X180096Y15710D01*
X180184Y15720D01*
X180227Y15723D01*
X180263Y15727D01*
X180299Y15730D01*
X180329D01*
X180352Y15733D01*
X180385D01*
X180483Y15730D01*
D02*
G37*
G36*
X223899Y73375D02*
X223925Y73320D01*
X223942Y73264D01*
X223955Y73215D01*
X223961Y73175D01*
X223968Y73142D01*
Y73116D01*
X223965Y73077D01*
X223958Y73041D01*
X223948Y73005D01*
X223938Y72975D01*
X223925Y72952D01*
X223915Y72932D01*
X223909Y72919D01*
X223905Y72916D01*
X223876Y72883D01*
X223840Y72847D01*
X223797Y72814D01*
X223751Y72785D01*
X223712Y72762D01*
X223679Y72739D01*
X223666Y72732D01*
X223656Y72726D01*
X223650Y72723D01*
X223928D01*
Y72444D01*
X222101D01*
Y72752D01*
X223053D01*
X223125Y72755D01*
X223194Y72759D01*
X223253Y72768D01*
X223309Y72778D01*
X223351Y72785D01*
X223384Y72795D01*
X223397Y72798D01*
X223407D01*
X223410Y72801D01*
X223413D01*
X223453Y72818D01*
X223486Y72834D01*
X223515Y72854D01*
X223538Y72874D01*
X223558Y72890D01*
X223574Y72903D01*
X223581Y72913D01*
X223584Y72916D01*
X223604Y72949D01*
X223620Y72978D01*
X223630Y73011D01*
X223640Y73037D01*
X223643Y73064D01*
X223646Y73083D01*
Y73100D01*
X223643Y73142D01*
X223637Y73185D01*
X223627Y73224D01*
X223614Y73257D01*
X223601Y73287D01*
X223591Y73310D01*
X223584Y73323D01*
X223581Y73329D01*
X223866Y73438D01*
X223899Y73375D01*
D02*
G37*
G36*
X223118Y72080D02*
X223194Y72073D01*
X223263Y72060D01*
X223328Y72047D01*
X223391Y72027D01*
X223446Y72008D01*
X223496Y71985D01*
X223541Y71965D01*
X223581Y71942D01*
X223617Y71919D01*
X223650Y71899D01*
X223673Y71880D01*
X223692Y71867D01*
X223709Y71853D01*
X223715Y71847D01*
X223719Y71844D01*
X223761Y71798D01*
X223801Y71748D01*
X223833Y71699D01*
X223863Y71647D01*
X223886Y71594D01*
X223905Y71542D01*
X223925Y71493D01*
X223938Y71447D01*
X223948Y71401D01*
X223955Y71358D01*
X223961Y71322D01*
X223965Y71289D01*
X223968Y71263D01*
Y71227D01*
X223965Y71165D01*
X223958Y71106D01*
X223948Y71050D01*
X223935Y70994D01*
X223922Y70945D01*
X223902Y70896D01*
X223886Y70853D01*
X223866Y70814D01*
X223847Y70778D01*
X223830Y70745D01*
X223810Y70718D01*
X223797Y70696D01*
X223784Y70676D01*
X223774Y70663D01*
X223768Y70656D01*
X223764Y70653D01*
X223715Y70604D01*
X223663Y70561D01*
X223604Y70525D01*
X223545Y70492D01*
X223482Y70466D01*
X223420Y70443D01*
X223358Y70423D01*
X223295Y70410D01*
X223240Y70397D01*
X223187Y70390D01*
X223138Y70384D01*
X223095Y70377D01*
X223063D01*
X223036Y70374D01*
X223020D01*
X223013D01*
X222928Y70377D01*
X222849Y70384D01*
X222777Y70397D01*
X222708Y70410D01*
X222643Y70430D01*
X222587Y70450D01*
X222534Y70469D01*
X222485Y70492D01*
X222443Y70515D01*
X222407Y70535D01*
X222377Y70555D01*
X222351Y70574D01*
X222331Y70587D01*
X222318Y70600D01*
X222308Y70607D01*
X222305Y70610D01*
X222262Y70656D01*
X222226Y70705D01*
X222193Y70755D01*
X222164Y70807D01*
X222141Y70860D01*
X222121Y70909D01*
X222105Y70958D01*
X222092Y71007D01*
X222082Y71053D01*
X222075Y71096D01*
X222069Y71132D01*
X222065Y71165D01*
Y71191D01*
X222062Y71210D01*
Y71227D01*
X222065Y71315D01*
X222079Y71398D01*
X222098Y71473D01*
X222118Y71535D01*
X222138Y71591D01*
X222147Y71614D01*
X222157Y71630D01*
X222164Y71647D01*
X222170Y71657D01*
X222174Y71663D01*
Y71666D01*
X222220Y71739D01*
X222269Y71801D01*
X222321Y71853D01*
X222371Y71896D01*
X222416Y71932D01*
X222452Y71955D01*
X222466Y71965D01*
X222475Y71971D01*
X222482Y71975D01*
X222485D01*
X222525Y71994D01*
X222567Y72011D01*
X222659Y72037D01*
X222751Y72057D01*
X222839Y72070D01*
X222879Y72073D01*
X222918Y72076D01*
X222951Y72080D01*
X222981Y72083D01*
X223007D01*
X223023D01*
X223036D01*
X223040D01*
X223118Y72080D01*
D02*
G37*
G36*
X222695Y70118D02*
X222748Y70108D01*
X222790Y70099D01*
X222830Y70086D01*
X222859Y70069D01*
X222882Y70059D01*
X222899Y70049D01*
X222902Y70046D01*
X222941Y70017D01*
X222974Y69981D01*
X223000Y69948D01*
X223023Y69915D01*
X223043Y69885D01*
X223056Y69862D01*
X223063Y69846D01*
X223066Y69840D01*
X223076Y69813D01*
X223089Y69784D01*
X223112Y69715D01*
X223135Y69639D01*
X223158Y69564D01*
X223177Y69495D01*
X223184Y69462D01*
X223194Y69436D01*
X223200Y69416D01*
X223204Y69397D01*
X223207Y69387D01*
Y69384D01*
X223217Y69344D01*
X223230Y69308D01*
X223236Y69275D01*
X223246Y69246D01*
X223253Y69220D01*
X223259Y69197D01*
X223269Y69160D01*
X223276Y69134D01*
X223282Y69118D01*
X223286Y69111D01*
Y69108D01*
X223299Y69082D01*
X223312Y69056D01*
X223325Y69036D01*
X223338Y69020D01*
X223351Y69006D01*
X223361Y68997D01*
X223364Y68993D01*
X223368Y68990D01*
X223387Y68977D01*
X223407Y68970D01*
X223440Y68957D01*
X223456D01*
X223466Y68954D01*
X223473D01*
X223476D01*
X223512Y68957D01*
X223541Y68967D01*
X223571Y68983D01*
X223594Y69000D01*
X223614Y69013D01*
X223627Y69029D01*
X223637Y69039D01*
X223640Y69042D01*
X223663Y69082D01*
X223682Y69128D01*
X223696Y69180D01*
X223702Y69229D01*
X223709Y69275D01*
X223712Y69311D01*
Y69348D01*
X223709Y69413D01*
X223699Y69469D01*
X223686Y69518D01*
X223673Y69557D01*
X223656Y69590D01*
X223643Y69610D01*
X223633Y69626D01*
X223630Y69630D01*
X223597Y69662D01*
X223564Y69689D01*
X223528Y69712D01*
X223492Y69728D01*
X223463Y69738D01*
X223436Y69744D01*
X223420Y69751D01*
X223413D01*
X223456Y70053D01*
X223518Y70040D01*
X223574Y70023D01*
X223620Y70007D01*
X223659Y69987D01*
X223692Y69971D01*
X223715Y69958D01*
X223732Y69948D01*
X223735Y69944D01*
X223774Y69912D01*
X223807Y69872D01*
X223837Y69833D01*
X223860Y69794D01*
X223879Y69757D01*
X223896Y69728D01*
X223902Y69708D01*
X223905Y69705D01*
Y69702D01*
X223925Y69639D01*
X223942Y69577D01*
X223951Y69511D01*
X223961Y69456D01*
X223965Y69403D01*
Y69384D01*
X223968Y69364D01*
Y69275D01*
X223961Y69226D01*
X223955Y69180D01*
X223948Y69141D01*
X223942Y69105D01*
X223935Y69082D01*
X223932Y69065D01*
X223928Y69059D01*
X223915Y69016D01*
X223899Y68977D01*
X223886Y68941D01*
X223869Y68915D01*
X223860Y68892D01*
X223850Y68875D01*
X223843Y68865D01*
X223840Y68862D01*
X223814Y68829D01*
X223784Y68800D01*
X223755Y68774D01*
X223728Y68751D01*
X223702Y68734D01*
X223682Y68721D01*
X223669Y68714D01*
X223666Y68711D01*
X223627Y68691D01*
X223587Y68678D01*
X223548Y68669D01*
X223515Y68662D01*
X223482Y68659D01*
X223459Y68655D01*
X223446D01*
X223440D01*
X223391Y68659D01*
X223345Y68665D01*
X223302Y68675D01*
X223266Y68688D01*
X223236Y68701D01*
X223213Y68711D01*
X223200Y68718D01*
X223194Y68721D01*
X223154Y68751D01*
X223122Y68780D01*
X223092Y68816D01*
X223069Y68846D01*
X223049Y68875D01*
X223036Y68898D01*
X223026Y68915D01*
X223023Y68921D01*
X223010Y68947D01*
X223000Y68980D01*
X222987Y69013D01*
X222974Y69049D01*
X222948Y69128D01*
X222925Y69206D01*
X222905Y69279D01*
X222895Y69311D01*
X222889Y69338D01*
X222882Y69361D01*
X222876Y69377D01*
X222872Y69390D01*
Y69393D01*
X222863Y69439D01*
X222849Y69479D01*
X222839Y69518D01*
X222830Y69551D01*
X222820Y69580D01*
X222813Y69607D01*
X222807Y69626D01*
X222797Y69646D01*
X222787Y69679D01*
X222777Y69698D01*
X222774Y69708D01*
X222771Y69712D01*
X222744Y69741D01*
X222718Y69764D01*
X222692Y69780D01*
X222666Y69794D01*
X222643Y69800D01*
X222623Y69803D01*
X222610D01*
X222607D01*
X222564Y69800D01*
X222525Y69787D01*
X222492Y69771D01*
X222462Y69751D01*
X222436Y69731D01*
X222420Y69715D01*
X222407Y69702D01*
X222403Y69698D01*
X222374Y69656D01*
X222354Y69603D01*
X222338Y69551D01*
X222328Y69502D01*
X222321Y69452D01*
X222318Y69416D01*
Y69380D01*
X222321Y69305D01*
X222334Y69239D01*
X222347Y69183D01*
X222367Y69134D01*
X222384Y69098D01*
X222400Y69072D01*
X222410Y69056D01*
X222413Y69049D01*
X222452Y69010D01*
X222498Y68977D01*
X222544Y68954D01*
X222590Y68934D01*
X222633Y68921D01*
X222666Y68915D01*
X222679Y68911D01*
X222689Y68908D01*
X222692D01*
X222695D01*
X222646Y68603D01*
X222593Y68613D01*
X222544Y68626D01*
X222498Y68642D01*
X222456Y68662D01*
X222416Y68678D01*
X222380Y68698D01*
X222347Y68721D01*
X222318Y68741D01*
X222292Y68760D01*
X222269Y68777D01*
X222249Y68793D01*
X222233Y68810D01*
X222223Y68823D01*
X222213Y68832D01*
X222210Y68836D01*
X222206Y68839D01*
X222180Y68875D01*
X222161Y68918D01*
X222125Y69003D01*
X222098Y69095D01*
X222082Y69180D01*
X222075Y69223D01*
X222069Y69262D01*
X222065Y69295D01*
Y69324D01*
X222062Y69351D01*
Y69384D01*
X222065Y69462D01*
X222072Y69534D01*
X222085Y69600D01*
X222098Y69656D01*
X222111Y69702D01*
X222125Y69738D01*
X222128Y69751D01*
X222131Y69761D01*
X222134Y69764D01*
Y69767D01*
X222164Y69826D01*
X222200Y69879D01*
X222233Y69925D01*
X222269Y69964D01*
X222298Y69990D01*
X222321Y70013D01*
X222338Y70026D01*
X222344Y70030D01*
X222397Y70059D01*
X222449Y70082D01*
X222498Y70099D01*
X222544Y70112D01*
X222584Y70118D01*
X222613Y70122D01*
X222633D01*
X222636D01*
X222639D01*
X222695Y70118D01*
D02*
G37*
G36*
X223361Y68249D02*
X223410Y68245D01*
X223453Y68242D01*
X223482Y68239D01*
X223505Y68236D01*
X223518Y68232D01*
X223522D01*
X223571Y68219D01*
X223614Y68206D01*
X223653Y68190D01*
X223686Y68177D01*
X223715Y68160D01*
X223735Y68147D01*
X223748Y68140D01*
X223751Y68137D01*
X223784Y68108D01*
X223817Y68075D01*
X223843Y68042D01*
X223863Y68009D01*
X223883Y67976D01*
X223896Y67953D01*
X223902Y67937D01*
X223905Y67931D01*
X223925Y67878D01*
X223942Y67826D01*
X223951Y67773D01*
X223961Y67727D01*
X223965Y67685D01*
X223968Y67655D01*
Y67625D01*
X223965Y67557D01*
X223955Y67491D01*
X223942Y67432D01*
X223922Y67376D01*
X223899Y67324D01*
X223873Y67278D01*
X223847Y67235D01*
X223817Y67196D01*
X223787Y67160D01*
X223761Y67130D01*
X223735Y67107D01*
X223712Y67084D01*
X223696Y67068D01*
X223679Y67058D01*
X223669Y67052D01*
X223666Y67048D01*
X223928D01*
Y66769D01*
X222101D01*
Y67078D01*
X223095D01*
X223158Y67081D01*
X223217Y67084D01*
X223269Y67091D01*
X223318Y67101D01*
X223361Y67111D01*
X223400Y67124D01*
X223433Y67137D01*
X223466Y67150D01*
X223492Y67163D01*
X223512Y67173D01*
X223532Y67186D01*
X223545Y67196D01*
X223558Y67206D01*
X223564Y67212D01*
X223571Y67219D01*
X223614Y67274D01*
X223646Y67334D01*
X223669Y67393D01*
X223682Y67445D01*
X223692Y67491D01*
X223696Y67530D01*
X223699Y67544D01*
Y67563D01*
X223696Y67606D01*
X223689Y67648D01*
X223679Y67685D01*
X223669Y67714D01*
X223659Y67740D01*
X223650Y67760D01*
X223643Y67773D01*
X223640Y67776D01*
X223617Y67809D01*
X223594Y67835D01*
X223568Y67858D01*
X223545Y67875D01*
X223522Y67888D01*
X223505Y67898D01*
X223492Y67904D01*
X223489D01*
X223450Y67917D01*
X223407Y67927D01*
X223361Y67934D01*
X223315Y67940D01*
X223276D01*
X223240Y67944D01*
X223227D01*
X223220D01*
X223213D01*
X223210D01*
X222101D01*
Y68252D01*
X223223D01*
X223299D01*
X223361Y68249D01*
D02*
G37*
G36*
X223099Y66386D02*
X223177Y66379D01*
X223250Y66366D01*
X223318Y66353D01*
X223381Y66336D01*
X223436Y66317D01*
X223489Y66294D01*
X223538Y66274D01*
X223581Y66251D01*
X223617Y66228D01*
X223646Y66208D01*
X223673Y66192D01*
X223692Y66179D01*
X223705Y66166D01*
X223715Y66159D01*
X223719Y66156D01*
X223761Y66110D01*
X223801Y66064D01*
X223833Y66015D01*
X223863Y65962D01*
X223886Y65913D01*
X223905Y65864D01*
X223925Y65815D01*
X223938Y65769D01*
X223948Y65726D01*
X223955Y65684D01*
X223961Y65648D01*
X223965Y65618D01*
X223968Y65592D01*
Y65556D01*
X223965Y65487D01*
X223958Y65421D01*
X223945Y65359D01*
X223928Y65300D01*
X223909Y65247D01*
X223886Y65195D01*
X223863Y65149D01*
X223840Y65106D01*
X223817Y65070D01*
X223794Y65038D01*
X223771Y65008D01*
X223751Y64985D01*
X223735Y64965D01*
X223722Y64952D01*
X223715Y64946D01*
X223712Y64942D01*
X223663Y64900D01*
X223610Y64864D01*
X223551Y64834D01*
X223492Y64805D01*
X223433Y64782D01*
X223374Y64765D01*
X223315Y64749D01*
X223259Y64736D01*
X223207Y64726D01*
X223158Y64719D01*
X223112Y64713D01*
X223072Y64710D01*
X223043D01*
X223017Y64706D01*
X223004D01*
X222997D01*
X222915Y64710D01*
X222839Y64716D01*
X222771Y64729D01*
X222702Y64742D01*
X222643Y64759D01*
X222584Y64778D01*
X222534Y64801D01*
X222485Y64824D01*
X222446Y64844D01*
X222410Y64867D01*
X222380Y64887D01*
X222354Y64903D01*
X222334Y64916D01*
X222321Y64929D01*
X222311Y64936D01*
X222308Y64939D01*
X222266Y64985D01*
X222226Y65034D01*
X222193Y65087D01*
X222167Y65139D01*
X222141Y65192D01*
X222121Y65244D01*
X222105Y65297D01*
X222092Y65346D01*
X222082Y65392D01*
X222075Y65438D01*
X222069Y65477D01*
X222065Y65510D01*
Y65536D01*
X222062Y65559D01*
Y65575D01*
X222065Y65635D01*
X222069Y65690D01*
X222085Y65792D01*
X222098Y65838D01*
X222111Y65881D01*
X222125Y65920D01*
X222141Y65956D01*
X222154Y65989D01*
X222167Y66015D01*
X222180Y66041D01*
X222193Y66061D01*
X222203Y66077D01*
X222210Y66087D01*
X222216Y66094D01*
Y66097D01*
X222279Y66166D01*
X222351Y66225D01*
X222423Y66274D01*
X222492Y66313D01*
X222554Y66340D01*
X222584Y66353D01*
X222607Y66359D01*
X222626Y66369D01*
X222639Y66373D01*
X222649Y66376D01*
X222653D01*
X222695Y66054D01*
X222626Y66028D01*
X222567Y65995D01*
X222515Y65962D01*
X222475Y65933D01*
X222446Y65907D01*
X222423Y65884D01*
X222410Y65871D01*
X222407Y65864D01*
X222377Y65818D01*
X222354Y65769D01*
X222341Y65720D01*
X222328Y65677D01*
X222321Y65635D01*
X222318Y65605D01*
Y65575D01*
X222321Y65533D01*
X222325Y65494D01*
X222344Y65418D01*
X222367Y65352D01*
X222397Y65297D01*
X222426Y65254D01*
X222452Y65218D01*
X222462Y65208D01*
X222469Y65198D01*
X222472Y65195D01*
X222475Y65192D01*
X222508Y65166D01*
X222541Y65143D01*
X222613Y65103D01*
X222689Y65074D01*
X222764Y65051D01*
X222830Y65038D01*
X222859Y65034D01*
X222885Y65031D01*
X222905Y65028D01*
X222921Y65024D01*
X222931D01*
X222935D01*
Y66386D01*
X222971Y66389D01*
X222997D01*
X223010D01*
X223017D01*
X223099Y66386D01*
D02*
G37*
G36*
X222885Y64391D02*
X222951Y64378D01*
X223013Y64362D01*
X223066Y64342D01*
X223109Y64319D01*
X223141Y64303D01*
X223151Y64296D01*
X223161Y64290D01*
X223164Y64286D01*
X223167D01*
X223223Y64244D01*
X223276Y64191D01*
X223318Y64139D01*
X223358Y64086D01*
X223387Y64037D01*
X223407Y63998D01*
X223417Y63981D01*
X223423Y63972D01*
X223427Y63965D01*
Y63962D01*
X223440Y63932D01*
X223453Y63896D01*
X223466Y63854D01*
X223482Y63811D01*
X223509Y63719D01*
X223532Y63627D01*
X223545Y63581D01*
X223555Y63542D01*
X223564Y63503D01*
X223571Y63470D01*
X223577Y63443D01*
X223584Y63420D01*
X223587Y63407D01*
Y63404D01*
X223604Y63332D01*
X223620Y63266D01*
X223637Y63207D01*
X223653Y63155D01*
X223669Y63109D01*
X223682Y63070D01*
X223699Y63033D01*
X223712Y63001D01*
X223722Y62978D01*
X223732Y62955D01*
X223742Y62938D01*
X223751Y62925D01*
X223755Y62915D01*
X223761Y62909D01*
X223764Y62902D01*
X223801Y62870D01*
X223837Y62846D01*
X223873Y62830D01*
X223909Y62820D01*
X223942Y62814D01*
X223965Y62807D01*
X223981D01*
X223988D01*
X224043Y62814D01*
X224096Y62830D01*
X224142Y62850D01*
X224181Y62876D01*
X224214Y62902D01*
X224237Y62922D01*
X224250Y62938D01*
X224256Y62945D01*
X224276Y62971D01*
X224293Y63004D01*
X224322Y63073D01*
X224342Y63145D01*
X224355Y63217D01*
X224361Y63283D01*
X224365Y63309D01*
X224368Y63335D01*
Y63437D01*
X224361Y63486D01*
X224358Y63532D01*
X224348Y63575D01*
X224339Y63614D01*
X224329Y63650D01*
X224319Y63683D01*
X224309Y63712D01*
X224296Y63735D01*
X224286Y63758D01*
X224276Y63778D01*
X224266Y63794D01*
X224256Y63804D01*
X224253Y63814D01*
X224247Y63821D01*
X224197Y63873D01*
X224138Y63912D01*
X224079Y63942D01*
X224024Y63965D01*
X223971Y63981D01*
X223948Y63988D01*
X223928Y63991D01*
X223912Y63994D01*
X223899Y63998D01*
X223892D01*
X223889D01*
X223912Y64319D01*
X223991Y64313D01*
X224066Y64296D01*
X224132Y64277D01*
X224191Y64254D01*
X224240Y64231D01*
X224260Y64221D01*
X224276Y64214D01*
X224289Y64204D01*
X224299Y64201D01*
X224302Y64195D01*
X224306D01*
X224368Y64149D01*
X224424Y64093D01*
X224470Y64040D01*
X224506Y63985D01*
X224535Y63939D01*
X224558Y63899D01*
X224565Y63883D01*
X224571Y63873D01*
X224575Y63867D01*
Y63863D01*
X224604Y63781D01*
X224627Y63696D01*
X224643Y63614D01*
X224657Y63539D01*
X224660Y63503D01*
X224663Y63470D01*
Y63443D01*
X224667Y63417D01*
Y63371D01*
X224663Y63279D01*
X224653Y63191D01*
X224637Y63112D01*
X224624Y63043D01*
X224614Y63014D01*
X224607Y62988D01*
X224598Y62965D01*
X224591Y62945D01*
X224588Y62928D01*
X224581Y62919D01*
X224578Y62912D01*
Y62909D01*
X224542Y62837D01*
X224502Y62771D01*
X224460Y62719D01*
X224420Y62673D01*
X224384Y62640D01*
X224352Y62614D01*
X224332Y62600D01*
X224329Y62594D01*
X224325D01*
X224263Y62558D01*
X224201Y62532D01*
X224142Y62512D01*
X224086Y62499D01*
X224037Y62492D01*
X224001Y62489D01*
X223988Y62486D01*
X223978D01*
X223971D01*
X223968D01*
X223905Y62489D01*
X223847Y62499D01*
X223791Y62512D01*
X223745Y62528D01*
X223705Y62545D01*
X223679Y62558D01*
X223659Y62568D01*
X223656Y62571D01*
X223653D01*
X223604Y62607D01*
X223558Y62650D01*
X223518Y62696D01*
X223486Y62738D01*
X223456Y62778D01*
X223436Y62810D01*
X223430Y62824D01*
X223423Y62833D01*
X223420Y62837D01*
Y62840D01*
X223407Y62870D01*
X223391Y62902D01*
X223364Y62974D01*
X223335Y63056D01*
X223312Y63135D01*
X223289Y63211D01*
X223282Y63240D01*
X223272Y63270D01*
X223269Y63293D01*
X223263Y63309D01*
X223259Y63322D01*
Y63325D01*
X223243Y63388D01*
X223230Y63443D01*
X223217Y63496D01*
X223207Y63542D01*
X223194Y63585D01*
X223184Y63621D01*
X223177Y63653D01*
X223167Y63680D01*
X223161Y63706D01*
X223154Y63726D01*
X223151Y63742D01*
X223145Y63755D01*
X223141Y63768D01*
X223138Y63775D01*
X223115Y63831D01*
X223089Y63876D01*
X223066Y63916D01*
X223043Y63949D01*
X223023Y63972D01*
X223007Y63988D01*
X222994Y63998D01*
X222990Y64001D01*
X222958Y64024D01*
X222921Y64044D01*
X222885Y64057D01*
X222853Y64063D01*
X222826Y64070D01*
X222803Y64073D01*
X222790D01*
X222784D01*
X222741Y64070D01*
X222702Y64063D01*
X222666Y64050D01*
X222633Y64037D01*
X222607Y64024D01*
X222584Y64011D01*
X222571Y64004D01*
X222567Y64001D01*
X222531Y63972D01*
X222502Y63936D01*
X222475Y63899D01*
X222452Y63863D01*
X222436Y63831D01*
X222423Y63804D01*
X222416Y63788D01*
X222413Y63785D01*
Y63781D01*
X222393Y63726D01*
X222380Y63670D01*
X222371Y63611D01*
X222364Y63562D01*
X222361Y63516D01*
X222357Y63480D01*
Y63447D01*
X222361Y63368D01*
X222367Y63296D01*
X222380Y63230D01*
X222393Y63174D01*
X222407Y63125D01*
X222413Y63106D01*
X222420Y63089D01*
X222423Y63076D01*
X222426Y63066D01*
X222429Y63063D01*
Y63060D01*
X222459Y63001D01*
X222492Y62948D01*
X222525Y62906D01*
X222557Y62870D01*
X222584Y62843D01*
X222607Y62824D01*
X222620Y62810D01*
X222626Y62807D01*
X222675Y62781D01*
X222728Y62758D01*
X222780Y62738D01*
X222830Y62725D01*
X222876Y62715D01*
X222908Y62709D01*
X222921D01*
X222931Y62705D01*
X222938D01*
X222941D01*
X222915Y62391D01*
X222823Y62397D01*
X222735Y62414D01*
X222659Y62436D01*
X222590Y62463D01*
X222561Y62476D01*
X222534Y62486D01*
X222515Y62499D01*
X222495Y62509D01*
X222479Y62515D01*
X222469Y62522D01*
X222462Y62528D01*
X222459D01*
X222390Y62581D01*
X222328Y62640D01*
X222275Y62699D01*
X222233Y62758D01*
X222200Y62810D01*
X222187Y62833D01*
X222177Y62850D01*
X222167Y62866D01*
X222161Y62879D01*
X222157Y62886D01*
Y62889D01*
X222125Y62981D01*
X222101Y63076D01*
X222082Y63174D01*
X222072Y63263D01*
X222069Y63306D01*
X222065Y63342D01*
X222062Y63378D01*
Y63407D01*
X222059Y63430D01*
Y63463D01*
X222062Y63562D01*
X222075Y63653D01*
X222092Y63735D01*
X222108Y63804D01*
X222118Y63837D01*
X222128Y63863D01*
X222134Y63886D01*
X222141Y63909D01*
X222147Y63922D01*
X222154Y63936D01*
X222157Y63942D01*
Y63945D01*
X222197Y64021D01*
X222243Y64090D01*
X222288Y64145D01*
X222331Y64191D01*
X222371Y64227D01*
X222403Y64257D01*
X222416Y64263D01*
X222426Y64270D01*
X222429Y64277D01*
X222433D01*
X222498Y64316D01*
X222567Y64346D01*
X222630Y64365D01*
X222689Y64382D01*
X222738Y64388D01*
X222758Y64391D01*
X222777D01*
X222790Y64395D01*
X222800D01*
X222807D01*
X222810D01*
X222885Y64391D01*
D02*
G37*
G36*
X222112Y62222D02*
X222106Y62220D01*
X222105Y62219D01*
X222104D01*
X222106Y62218D01*
X222107D01*
X222112Y62215D01*
Y62214D01*
X222101Y62218D01*
Y62217D01*
X222100D01*
Y62216D01*
X222099D01*
Y62215D01*
X222098D01*
X222097Y62216D01*
X222098Y62217D01*
X222099Y62218D01*
X222100Y62219D01*
X222101Y62220D01*
X222112Y62224D01*
Y62222D01*
D02*
G37*
G36*
X222377Y62142D02*
X222374Y62112D01*
X222371Y62086D01*
Y62060D01*
X222367Y62040D01*
Y62004D01*
X222371Y61958D01*
X222377Y61925D01*
X222380Y61912D01*
X222384Y61902D01*
X222387Y61899D01*
Y61896D01*
X222407Y61873D01*
X222426Y61856D01*
X222439Y61847D01*
X222446Y61843D01*
X222466Y61840D01*
X222489Y61837D01*
X222518Y61833D01*
X222548D01*
X222574Y61830D01*
X222597D01*
X222613D01*
X222620D01*
X223689D01*
Y62142D01*
X223928D01*
Y61830D01*
X224565D01*
X224378Y61522D01*
X223928D01*
Y61292D01*
X223689D01*
Y61522D01*
X222636D01*
X222587D01*
X222541Y61525D01*
X222498D01*
X222462Y61528D01*
X222426Y61532D01*
X222397Y61535D01*
X222371Y61538D01*
X222347Y61541D01*
X222311Y61548D01*
X222288Y61551D01*
X222272Y61558D01*
X222269D01*
X222239Y61574D01*
X222213Y61594D01*
X222187Y61617D01*
X222167Y61640D01*
X222151Y61660D01*
X222141Y61673D01*
X222134Y61686D01*
X222131Y61689D01*
X222115Y61725D01*
X222101Y61768D01*
X222092Y61810D01*
X222085Y61853D01*
X222082Y61889D01*
X222079Y61922D01*
Y61948D01*
X222082Y62030D01*
X222088Y62070D01*
X222092Y62106D01*
X222098Y62138D01*
X222101Y62161D01*
X222105Y62178D01*
Y62184D01*
X222377Y62142D01*
D02*
G37*
G36*
X224624Y60685D02*
X224270D01*
Y60994D01*
X224624D01*
Y60685D01*
D02*
G37*
G36*
X223928D02*
X222101D01*
Y60994D01*
X223928D01*
Y60685D01*
D02*
G37*
G36*
X222695Y60315D02*
X222748Y60305D01*
X222790Y60295D01*
X222830Y60282D01*
X222859Y60266D01*
X222882Y60256D01*
X222899Y60246D01*
X222902Y60243D01*
X222941Y60213D01*
X222974Y60177D01*
X223000Y60144D01*
X223023Y60111D01*
X223043Y60082D01*
X223056Y60059D01*
X223063Y60043D01*
X223066Y60036D01*
X223076Y60010D01*
X223089Y59980D01*
X223112Y59911D01*
X223135Y59836D01*
X223158Y59760D01*
X223177Y59692D01*
X223184Y59659D01*
X223194Y59632D01*
X223200Y59613D01*
X223204Y59593D01*
X223207Y59583D01*
Y59580D01*
X223217Y59541D01*
X223230Y59505D01*
X223236Y59472D01*
X223246Y59442D01*
X223253Y59416D01*
X223259Y59393D01*
X223269Y59357D01*
X223276Y59331D01*
X223282Y59314D01*
X223286Y59308D01*
Y59304D01*
X223299Y59278D01*
X223312Y59252D01*
X223325Y59232D01*
X223338Y59216D01*
X223351Y59203D01*
X223361Y59193D01*
X223364Y59190D01*
X223368Y59186D01*
X223387Y59173D01*
X223407Y59167D01*
X223440Y59154D01*
X223456D01*
X223466Y59150D01*
X223473D01*
X223476D01*
X223512Y59154D01*
X223541Y59163D01*
X223571Y59180D01*
X223594Y59196D01*
X223614Y59209D01*
X223627Y59226D01*
X223637Y59236D01*
X223640Y59239D01*
X223663Y59278D01*
X223682Y59324D01*
X223696Y59377D01*
X223702Y59426D01*
X223709Y59472D01*
X223712Y59508D01*
Y59544D01*
X223709Y59610D01*
X223699Y59665D01*
X223686Y59715D01*
X223673Y59754D01*
X223656Y59787D01*
X223643Y59806D01*
X223633Y59823D01*
X223630Y59826D01*
X223597Y59859D01*
X223564Y59885D01*
X223528Y59908D01*
X223492Y59924D01*
X223463Y59934D01*
X223436Y59941D01*
X223420Y59947D01*
X223413D01*
X223456Y60249D01*
X223518Y60236D01*
X223574Y60220D01*
X223620Y60203D01*
X223659Y60184D01*
X223692Y60167D01*
X223715Y60154D01*
X223732Y60144D01*
X223735Y60141D01*
X223774Y60108D01*
X223807Y60069D01*
X223837Y60029D01*
X223860Y59990D01*
X223879Y59954D01*
X223896Y59924D01*
X223902Y59905D01*
X223905Y59901D01*
Y59898D01*
X223925Y59836D01*
X223942Y59774D01*
X223951Y59708D01*
X223961Y59652D01*
X223965Y59600D01*
Y59580D01*
X223968Y59560D01*
Y59472D01*
X223961Y59423D01*
X223955Y59377D01*
X223948Y59337D01*
X223942Y59301D01*
X223935Y59278D01*
X223932Y59262D01*
X223928Y59255D01*
X223915Y59213D01*
X223899Y59173D01*
X223886Y59137D01*
X223869Y59111D01*
X223860Y59088D01*
X223850Y59072D01*
X223843Y59062D01*
X223840Y59058D01*
X223814Y59026D01*
X223784Y58996D01*
X223755Y58970D01*
X223728Y58947D01*
X223702Y58931D01*
X223682Y58917D01*
X223669Y58911D01*
X223666Y58908D01*
X223627Y58888D01*
X223587Y58875D01*
X223548Y58865D01*
X223515Y58858D01*
X223482Y58855D01*
X223459Y58852D01*
X223446D01*
X223440D01*
X223391Y58855D01*
X223345Y58862D01*
X223302Y58872D01*
X223266Y58885D01*
X223236Y58898D01*
X223213Y58908D01*
X223200Y58914D01*
X223194Y58917D01*
X223154Y58947D01*
X223122Y58977D01*
X223092Y59013D01*
X223069Y59042D01*
X223049Y59072D01*
X223036Y59095D01*
X223026Y59111D01*
X223023Y59118D01*
X223010Y59144D01*
X223000Y59177D01*
X222987Y59209D01*
X222974Y59246D01*
X222948Y59324D01*
X222925Y59403D01*
X222905Y59475D01*
X222895Y59508D01*
X222889Y59534D01*
X222882Y59557D01*
X222876Y59574D01*
X222872Y59587D01*
Y59590D01*
X222863Y59636D01*
X222849Y59675D01*
X222839Y59715D01*
X222830Y59747D01*
X222820Y59777D01*
X222813Y59803D01*
X222807Y59823D01*
X222797Y59842D01*
X222787Y59875D01*
X222777Y59895D01*
X222774Y59905D01*
X222771Y59908D01*
X222744Y59938D01*
X222718Y59961D01*
X222692Y59977D01*
X222666Y59990D01*
X222643Y59997D01*
X222623Y60000D01*
X222610D01*
X222607D01*
X222564Y59997D01*
X222525Y59983D01*
X222492Y59967D01*
X222462Y59947D01*
X222436Y59928D01*
X222420Y59911D01*
X222407Y59898D01*
X222403Y59895D01*
X222374Y59852D01*
X222354Y59800D01*
X222338Y59747D01*
X222328Y59698D01*
X222321Y59649D01*
X222318Y59613D01*
Y59577D01*
X222321Y59501D01*
X222334Y59436D01*
X222347Y59380D01*
X222367Y59331D01*
X222384Y59295D01*
X222400Y59268D01*
X222410Y59252D01*
X222413Y59246D01*
X222452Y59206D01*
X222498Y59173D01*
X222544Y59150D01*
X222590Y59131D01*
X222633Y59118D01*
X222666Y59111D01*
X222679Y59108D01*
X222689Y59104D01*
X222692D01*
X222695D01*
X222646Y58799D01*
X222593Y58809D01*
X222544Y58822D01*
X222498Y58839D01*
X222456Y58858D01*
X222416Y58875D01*
X222380Y58894D01*
X222347Y58917D01*
X222318Y58937D01*
X222292Y58957D01*
X222269Y58973D01*
X222249Y58990D01*
X222233Y59006D01*
X222223Y59019D01*
X222213Y59029D01*
X222210Y59032D01*
X222206Y59036D01*
X222180Y59072D01*
X222161Y59114D01*
X222125Y59200D01*
X222098Y59291D01*
X222082Y59377D01*
X222075Y59419D01*
X222069Y59459D01*
X222065Y59491D01*
Y59521D01*
X222062Y59547D01*
Y59580D01*
X222065Y59659D01*
X222072Y59731D01*
X222085Y59797D01*
X222098Y59852D01*
X222111Y59898D01*
X222125Y59934D01*
X222128Y59947D01*
X222131Y59957D01*
X222134Y59961D01*
Y59964D01*
X222164Y60023D01*
X222200Y60075D01*
X222233Y60121D01*
X222269Y60161D01*
X222298Y60187D01*
X222321Y60210D01*
X222338Y60223D01*
X222344Y60226D01*
X222397Y60256D01*
X222449Y60279D01*
X222498Y60295D01*
X222544Y60308D01*
X222584Y60315D01*
X222613Y60318D01*
X222633D01*
X222636D01*
X222639D01*
X222695Y60315D01*
D02*
G37*
G36*
X224624Y58140D02*
X224270D01*
Y58448D01*
X224624D01*
Y58140D01*
D02*
G37*
G36*
X223928D02*
X222101D01*
Y58448D01*
X223928D01*
Y58140D01*
D02*
G37*
G36*
X222109Y57905D02*
X222110D01*
X222111Y57904D01*
X222112D01*
Y57903D01*
X222112Y57902D01*
Y57901D01*
X222112Y57900D01*
X222111Y57899D01*
X222116D01*
Y57897D01*
X222101D01*
Y57899D01*
X222104D01*
X222101Y57900D01*
Y57901D01*
X222102Y57903D01*
Y57904D01*
X222105Y57906D01*
X222107D01*
X222108D01*
X222109Y57905D01*
D02*
G37*
G36*
X223899Y57883D02*
X223925Y57827D01*
X223942Y57772D01*
X223955Y57722D01*
X223961Y57683D01*
X223968Y57650D01*
Y57624D01*
X223965Y57585D01*
X223958Y57549D01*
X223948Y57512D01*
X223938Y57483D01*
X223925Y57460D01*
X223915Y57440D01*
X223909Y57427D01*
X223905Y57424D01*
X223876Y57391D01*
X223840Y57355D01*
X223797Y57322D01*
X223751Y57293D01*
X223712Y57270D01*
X223679Y57247D01*
X223666Y57240D01*
X223656Y57234D01*
X223650Y57230D01*
X223928D01*
Y56952D01*
X222101D01*
Y57260D01*
X223053D01*
X223125Y57263D01*
X223194Y57266D01*
X223253Y57276D01*
X223309Y57286D01*
X223351Y57293D01*
X223384Y57303D01*
X223397Y57306D01*
X223407D01*
X223410Y57309D01*
X223413D01*
X223453Y57326D01*
X223486Y57342D01*
X223515Y57362D01*
X223538Y57381D01*
X223558Y57398D01*
X223574Y57411D01*
X223581Y57421D01*
X223584Y57424D01*
X223604Y57457D01*
X223620Y57486D01*
X223630Y57519D01*
X223640Y57545D01*
X223643Y57572D01*
X223646Y57591D01*
Y57608D01*
X223643Y57650D01*
X223637Y57693D01*
X223627Y57732D01*
X223614Y57765D01*
X223601Y57795D01*
X223591Y57818D01*
X223584Y57831D01*
X223581Y57837D01*
X223866Y57945D01*
X223899Y57883D01*
D02*
G37*
G36*
X222112Y56719D02*
X222107D01*
X222106D01*
X222105Y56718D01*
X222104D01*
Y56715D01*
X222105D01*
X222106D01*
X222107D01*
X222112D01*
Y56713D01*
X222106D01*
X222105D01*
X222104D01*
X222102D01*
X222101D01*
Y56716D01*
X222102Y56718D01*
X222104Y56719D01*
X222101D01*
Y56721D01*
X222112D01*
Y56719D01*
D02*
G37*
G36*
X222116Y56700D02*
X222114D01*
Y56705D01*
X222101D01*
Y56707D01*
X222114D01*
Y56712D01*
X222116D01*
Y56700D01*
D02*
G37*
G36*
X221839Y114095D02*
X221840D01*
X221841Y114094D01*
X221842Y114092D01*
Y114090D01*
X221841Y114089D01*
X221842D01*
Y114087D01*
X221827D01*
Y114089D01*
X221831D01*
Y114093D01*
X221832Y114094D01*
X221833Y114095D01*
X221835Y114096D01*
X221836D01*
X221838D01*
X221839Y114095D01*
D02*
G37*
G36*
X221841Y114084D02*
X221842Y114082D01*
Y114080D01*
X221841Y114079D01*
X221840Y114078D01*
X221841Y114077D01*
X221842Y114076D01*
Y114074D01*
X221841Y114073D01*
X221842D01*
Y114071D01*
X221831D01*
Y114073D01*
X221836D01*
X221837D01*
X221838D01*
X221839D01*
X221840Y114074D01*
Y114076D01*
X221839D01*
X221838Y114077D01*
X221837D01*
X221831D01*
Y114079D01*
X221836D01*
X221838D01*
X221839D01*
X221840Y114080D01*
Y114081D01*
X221839D01*
Y114082D01*
X221838D01*
Y114083D01*
X221837D01*
X221831D01*
Y114085D01*
X221838D01*
X221840D01*
X221841Y114084D01*
D02*
G37*
G36*
X222828Y113919D02*
X222907Y113913D01*
X222979Y113900D01*
X223048Y113887D01*
X223111Y113870D01*
X223166Y113850D01*
X223219Y113828D01*
X223268Y113808D01*
X223311Y113785D01*
X223347Y113762D01*
X223376Y113742D01*
X223402Y113726D01*
X223422Y113713D01*
X223435Y113700D01*
X223445Y113693D01*
X223448Y113690D01*
X223491Y113644D01*
X223530Y113598D01*
X223563Y113549D01*
X223593Y113496D01*
X223616Y113447D01*
X223635Y113398D01*
X223655Y113349D01*
X223668Y113303D01*
X223678Y113260D01*
X223685Y113217D01*
X223691Y113181D01*
X223694Y113152D01*
X223698Y113126D01*
Y113090D01*
X223694Y113021D01*
X223688Y112955D01*
X223675Y112893D01*
X223658Y112834D01*
X223639Y112781D01*
X223616Y112729D01*
X223593Y112683D01*
X223570Y112640D01*
X223547Y112604D01*
X223524Y112571D01*
X223501Y112542D01*
X223481Y112519D01*
X223465Y112499D01*
X223452Y112486D01*
X223445Y112479D01*
X223442Y112476D01*
X223393Y112434D01*
X223340Y112397D01*
X223281Y112368D01*
X223222Y112338D01*
X223163Y112315D01*
X223104Y112299D01*
X223045Y112283D01*
X222989Y112269D01*
X222937Y112260D01*
X222887Y112253D01*
X222842Y112247D01*
X222802Y112243D01*
X222773D01*
X222746Y112240D01*
X222733D01*
X222727D01*
X222645Y112243D01*
X222569Y112250D01*
X222500Y112263D01*
X222432Y112276D01*
X222373Y112293D01*
X222313Y112312D01*
X222264Y112335D01*
X222215Y112358D01*
X222176Y112378D01*
X222140Y112401D01*
X222110Y112420D01*
X222084Y112437D01*
X222064Y112450D01*
X222051Y112463D01*
X222041Y112470D01*
X222038Y112473D01*
X221995Y112519D01*
X221956Y112568D01*
X221923Y112620D01*
X221897Y112673D01*
X221871Y112725D01*
X221851Y112778D01*
X221835Y112830D01*
X221821Y112880D01*
X221812Y112926D01*
X221805Y112971D01*
X221798Y113011D01*
X221795Y113044D01*
Y113070D01*
X221792Y113093D01*
Y113109D01*
X221795Y113168D01*
X221798Y113224D01*
X221815Y113326D01*
X221828Y113372D01*
X221841Y113414D01*
X221854Y113454D01*
X221871Y113490D01*
X221884Y113523D01*
X221897Y113549D01*
X221910Y113575D01*
X221923Y113595D01*
X221933Y113611D01*
X221940Y113621D01*
X221946Y113627D01*
Y113631D01*
X222008Y113700D01*
X222081Y113759D01*
X222153Y113808D01*
X222222Y113847D01*
X222284Y113873D01*
X222313Y113887D01*
X222336Y113893D01*
X222356Y113903D01*
X222369Y113906D01*
X222379Y113909D01*
X222382D01*
X222425Y113588D01*
X222356Y113562D01*
X222297Y113529D01*
X222245Y113496D01*
X222205Y113467D01*
X222176Y113441D01*
X222153Y113417D01*
X222140Y113404D01*
X222136Y113398D01*
X222107Y113352D01*
X222084Y113303D01*
X222071Y113253D01*
X222058Y113211D01*
X222051Y113168D01*
X222048Y113139D01*
Y113109D01*
X222051Y113067D01*
X222054Y113027D01*
X222074Y112952D01*
X222097Y112886D01*
X222127Y112830D01*
X222156Y112788D01*
X222182Y112752D01*
X222192Y112742D01*
X222199Y112732D01*
X222202Y112729D01*
X222205Y112725D01*
X222238Y112699D01*
X222271Y112676D01*
X222343Y112637D01*
X222418Y112607D01*
X222494Y112584D01*
X222559Y112571D01*
X222589Y112568D01*
X222615Y112565D01*
X222635Y112561D01*
X222651Y112558D01*
X222661D01*
X222664D01*
Y113919D01*
X222701Y113923D01*
X222727D01*
X222740D01*
X222746D01*
X222828Y113919D01*
D02*
G37*
G36*
X221846Y112100D02*
X221844D01*
Y112105D01*
X221831D01*
Y112107D01*
X221844D01*
Y112112D01*
X221846D01*
Y112100D01*
D02*
G37*
G36*
X173152Y244598D02*
X173218Y244591D01*
X173280Y244578D01*
X173339Y244562D01*
X173392Y244542D01*
X173444Y244519D01*
X173490Y244496D01*
X173533Y244473D01*
X173569Y244450D01*
X173602Y244427D01*
X173631Y244404D01*
X173654Y244384D01*
X173674Y244368D01*
X173687Y244355D01*
X173694Y244348D01*
X173697Y244345D01*
X173740Y244296D01*
X173776Y244243D01*
X173805Y244184D01*
X173835Y244125D01*
X173858Y244066D01*
X173874Y244007D01*
X173890Y243948D01*
X173904Y243892D01*
X173913Y243840D01*
X173920Y243791D01*
X173926Y243745D01*
X173930Y243705D01*
Y243676D01*
X173933Y243650D01*
Y243636D01*
Y243630D01*
X173930Y243548D01*
X173923Y243473D01*
X173910Y243404D01*
X173897Y243335D01*
X173881Y243276D01*
X173861Y243217D01*
X173838Y243167D01*
X173815Y243118D01*
X173795Y243079D01*
X173772Y243043D01*
X173753Y243013D01*
X173736Y242987D01*
X173723Y242967D01*
X173710Y242954D01*
X173703Y242944D01*
X173700Y242941D01*
X173654Y242899D01*
X173605Y242859D01*
X173553Y242826D01*
X173500Y242800D01*
X173448Y242774D01*
X173395Y242754D01*
X173343Y242738D01*
X173293Y242725D01*
X173248Y242715D01*
X173202Y242708D01*
X173162Y242702D01*
X173129Y242698D01*
X173103D01*
X173080Y242695D01*
X173064D01*
X173005Y242698D01*
X172949Y242702D01*
X172847Y242718D01*
X172801Y242731D01*
X172759Y242744D01*
X172719Y242758D01*
X172683Y242774D01*
X172651Y242787D01*
X172624Y242800D01*
X172598Y242813D01*
X172578Y242826D01*
X172562Y242836D01*
X172552Y242843D01*
X172546Y242849D01*
X172542D01*
X172473Y242912D01*
X172414Y242984D01*
X172365Y243056D01*
X172326Y243125D01*
X172300Y243187D01*
X172286Y243217D01*
X172280Y243240D01*
X172270Y243259D01*
X172267Y243272D01*
X172264Y243282D01*
Y243286D01*
X172585Y243328D01*
X172611Y243259D01*
X172644Y243200D01*
X172677Y243148D01*
X172706Y243108D01*
X172732Y243079D01*
X172756Y243056D01*
X172769Y243043D01*
X172775Y243040D01*
X172821Y243010D01*
X172870Y242987D01*
X172919Y242974D01*
X172962Y242961D01*
X173005Y242954D01*
X173034Y242951D01*
X173064D01*
X173106Y242954D01*
X173146Y242958D01*
X173221Y242977D01*
X173287Y243000D01*
X173343Y243030D01*
X173385Y243059D01*
X173421Y243086D01*
X173431Y243095D01*
X173441Y243102D01*
X173444Y243105D01*
X173448Y243108D01*
X173474Y243141D01*
X173497Y243174D01*
X173536Y243246D01*
X173566Y243322D01*
X173589Y243397D01*
X173602Y243463D01*
X173605Y243492D01*
X173608Y243518D01*
X173612Y243538D01*
X173615Y243554D01*
Y243564D01*
Y243568D01*
X172254D01*
X172250Y243604D01*
Y243630D01*
Y243643D01*
Y243650D01*
X172254Y243732D01*
X172260Y243810D01*
X172273Y243882D01*
X172286Y243951D01*
X172303Y244014D01*
X172322Y244070D01*
X172345Y244122D01*
X172365Y244171D01*
X172388Y244214D01*
X172411Y244250D01*
X172431Y244279D01*
X172447Y244306D01*
X172460Y244325D01*
X172473Y244338D01*
X172480Y244348D01*
X172483Y244352D01*
X172529Y244394D01*
X172575Y244434D01*
X172624Y244466D01*
X172677Y244496D01*
X172726Y244519D01*
X172775Y244538D01*
X172824Y244558D01*
X172870Y244571D01*
X172913Y244581D01*
X172956Y244588D01*
X172992Y244594D01*
X173021Y244598D01*
X173047Y244601D01*
X173083D01*
X173152Y244598D01*
D02*
G37*
G36*
X176423Y242748D02*
X176424Y242747D01*
X176425Y242746D01*
Y242745D01*
X176423D01*
Y242746D01*
X176422Y242747D01*
X176420D01*
X176419Y242746D01*
X176418Y242745D01*
Y242744D01*
Y242743D01*
X176419Y242742D01*
X176421Y242741D01*
X176422Y242740D01*
Y242739D01*
X176424Y242738D01*
X176425Y242737D01*
Y242736D01*
Y242735D01*
X176416D01*
Y242737D01*
X176423D01*
X176421Y242738D01*
X176420Y242739D01*
X176419Y242741D01*
X176418Y242741D01*
X176417Y242742D01*
X176416Y242743D01*
Y242744D01*
X176417Y242746D01*
X176418Y242747D01*
X176420Y242750D01*
X176421D01*
X176423Y242748D01*
D02*
G37*
G36*
X176457Y242735D02*
X176455D01*
Y242747D01*
X176452Y242735D01*
X176450D01*
X176446Y242746D01*
Y242735D01*
X176444D01*
Y242750D01*
X176448Y242748D01*
X176450Y242740D01*
X176451Y242738D01*
Y242739D01*
X176454Y242748D01*
X176457Y242750D01*
Y242735D01*
D02*
G37*
G36*
X176438Y242748D02*
X176440Y242746D01*
X176441Y242745D01*
Y242742D01*
Y242741D01*
Y242739D01*
Y242738D01*
X176440Y242736D01*
X176439Y242735D01*
X176427D01*
X176429Y242736D01*
X176430Y242737D01*
X176429Y242738D01*
X176428Y242739D01*
X176427Y242741D01*
Y242741D01*
Y242744D01*
X176428Y242745D01*
X176430Y242747D01*
X176431Y242748D01*
X176433Y242750D01*
X176437D01*
X176438Y242748D01*
D02*
G37*
G36*
X171083Y244598D02*
X171148Y244588D01*
X171207Y244575D01*
X171263Y244555D01*
X171316Y244532D01*
X171361Y244506D01*
X171404Y244479D01*
X171443Y244450D01*
X171480Y244420D01*
X171509Y244394D01*
X171532Y244368D01*
X171555Y244345D01*
X171571Y244329D01*
X171581Y244312D01*
X171588Y244302D01*
X171591Y244299D01*
Y244562D01*
X171870D01*
Y242735D01*
X171562D01*
Y243728D01*
X171558Y243791D01*
X171555Y243850D01*
X171548Y243902D01*
X171539Y243951D01*
X171529Y243994D01*
X171516Y244033D01*
X171502Y244066D01*
X171489Y244099D01*
X171476Y244125D01*
X171466Y244145D01*
X171453Y244165D01*
X171443Y244178D01*
X171434Y244191D01*
X171427Y244197D01*
X171421Y244204D01*
X171365Y244247D01*
X171306Y244279D01*
X171247Y244302D01*
X171194Y244316D01*
X171148Y244325D01*
X171109Y244329D01*
X171096Y244332D01*
X171076D01*
X171034Y244329D01*
X170991Y244322D01*
X170955Y244312D01*
X170925Y244302D01*
X170899Y244292D01*
X170879Y244283D01*
X170866Y244276D01*
X170863Y244273D01*
X170830Y244250D01*
X170804Y244227D01*
X170781Y244201D01*
X170765Y244178D01*
X170751Y244155D01*
X170742Y244138D01*
X170735Y244125D01*
Y244122D01*
X170722Y244083D01*
X170712Y244040D01*
X170705Y243994D01*
X170699Y243948D01*
Y243909D01*
X170696Y243873D01*
Y243860D01*
Y243853D01*
Y243846D01*
Y243843D01*
Y242735D01*
X170387D01*
Y243856D01*
Y243932D01*
X170391Y243994D01*
X170394Y244043D01*
X170397Y244086D01*
X170400Y244115D01*
X170404Y244138D01*
X170407Y244151D01*
Y244155D01*
X170420Y244204D01*
X170433Y244247D01*
X170450Y244286D01*
X170463Y244319D01*
X170479Y244348D01*
X170492Y244368D01*
X170499Y244381D01*
X170502Y244384D01*
X170532Y244417D01*
X170564Y244450D01*
X170597Y244476D01*
X170630Y244496D01*
X170663Y244516D01*
X170686Y244529D01*
X170702Y244535D01*
X170709Y244538D01*
X170761Y244558D01*
X170814Y244575D01*
X170866Y244584D01*
X170912Y244594D01*
X170955Y244598D01*
X170984Y244601D01*
X171014D01*
X171083Y244598D01*
D02*
G37*
G36*
X165562D02*
X165598Y244591D01*
X165635Y244581D01*
X165664Y244571D01*
X165687Y244558D01*
X165707Y244548D01*
X165720Y244542D01*
X165723Y244538D01*
X165756Y244509D01*
X165792Y244473D01*
X165825Y244430D01*
X165854Y244384D01*
X165877Y244345D01*
X165900Y244312D01*
X165907Y244299D01*
X165913Y244289D01*
X165917Y244283D01*
Y244562D01*
X166195D01*
Y242735D01*
X165887D01*
Y243686D01*
X165884Y243758D01*
X165881Y243827D01*
X165871Y243886D01*
X165861Y243942D01*
X165854Y243984D01*
X165845Y244017D01*
X165841Y244030D01*
Y244040D01*
X165838Y244043D01*
Y244046D01*
X165822Y244086D01*
X165805Y244119D01*
X165786Y244148D01*
X165766Y244171D01*
X165749Y244191D01*
X165736Y244207D01*
X165726Y244214D01*
X165723Y244217D01*
X165690Y244237D01*
X165661Y244253D01*
X165628Y244263D01*
X165602Y244273D01*
X165576Y244276D01*
X165556Y244279D01*
X165540D01*
X165497Y244276D01*
X165454Y244270D01*
X165415Y244260D01*
X165382Y244247D01*
X165352Y244233D01*
X165330Y244224D01*
X165316Y244217D01*
X165310Y244214D01*
X165202Y244499D01*
X165264Y244532D01*
X165320Y244558D01*
X165375Y244575D01*
X165425Y244588D01*
X165464Y244594D01*
X165497Y244601D01*
X165523D01*
X165562Y244598D01*
D02*
G37*
G36*
X169413Y244594D02*
X169459Y244588D01*
X169498Y244581D01*
X169535Y244575D01*
X169557Y244568D01*
X169574Y244565D01*
X169580Y244562D01*
X169623Y244548D01*
X169662Y244532D01*
X169699Y244519D01*
X169725Y244502D01*
X169748Y244493D01*
X169764Y244483D01*
X169774Y244476D01*
X169777Y244473D01*
X169810Y244447D01*
X169840Y244417D01*
X169866Y244388D01*
X169889Y244361D01*
X169905Y244335D01*
X169918Y244316D01*
X169925Y244302D01*
X169928Y244299D01*
X169948Y244260D01*
X169961Y244220D01*
X169971Y244181D01*
X169977Y244148D01*
X169981Y244115D01*
X169984Y244092D01*
Y244079D01*
Y244073D01*
X169981Y244024D01*
X169974Y243978D01*
X169964Y243935D01*
X169951Y243899D01*
X169938Y243869D01*
X169928Y243846D01*
X169922Y243833D01*
X169918Y243827D01*
X169889Y243787D01*
X169859Y243755D01*
X169823Y243725D01*
X169794Y243702D01*
X169764Y243682D01*
X169741Y243669D01*
X169725Y243659D01*
X169718Y243656D01*
X169692Y243643D01*
X169659Y243633D01*
X169626Y243620D01*
X169590Y243607D01*
X169512Y243581D01*
X169433Y243558D01*
X169361Y243538D01*
X169328Y243528D01*
X169302Y243522D01*
X169279Y243515D01*
X169262Y243509D01*
X169249Y243505D01*
X169246D01*
X169200Y243495D01*
X169161Y243482D01*
X169121Y243473D01*
X169088Y243463D01*
X169059Y243453D01*
X169033Y243446D01*
X169013Y243440D01*
X168993Y243430D01*
X168960Y243420D01*
X168941Y243410D01*
X168931Y243407D01*
X168928Y243404D01*
X168898Y243377D01*
X168875Y243351D01*
X168859Y243325D01*
X168846Y243299D01*
X168839Y243276D01*
X168836Y243256D01*
Y243243D01*
Y243240D01*
X168839Y243197D01*
X168852Y243158D01*
X168869Y243125D01*
X168888Y243095D01*
X168908Y243069D01*
X168924Y243053D01*
X168938Y243040D01*
X168941Y243036D01*
X168983Y243007D01*
X169036Y242987D01*
X169088Y242971D01*
X169138Y242961D01*
X169187Y242954D01*
X169223Y242951D01*
X169259D01*
X169334Y242954D01*
X169400Y242967D01*
X169456Y242981D01*
X169505Y243000D01*
X169541Y243017D01*
X169567Y243033D01*
X169584Y243043D01*
X169590Y243046D01*
X169630Y243086D01*
X169662Y243131D01*
X169685Y243177D01*
X169705Y243223D01*
X169718Y243266D01*
X169725Y243299D01*
X169728Y243312D01*
X169731Y243322D01*
Y243325D01*
Y243328D01*
X170036Y243279D01*
X170027Y243227D01*
X170013Y243177D01*
X169997Y243131D01*
X169977Y243089D01*
X169961Y243049D01*
X169941Y243013D01*
X169918Y242981D01*
X169899Y242951D01*
X169879Y242925D01*
X169862Y242902D01*
X169846Y242882D01*
X169830Y242866D01*
X169817Y242856D01*
X169807Y242846D01*
X169804Y242843D01*
X169800Y242840D01*
X169764Y242813D01*
X169721Y242794D01*
X169636Y242758D01*
X169544Y242731D01*
X169459Y242715D01*
X169416Y242708D01*
X169377Y242702D01*
X169344Y242698D01*
X169315D01*
X169289Y242695D01*
X169256D01*
X169177Y242698D01*
X169105Y242705D01*
X169039Y242718D01*
X168983Y242731D01*
X168938Y242744D01*
X168902Y242758D01*
X168888Y242761D01*
X168878Y242764D01*
X168875Y242767D01*
X168872D01*
X168813Y242797D01*
X168760Y242833D01*
X168714Y242866D01*
X168675Y242902D01*
X168649Y242931D01*
X168626Y242954D01*
X168613Y242971D01*
X168610Y242977D01*
X168580Y243030D01*
X168557Y243082D01*
X168541Y243131D01*
X168528Y243177D01*
X168521Y243217D01*
X168518Y243246D01*
Y243266D01*
Y243269D01*
Y243272D01*
X168521Y243328D01*
X168531Y243381D01*
X168541Y243423D01*
X168554Y243463D01*
X168570Y243492D01*
X168580Y243515D01*
X168590Y243532D01*
X168593Y243535D01*
X168623Y243574D01*
X168659Y243607D01*
X168692Y243633D01*
X168724Y243656D01*
X168754Y243676D01*
X168777Y243689D01*
X168793Y243696D01*
X168800Y243699D01*
X168826Y243709D01*
X168856Y243722D01*
X168924Y243745D01*
X169000Y243768D01*
X169075Y243791D01*
X169144Y243810D01*
X169177Y243817D01*
X169203Y243827D01*
X169223Y243833D01*
X169243Y243837D01*
X169252Y243840D01*
X169256D01*
X169295Y243850D01*
X169331Y243863D01*
X169364Y243869D01*
X169394Y243879D01*
X169420Y243886D01*
X169443Y243892D01*
X169479Y243902D01*
X169505Y243909D01*
X169521Y243915D01*
X169528Y243919D01*
X169531D01*
X169557Y243932D01*
X169584Y243945D01*
X169603Y243958D01*
X169620Y243971D01*
X169633Y243984D01*
X169643Y243994D01*
X169646Y243997D01*
X169649Y244001D01*
X169662Y244020D01*
X169669Y244040D01*
X169682Y244073D01*
Y244089D01*
X169685Y244099D01*
Y244106D01*
Y244109D01*
X169682Y244145D01*
X169672Y244174D01*
X169656Y244204D01*
X169640Y244227D01*
X169626Y244247D01*
X169610Y244260D01*
X169600Y244270D01*
X169597Y244273D01*
X169557Y244296D01*
X169512Y244316D01*
X169459Y244329D01*
X169410Y244335D01*
X169364Y244342D01*
X169328Y244345D01*
X169292D01*
X169226Y244342D01*
X169170Y244332D01*
X169121Y244319D01*
X169082Y244306D01*
X169049Y244289D01*
X169029Y244276D01*
X169013Y244266D01*
X169010Y244263D01*
X168977Y244230D01*
X168951Y244197D01*
X168928Y244161D01*
X168911Y244125D01*
X168902Y244096D01*
X168895Y244070D01*
X168888Y244053D01*
Y244046D01*
X168587Y244089D01*
X168600Y244151D01*
X168616Y244207D01*
X168632Y244253D01*
X168652Y244292D01*
X168669Y244325D01*
X168682Y244348D01*
X168692Y244365D01*
X168695Y244368D01*
X168728Y244407D01*
X168767Y244440D01*
X168806Y244470D01*
X168846Y244493D01*
X168882Y244512D01*
X168911Y244529D01*
X168931Y244535D01*
X168934Y244538D01*
X168938D01*
X169000Y244558D01*
X169062Y244575D01*
X169128Y244584D01*
X169184Y244594D01*
X169236Y244598D01*
X169256D01*
X169275Y244601D01*
X169364D01*
X169413Y244594D01*
D02*
G37*
G36*
X167475Y244598D02*
X167534Y244591D01*
X167589Y244581D01*
X167645Y244568D01*
X167694Y244555D01*
X167744Y244535D01*
X167786Y244519D01*
X167826Y244499D01*
X167862Y244479D01*
X167894Y244463D01*
X167921Y244443D01*
X167944Y244430D01*
X167963Y244417D01*
X167976Y244407D01*
X167983Y244401D01*
X167986Y244397D01*
X168036Y244348D01*
X168078Y244296D01*
X168114Y244237D01*
X168147Y244178D01*
X168173Y244115D01*
X168196Y244053D01*
X168216Y243991D01*
X168229Y243928D01*
X168242Y243873D01*
X168249Y243820D01*
X168255Y243771D01*
X168262Y243728D01*
Y243696D01*
X168265Y243669D01*
Y243653D01*
Y243646D01*
X168262Y243561D01*
X168255Y243482D01*
X168242Y243410D01*
X168229Y243341D01*
X168209Y243276D01*
X168190Y243220D01*
X168170Y243167D01*
X168147Y243118D01*
X168124Y243076D01*
X168104Y243040D01*
X168085Y243010D01*
X168065Y242984D01*
X168052Y242964D01*
X168039Y242951D01*
X168032Y242941D01*
X168029Y242938D01*
X167983Y242895D01*
X167934Y242859D01*
X167885Y242826D01*
X167832Y242797D01*
X167780Y242774D01*
X167730Y242754D01*
X167681Y242738D01*
X167632Y242725D01*
X167586Y242715D01*
X167544Y242708D01*
X167508Y242702D01*
X167475Y242698D01*
X167448D01*
X167429Y242695D01*
X167412D01*
X167324Y242698D01*
X167242Y242712D01*
X167166Y242731D01*
X167104Y242751D01*
X167048Y242771D01*
X167025Y242780D01*
X167009Y242790D01*
X166992Y242797D01*
X166983Y242803D01*
X166976Y242807D01*
X166973D01*
X166901Y242853D01*
X166838Y242902D01*
X166786Y242954D01*
X166743Y243004D01*
X166707Y243049D01*
X166684Y243086D01*
X166674Y243099D01*
X166668Y243108D01*
X166665Y243115D01*
Y243118D01*
X166645Y243158D01*
X166628Y243200D01*
X166602Y243292D01*
X166583Y243384D01*
X166569Y243473D01*
X166566Y243512D01*
X166563Y243551D01*
X166560Y243584D01*
X166556Y243614D01*
Y243640D01*
Y243656D01*
Y243669D01*
Y243673D01*
X166560Y243751D01*
X166566Y243827D01*
X166579Y243896D01*
X166592Y243961D01*
X166612Y244024D01*
X166632Y244079D01*
X166655Y244128D01*
X166674Y244174D01*
X166697Y244214D01*
X166720Y244250D01*
X166740Y244283D01*
X166760Y244306D01*
X166773Y244325D01*
X166786Y244342D01*
X166792Y244348D01*
X166796Y244352D01*
X166842Y244394D01*
X166891Y244434D01*
X166940Y244466D01*
X166992Y244496D01*
X167045Y244519D01*
X167097Y244538D01*
X167147Y244558D01*
X167193Y244571D01*
X167238Y244581D01*
X167281Y244588D01*
X167317Y244594D01*
X167350Y244598D01*
X167376Y244601D01*
X167412D01*
X167475Y244598D01*
D02*
G37*
G36*
X175360Y245296D02*
X175448Y245286D01*
X175527Y245270D01*
X175596Y245257D01*
X175626Y245247D01*
X175652Y245240D01*
X175675Y245231D01*
X175694Y245224D01*
X175711Y245221D01*
X175721Y245214D01*
X175727Y245211D01*
X175730D01*
X175803Y245175D01*
X175868Y245135D01*
X175921Y245093D01*
X175967Y245054D01*
X175999Y245017D01*
X176026Y244985D01*
X176039Y244965D01*
X176045Y244962D01*
Y244958D01*
X176081Y244896D01*
X176108Y244834D01*
X176127Y244775D01*
X176140Y244719D01*
X176147Y244670D01*
X176150Y244634D01*
X176154Y244620D01*
Y244611D01*
Y244604D01*
Y244601D01*
X176150Y244538D01*
X176140Y244479D01*
X176127Y244424D01*
X176111Y244378D01*
X176094Y244338D01*
X176081Y244312D01*
X176072Y244292D01*
X176068Y244289D01*
Y244286D01*
X176032Y244237D01*
X175990Y244191D01*
X175944Y244151D01*
X175901Y244119D01*
X175862Y244089D01*
X175829Y244070D01*
X175816Y244063D01*
X175806Y244056D01*
X175803Y244053D01*
X175799D01*
X175770Y244040D01*
X175737Y244024D01*
X175665Y243997D01*
X175583Y243968D01*
X175504Y243945D01*
X175429Y243922D01*
X175399Y243915D01*
X175370Y243905D01*
X175347Y243902D01*
X175330Y243896D01*
X175317Y243892D01*
X175314D01*
X175252Y243876D01*
X175196Y243863D01*
X175143Y243850D01*
X175097Y243840D01*
X175055Y243827D01*
X175019Y243817D01*
X174986Y243810D01*
X174960Y243800D01*
X174933Y243794D01*
X174914Y243787D01*
X174897Y243784D01*
X174884Y243778D01*
X174871Y243774D01*
X174864Y243771D01*
X174809Y243748D01*
X174763Y243722D01*
X174723Y243699D01*
X174691Y243676D01*
X174668Y243656D01*
X174651Y243640D01*
X174642Y243627D01*
X174638Y243623D01*
X174615Y243591D01*
X174596Y243554D01*
X174582Y243518D01*
X174576Y243486D01*
X174569Y243459D01*
X174566Y243436D01*
Y243423D01*
Y243417D01*
X174569Y243374D01*
X174576Y243335D01*
X174589Y243299D01*
X174602Y243266D01*
X174615Y243240D01*
X174628Y243217D01*
X174635Y243204D01*
X174638Y243200D01*
X174668Y243164D01*
X174704Y243135D01*
X174740Y243108D01*
X174776Y243086D01*
X174809Y243069D01*
X174835Y243056D01*
X174851Y243049D01*
X174855Y243046D01*
X174858D01*
X174914Y243026D01*
X174969Y243013D01*
X175029Y243004D01*
X175078Y242997D01*
X175124Y242994D01*
X175160Y242990D01*
X175192D01*
X175271Y242994D01*
X175343Y243000D01*
X175409Y243013D01*
X175465Y243026D01*
X175514Y243040D01*
X175534Y243046D01*
X175550Y243053D01*
X175563Y243056D01*
X175573Y243059D01*
X175576Y243062D01*
X175580D01*
X175639Y243092D01*
X175691Y243125D01*
X175734Y243158D01*
X175770Y243190D01*
X175796Y243217D01*
X175816Y243240D01*
X175829Y243253D01*
X175832Y243259D01*
X175858Y243308D01*
X175881Y243361D01*
X175901Y243413D01*
X175914Y243463D01*
X175924Y243509D01*
X175931Y243541D01*
Y243554D01*
X175934Y243564D01*
Y243571D01*
Y243574D01*
X176249Y243548D01*
X176242Y243456D01*
X176226Y243368D01*
X176203Y243292D01*
X176177Y243223D01*
X176163Y243194D01*
X176154Y243167D01*
X176140Y243148D01*
X176131Y243128D01*
X176124Y243112D01*
X176118Y243102D01*
X176111Y243095D01*
Y243092D01*
X176058Y243023D01*
X175999Y242961D01*
X175940Y242908D01*
X175881Y242866D01*
X175829Y242833D01*
X175806Y242820D01*
X175789Y242810D01*
X175773Y242800D01*
X175760Y242794D01*
X175753Y242790D01*
X175750D01*
X175658Y242758D01*
X175563Y242735D01*
X175465Y242715D01*
X175376Y242705D01*
X175334Y242702D01*
X175297Y242698D01*
X175261Y242695D01*
X175232D01*
X175209Y242692D01*
X175176D01*
X175078Y242695D01*
X174986Y242708D01*
X174904Y242725D01*
X174835Y242741D01*
X174802Y242751D01*
X174776Y242761D01*
X174753Y242767D01*
X174730Y242774D01*
X174717Y242780D01*
X174704Y242787D01*
X174697Y242790D01*
X174694D01*
X174618Y242830D01*
X174550Y242876D01*
X174494Y242921D01*
X174448Y242964D01*
X174412Y243004D01*
X174382Y243036D01*
X174376Y243049D01*
X174369Y243059D01*
X174363Y243062D01*
Y243066D01*
X174323Y243131D01*
X174294Y243200D01*
X174274Y243263D01*
X174258Y243322D01*
X174251Y243371D01*
X174248Y243390D01*
Y243410D01*
X174245Y243423D01*
Y243433D01*
Y243440D01*
Y243443D01*
X174248Y243518D01*
X174261Y243584D01*
X174277Y243646D01*
X174297Y243699D01*
X174320Y243741D01*
X174336Y243774D01*
X174343Y243784D01*
X174350Y243794D01*
X174353Y243797D01*
Y243800D01*
X174396Y243856D01*
X174448Y243909D01*
X174500Y243951D01*
X174553Y243991D01*
X174602Y244020D01*
X174642Y244040D01*
X174658Y244050D01*
X174668Y244056D01*
X174674Y244060D01*
X174678D01*
X174707Y244073D01*
X174743Y244086D01*
X174786Y244099D01*
X174828Y244115D01*
X174920Y244142D01*
X175012Y244165D01*
X175058Y244178D01*
X175097Y244188D01*
X175137Y244197D01*
X175170Y244204D01*
X175196Y244211D01*
X175219Y244217D01*
X175232Y244220D01*
X175235D01*
X175307Y244237D01*
X175373Y244253D01*
X175432Y244270D01*
X175484Y244286D01*
X175530Y244302D01*
X175570Y244316D01*
X175606Y244332D01*
X175639Y244345D01*
X175662Y244355D01*
X175684Y244365D01*
X175701Y244374D01*
X175714Y244384D01*
X175724Y244388D01*
X175730Y244394D01*
X175737Y244397D01*
X175770Y244434D01*
X175793Y244470D01*
X175809Y244506D01*
X175819Y244542D01*
X175826Y244575D01*
X175832Y244598D01*
Y244614D01*
Y244620D01*
X175826Y244676D01*
X175809Y244729D01*
X175789Y244775D01*
X175763Y244814D01*
X175737Y244847D01*
X175717Y244870D01*
X175701Y244883D01*
X175694Y244889D01*
X175668Y244909D01*
X175635Y244926D01*
X175566Y244955D01*
X175494Y244975D01*
X175422Y244988D01*
X175356Y244994D01*
X175330Y244998D01*
X175304Y245001D01*
X175202D01*
X175153Y244994D01*
X175107Y244991D01*
X175065Y244981D01*
X175025Y244971D01*
X174989Y244962D01*
X174956Y244952D01*
X174927Y244942D01*
X174904Y244929D01*
X174881Y244919D01*
X174861Y244909D01*
X174845Y244899D01*
X174835Y244889D01*
X174825Y244886D01*
X174819Y244880D01*
X174766Y244830D01*
X174727Y244771D01*
X174697Y244712D01*
X174674Y244657D01*
X174658Y244604D01*
X174651Y244581D01*
X174648Y244562D01*
X174645Y244545D01*
X174642Y244532D01*
Y244525D01*
Y244522D01*
X174320Y244545D01*
X174327Y244624D01*
X174343Y244699D01*
X174363Y244765D01*
X174386Y244824D01*
X174409Y244873D01*
X174418Y244893D01*
X174425Y244909D01*
X174435Y244922D01*
X174438Y244932D01*
X174445Y244935D01*
Y244939D01*
X174491Y245001D01*
X174546Y245057D01*
X174599Y245103D01*
X174655Y245139D01*
X174700Y245168D01*
X174740Y245191D01*
X174756Y245198D01*
X174766Y245204D01*
X174773Y245208D01*
X174776D01*
X174858Y245237D01*
X174943Y245260D01*
X175025Y245276D01*
X175101Y245290D01*
X175137Y245293D01*
X175170Y245296D01*
X175196D01*
X175222Y245300D01*
X175268D01*
X175360Y245296D01*
D02*
G37*
G36*
X124083Y243379D02*
X124082D01*
Y243386D01*
Y243387D01*
X124081Y243388D01*
Y243389D01*
X124077D01*
Y243388D01*
Y243387D01*
Y243386D01*
Y243379D01*
X124075D01*
Y243387D01*
Y243388D01*
Y243389D01*
Y243390D01*
Y243390D01*
X124079D01*
X124081Y243390D01*
X124082Y243389D01*
Y243390D01*
X124083D01*
Y243379D01*
D02*
G37*
G36*
X119557Y243390D02*
X119558D01*
X119559Y243388D01*
X119560Y243387D01*
X119558D01*
X119557Y243389D01*
X119554D01*
Y243387D01*
Y243386D01*
Y243384D01*
Y243383D01*
X119555Y243382D01*
X119556D01*
Y243383D01*
X119557D01*
X119558Y243384D01*
X119560D01*
X119559Y243383D01*
X119558Y243382D01*
X119557Y243379D01*
X119555D01*
X119554Y243380D01*
X119553Y243382D01*
X119552Y243383D01*
Y243385D01*
Y243386D01*
X119553Y243389D01*
Y243390D01*
X119555Y243390D01*
X119556D01*
X119557Y243390D01*
D02*
G37*
G36*
X117782Y243390D02*
X117786D01*
X117787Y243390D01*
X117788Y243389D01*
X117789Y243387D01*
Y243386D01*
Y243384D01*
X117788Y243383D01*
Y243382D01*
X117787Y243380D01*
X117785Y243379D01*
X117783D01*
X117782Y243380D01*
Y243379D01*
X117780D01*
Y243394D01*
X117782D01*
Y243390D01*
D02*
G37*
G36*
X121522Y243375D02*
X121520D01*
Y243390D01*
X121522D01*
Y243375D01*
D02*
G37*
G36*
X117776Y243389D02*
X117777Y243388D01*
X117778Y243385D01*
Y243384D01*
Y243380D01*
X117777Y243379D01*
X117775Y243377D01*
X117774Y243376D01*
X117772Y243375D01*
X117768D01*
X117767Y243376D01*
X117765Y243377D01*
Y243378D01*
X117764Y243382D01*
Y243383D01*
Y243384D01*
Y243387D01*
Y243388D01*
X117765Y243390D01*
X117766Y243390D01*
X117774D01*
X117776Y243389D01*
D02*
G37*
G36*
X126640Y243410D02*
X126679Y243404D01*
X126715Y243400D01*
X126748Y243394D01*
X126771Y243390D01*
X126787Y243387D01*
X126794D01*
X126751Y243115D01*
X126722Y243118D01*
X126695Y243122D01*
X126669D01*
X126649Y243125D01*
X126613D01*
X126567Y243122D01*
X126535Y243115D01*
X126522Y243112D01*
X126512Y243108D01*
X126508Y243105D01*
X126505D01*
X126482Y243085D01*
X126466Y243066D01*
X126456Y243053D01*
X126453Y243046D01*
X126449Y243026D01*
X126446Y243003D01*
X126443Y242974D01*
Y242944D01*
X126440Y242918D01*
Y242895D01*
Y242879D01*
Y242872D01*
Y241803D01*
X126751D01*
Y241564D01*
X126440D01*
Y240927D01*
X126131Y241114D01*
Y241564D01*
X125902D01*
Y241803D01*
X126131D01*
Y242856D01*
Y242905D01*
X126135Y242951D01*
Y242994D01*
X126138Y243030D01*
X126141Y243066D01*
X126144Y243095D01*
X126148Y243122D01*
X126151Y243144D01*
X126157Y243181D01*
X126161Y243203D01*
X126167Y243220D01*
Y243223D01*
X126184Y243253D01*
X126203Y243279D01*
X126226Y243305D01*
X126249Y243325D01*
X126269Y243341D01*
X126282Y243351D01*
X126295Y243358D01*
X126298Y243361D01*
X126335Y243377D01*
X126377Y243390D01*
X126420Y243400D01*
X126462Y243407D01*
X126499Y243410D01*
X126531Y243413D01*
X126558D01*
X126640Y243410D01*
D02*
G37*
G36*
X118584D02*
X118623Y243404D01*
X118659Y243400D01*
X118692Y243394D01*
X118715Y243390D01*
X118731Y243387D01*
X118738D01*
X118695Y243115D01*
X118666Y243118D01*
X118639Y243122D01*
X118613D01*
X118593Y243125D01*
X118557D01*
X118511Y243122D01*
X118479Y243115D01*
X118465Y243112D01*
X118456Y243108D01*
X118452Y243105D01*
X118449D01*
X118426Y243085D01*
X118410Y243066D01*
X118400Y243053D01*
X118396Y243046D01*
X118393Y243026D01*
X118390Y243003D01*
X118387Y242974D01*
Y242944D01*
X118383Y242918D01*
Y242895D01*
Y242879D01*
Y242872D01*
Y241803D01*
X118695D01*
Y241564D01*
X118383D01*
Y240927D01*
X118075Y241114D01*
Y241564D01*
X117845D01*
Y241803D01*
X118075D01*
Y242856D01*
Y242905D01*
X118078Y242951D01*
Y242994D01*
X118082Y243030D01*
X118085Y243066D01*
X118088Y243095D01*
X118091Y243122D01*
X118095Y243144D01*
X118101Y243181D01*
X118105Y243203D01*
X118111Y243220D01*
Y243223D01*
X118128Y243253D01*
X118147Y243279D01*
X118170Y243305D01*
X118193Y243325D01*
X118213Y243341D01*
X118226Y243351D01*
X118239Y243358D01*
X118242Y243361D01*
X118278Y243377D01*
X118321Y243390D01*
X118364Y243400D01*
X118406Y243407D01*
X118442Y243410D01*
X118475Y243413D01*
X118501D01*
X118584Y243410D01*
D02*
G37*
G36*
X130234Y243427D02*
X130290Y243423D01*
X130391Y243407D01*
X130437Y243394D01*
X130480Y243381D01*
X130519Y243368D01*
X130555Y243351D01*
X130588Y243338D01*
X130614Y243325D01*
X130641Y243312D01*
X130660Y243299D01*
X130677Y243289D01*
X130687Y243282D01*
X130693Y243276D01*
X130696D01*
X130765Y243213D01*
X130824Y243141D01*
X130874Y243069D01*
X130913Y243000D01*
X130939Y242938D01*
X130952Y242908D01*
X130959Y242885D01*
X130969Y242866D01*
X130972Y242853D01*
X130975Y242843D01*
Y242839D01*
X130654Y242797D01*
X130628Y242866D01*
X130595Y242925D01*
X130562Y242977D01*
X130532Y243017D01*
X130506Y243046D01*
X130483Y243069D01*
X130470Y243082D01*
X130464Y243085D01*
X130418Y243115D01*
X130368Y243138D01*
X130319Y243151D01*
X130277Y243164D01*
X130234Y243171D01*
X130204Y243174D01*
X130175D01*
X130132Y243171D01*
X130093Y243167D01*
X130017Y243148D01*
X129952Y243125D01*
X129896Y243095D01*
X129853Y243066D01*
X129817Y243039D01*
X129807Y243030D01*
X129798Y243023D01*
X129794Y243020D01*
X129791Y243017D01*
X129765Y242984D01*
X129742Y242951D01*
X129703Y242879D01*
X129673Y242803D01*
X129650Y242728D01*
X129637Y242662D01*
X129634Y242633D01*
X129630Y242607D01*
X129627Y242587D01*
X129624Y242570D01*
Y242561D01*
Y242557D01*
X130985D01*
X130988Y242521D01*
Y242495D01*
Y242482D01*
Y242475D01*
X130985Y242393D01*
X130979Y242315D01*
X130965Y242243D01*
X130952Y242174D01*
X130936Y242111D01*
X130916Y242056D01*
X130893Y242003D01*
X130874Y241954D01*
X130851Y241911D01*
X130828Y241875D01*
X130808Y241846D01*
X130792Y241819D01*
X130778Y241800D01*
X130765Y241787D01*
X130759Y241777D01*
X130755Y241773D01*
X130710Y241731D01*
X130664Y241691D01*
X130614Y241659D01*
X130562Y241629D01*
X130513Y241606D01*
X130464Y241586D01*
X130414Y241567D01*
X130368Y241554D01*
X130326Y241544D01*
X130283Y241537D01*
X130247Y241531D01*
X130218Y241527D01*
X130191Y241524D01*
X130155D01*
X130086Y241527D01*
X130021Y241534D01*
X129958Y241547D01*
X129899Y241564D01*
X129847Y241583D01*
X129794Y241606D01*
X129748Y241629D01*
X129706Y241652D01*
X129670Y241675D01*
X129637Y241698D01*
X129607Y241721D01*
X129585Y241741D01*
X129565Y241757D01*
X129552Y241770D01*
X129545Y241777D01*
X129542Y241780D01*
X129499Y241829D01*
X129463Y241882D01*
X129434Y241941D01*
X129404Y242000D01*
X129381Y242059D01*
X129365Y242118D01*
X129348Y242177D01*
X129335Y242233D01*
X129325Y242285D01*
X129319Y242334D01*
X129312Y242380D01*
X129309Y242420D01*
Y242449D01*
X129306Y242475D01*
Y242489D01*
Y242495D01*
X129309Y242577D01*
X129316Y242653D01*
X129329Y242721D01*
X129342Y242790D01*
X129358Y242849D01*
X129378Y242908D01*
X129401Y242957D01*
X129424Y243007D01*
X129444Y243046D01*
X129466Y243082D01*
X129486Y243112D01*
X129502Y243138D01*
X129516Y243158D01*
X129529Y243171D01*
X129535Y243181D01*
X129539Y243184D01*
X129585Y243227D01*
X129634Y243266D01*
X129686Y243299D01*
X129739Y243325D01*
X129791Y243351D01*
X129844Y243371D01*
X129896Y243387D01*
X129945Y243400D01*
X129991Y243410D01*
X130037Y243417D01*
X130077Y243423D01*
X130109Y243427D01*
X130136D01*
X130158Y243430D01*
X130175D01*
X130234Y243427D01*
D02*
G37*
G36*
X132851Y242269D02*
Y242193D01*
X132848Y242131D01*
X132845Y242082D01*
X132842Y242039D01*
X132838Y242010D01*
X132835Y241987D01*
X132832Y241973D01*
Y241970D01*
X132819Y241921D01*
X132806Y241878D01*
X132789Y241839D01*
X132776Y241806D01*
X132759Y241777D01*
X132746Y241757D01*
X132740Y241744D01*
X132737Y241741D01*
X132707Y241708D01*
X132674Y241675D01*
X132641Y241649D01*
X132609Y241629D01*
X132576Y241609D01*
X132553Y241596D01*
X132536Y241590D01*
X132530Y241586D01*
X132477Y241567D01*
X132425Y241550D01*
X132372Y241541D01*
X132327Y241531D01*
X132284Y241527D01*
X132254Y241524D01*
X132225D01*
X132156Y241527D01*
X132090Y241537D01*
X132031Y241550D01*
X131976Y241570D01*
X131923Y241593D01*
X131877Y241619D01*
X131835Y241646D01*
X131795Y241675D01*
X131759Y241705D01*
X131730Y241731D01*
X131707Y241757D01*
X131684Y241780D01*
X131667Y241796D01*
X131658Y241813D01*
X131651Y241823D01*
X131648Y241826D01*
Y241564D01*
X131369D01*
Y243390D01*
X131677D01*
Y242397D01*
X131680Y242334D01*
X131684Y242275D01*
X131690Y242223D01*
X131700Y242174D01*
X131710Y242131D01*
X131723Y242092D01*
X131736Y242059D01*
X131749Y242026D01*
X131762Y242000D01*
X131772Y241980D01*
X131785Y241960D01*
X131795Y241947D01*
X131805Y241934D01*
X131812Y241928D01*
X131818Y241921D01*
X131874Y241878D01*
X131933Y241846D01*
X131992Y241823D01*
X132044Y241810D01*
X132090Y241800D01*
X132130Y241796D01*
X132143Y241793D01*
X132163D01*
X132205Y241796D01*
X132248Y241803D01*
X132284Y241813D01*
X132314Y241823D01*
X132340Y241832D01*
X132359Y241842D01*
X132372Y241849D01*
X132376Y241852D01*
X132409Y241875D01*
X132435Y241898D01*
X132458Y241924D01*
X132474Y241947D01*
X132487Y241970D01*
X132497Y241987D01*
X132504Y242000D01*
Y242003D01*
X132517Y242042D01*
X132527Y242085D01*
X132533Y242131D01*
X132540Y242177D01*
Y242216D01*
X132543Y242252D01*
Y242265D01*
Y242272D01*
Y242279D01*
Y242282D01*
Y243390D01*
X132851D01*
Y242269D01*
D02*
G37*
G36*
X120378Y243427D02*
X120440Y243420D01*
X120499Y243410D01*
X120548Y243400D01*
X120591Y243390D01*
X120624Y243381D01*
X120634Y243377D01*
X120643Y243374D01*
X120647Y243371D01*
X120650D01*
X120709Y243345D01*
X120771Y243312D01*
X120827Y243276D01*
X120876Y243243D01*
X120922Y243210D01*
X120955Y243184D01*
X120968Y243174D01*
X120978Y243167D01*
X120981Y243161D01*
X120985D01*
X120991Y243210D01*
X121001Y243253D01*
X121008Y243292D01*
X121021Y243325D01*
X121027Y243354D01*
X121037Y243374D01*
X121040Y243387D01*
X121044Y243390D01*
X121368D01*
X121349Y243351D01*
X121332Y243312D01*
X121319Y243276D01*
X121306Y243240D01*
X121300Y243213D01*
X121293Y243190D01*
X121290Y243177D01*
Y243171D01*
X121286Y243144D01*
X121283Y243115D01*
Y243079D01*
X121280Y243036D01*
X121276Y242948D01*
Y242856D01*
X121273Y242810D01*
Y242767D01*
Y242728D01*
Y242695D01*
Y242666D01*
Y242646D01*
Y242630D01*
Y242626D01*
Y242213D01*
Y242141D01*
X121270Y242082D01*
X121267Y242033D01*
Y241993D01*
X121263Y241964D01*
X121260Y241944D01*
X121257Y241931D01*
Y241928D01*
X121244Y241882D01*
X121231Y241842D01*
X121214Y241806D01*
X121198Y241777D01*
X121181Y241754D01*
X121168Y241734D01*
X121162Y241724D01*
X121158Y241721D01*
X121129Y241691D01*
X121096Y241662D01*
X121060Y241639D01*
X121024Y241619D01*
X120991Y241603D01*
X120965Y241590D01*
X120949Y241583D01*
X120945Y241580D01*
X120942D01*
X120883Y241560D01*
X120824Y241547D01*
X120758Y241537D01*
X120699Y241531D01*
X120647Y241527D01*
X120624Y241524D01*
X120565D01*
X120480Y241527D01*
X120401Y241534D01*
X120329Y241544D01*
X120270Y241557D01*
X120217Y241570D01*
X120197Y241573D01*
X120181Y241580D01*
X120168Y241583D01*
X120158Y241586D01*
X120151Y241590D01*
X120148D01*
X120086Y241616D01*
X120030Y241646D01*
X119984Y241675D01*
X119945Y241705D01*
X119915Y241734D01*
X119892Y241754D01*
X119879Y241767D01*
X119876Y241773D01*
X119843Y241819D01*
X119814Y241872D01*
X119791Y241924D01*
X119774Y241973D01*
X119758Y242016D01*
X119748Y242052D01*
X119745Y242065D01*
Y242075D01*
X119741Y242082D01*
Y242085D01*
X120043Y242128D01*
X120063Y242062D01*
X120089Y242003D01*
X120112Y241957D01*
X120138Y241921D01*
X120158Y241892D01*
X120178Y241872D01*
X120191Y241862D01*
X120194Y241859D01*
X120237Y241832D01*
X120289Y241813D01*
X120342Y241800D01*
X120397Y241790D01*
X120443Y241783D01*
X120483Y241780D01*
X120519D01*
X120601Y241783D01*
X120673Y241796D01*
X120732Y241813D01*
X120784Y241832D01*
X120824Y241852D01*
X120850Y241869D01*
X120867Y241882D01*
X120873Y241885D01*
X120903Y241918D01*
X120925Y241960D01*
X120939Y242003D01*
X120952Y242049D01*
X120958Y242088D01*
X120962Y242124D01*
Y242134D01*
Y242144D01*
Y242151D01*
Y242154D01*
Y242161D01*
Y242174D01*
Y242200D01*
X120958Y242213D01*
Y242223D01*
Y242229D01*
Y242233D01*
X120922Y242243D01*
X120883Y242256D01*
X120798Y242275D01*
X120706Y242295D01*
X120617Y242311D01*
X120575Y242318D01*
X120535Y242324D01*
X120499Y242328D01*
X120470Y242331D01*
X120443Y242338D01*
X120424D01*
X120411Y242341D01*
X120407D01*
X120342Y242351D01*
X120286Y242357D01*
X120240Y242364D01*
X120201Y242374D01*
X120171Y242377D01*
X120148Y242384D01*
X120135Y242387D01*
X120132D01*
X120086Y242400D01*
X120043Y242416D01*
X120007Y242433D01*
X119974Y242449D01*
X119948Y242465D01*
X119925Y242479D01*
X119912Y242485D01*
X119909Y242489D01*
X119873Y242515D01*
X119843Y242544D01*
X119814Y242574D01*
X119791Y242600D01*
X119774Y242626D01*
X119758Y242646D01*
X119751Y242659D01*
X119748Y242666D01*
X119728Y242708D01*
X119715Y242751D01*
X119702Y242793D01*
X119696Y242830D01*
X119692Y242862D01*
X119689Y242889D01*
Y242905D01*
Y242912D01*
X119692Y242954D01*
X119696Y242994D01*
X119715Y243066D01*
X119741Y243128D01*
X119771Y243184D01*
X119800Y243227D01*
X119824Y243259D01*
X119843Y243279D01*
X119846Y243282D01*
X119850Y243285D01*
X119883Y243312D01*
X119915Y243331D01*
X119991Y243368D01*
X120066Y243394D01*
X120142Y243410D01*
X120207Y243423D01*
X120237Y243427D01*
X120263D01*
X120283Y243430D01*
X120312D01*
X120378Y243427D01*
D02*
G37*
G36*
X119308Y241564D02*
X119000D01*
Y243390D01*
X119308D01*
Y241564D01*
D02*
G37*
G36*
X137352Y242439D02*
X137355Y242367D01*
X137358Y242298D01*
X137368Y242239D01*
X137378Y242183D01*
X137384Y242141D01*
X137394Y242108D01*
X137398Y242095D01*
Y242085D01*
X137401Y242082D01*
Y242078D01*
X137417Y242039D01*
X137434Y242006D01*
X137453Y241977D01*
X137473Y241954D01*
X137489Y241934D01*
X137502Y241918D01*
X137512Y241911D01*
X137516Y241908D01*
X137548Y241888D01*
X137578Y241872D01*
X137611Y241862D01*
X137637Y241852D01*
X137663Y241849D01*
X137683Y241846D01*
X137699D01*
X137742Y241849D01*
X137785Y241855D01*
X137824Y241865D01*
X137857Y241878D01*
X137886Y241892D01*
X137909Y241901D01*
X137922Y241908D01*
X137929Y241911D01*
X138037Y241626D01*
X137975Y241593D01*
X137919Y241567D01*
X137863Y241550D01*
X137814Y241537D01*
X137775Y241531D01*
X137742Y241524D01*
X137716D01*
X137676Y241527D01*
X137640Y241534D01*
X137604Y241544D01*
X137575Y241554D01*
X137552Y241567D01*
X137532Y241577D01*
X137519Y241583D01*
X137516Y241586D01*
X137483Y241616D01*
X137447Y241652D01*
X137414Y241695D01*
X137384Y241741D01*
X137361Y241780D01*
X137338Y241813D01*
X137332Y241826D01*
X137325Y241836D01*
X137322Y241842D01*
Y241564D01*
X137043D01*
Y243390D01*
X137352D01*
Y242439D01*
D02*
G37*
G36*
X135915Y243427D02*
X135997Y243413D01*
X136072Y243394D01*
X136135Y243374D01*
X136190Y243354D01*
X136213Y243345D01*
X136230Y243335D01*
X136246Y243328D01*
X136256Y243322D01*
X136263Y243318D01*
X136266D01*
X136338Y243272D01*
X136400Y243223D01*
X136453Y243171D01*
X136495Y243122D01*
X136531Y243076D01*
X136555Y243039D01*
X136564Y243026D01*
X136571Y243017D01*
X136574Y243010D01*
Y243007D01*
X136594Y242967D01*
X136610Y242925D01*
X136636Y242833D01*
X136656Y242741D01*
X136669Y242653D01*
X136673Y242613D01*
X136676Y242574D01*
X136679Y242541D01*
X136682Y242511D01*
Y242485D01*
Y242469D01*
Y242456D01*
Y242452D01*
X136679Y242374D01*
X136673Y242298D01*
X136660Y242229D01*
X136646Y242164D01*
X136627Y242101D01*
X136607Y242046D01*
X136584Y241997D01*
X136564Y241951D01*
X136541Y241911D01*
X136518Y241875D01*
X136499Y241842D01*
X136479Y241819D01*
X136466Y241800D01*
X136453Y241783D01*
X136446Y241777D01*
X136443Y241773D01*
X136397Y241731D01*
X136348Y241691D01*
X136299Y241659D01*
X136246Y241629D01*
X136194Y241606D01*
X136141Y241586D01*
X136092Y241567D01*
X136046Y241554D01*
X136000Y241544D01*
X135958Y241537D01*
X135922Y241531D01*
X135889Y241527D01*
X135862Y241524D01*
X135826D01*
X135764Y241527D01*
X135705Y241534D01*
X135649Y241544D01*
X135593Y241557D01*
X135544Y241570D01*
X135495Y241590D01*
X135452Y241606D01*
X135413Y241626D01*
X135377Y241646D01*
X135344Y241662D01*
X135318Y241682D01*
X135295Y241695D01*
X135275Y241708D01*
X135262Y241718D01*
X135256Y241724D01*
X135252Y241727D01*
X135203Y241777D01*
X135161Y241829D01*
X135124Y241888D01*
X135092Y241947D01*
X135065Y242010D01*
X135042Y242072D01*
X135023Y242134D01*
X135010Y242197D01*
X134996Y242252D01*
X134990Y242305D01*
X134983Y242354D01*
X134977Y242397D01*
Y242429D01*
X134974Y242456D01*
Y242472D01*
Y242479D01*
X134977Y242564D01*
X134983Y242643D01*
X134996Y242715D01*
X135010Y242784D01*
X135029Y242849D01*
X135049Y242905D01*
X135069Y242957D01*
X135092Y243007D01*
X135115Y243049D01*
X135134Y243085D01*
X135154Y243115D01*
X135174Y243141D01*
X135187Y243161D01*
X135200Y243174D01*
X135206Y243184D01*
X135210Y243187D01*
X135256Y243230D01*
X135305Y243266D01*
X135354Y243299D01*
X135406Y243328D01*
X135459Y243351D01*
X135508Y243371D01*
X135557Y243387D01*
X135607Y243400D01*
X135652Y243410D01*
X135695Y243417D01*
X135731Y243423D01*
X135764Y243427D01*
X135790D01*
X135810Y243430D01*
X135826D01*
X135915Y243427D01*
D02*
G37*
G36*
X134062D02*
X134134Y243420D01*
X134200Y243407D01*
X134255Y243394D01*
X134301Y243381D01*
X134337Y243368D01*
X134350Y243364D01*
X134360Y243361D01*
X134363Y243358D01*
X134367D01*
X134426Y243328D01*
X134478Y243292D01*
X134524Y243259D01*
X134564Y243223D01*
X134590Y243194D01*
X134613Y243171D01*
X134626Y243154D01*
X134629Y243148D01*
X134659Y243095D01*
X134682Y243043D01*
X134698Y242994D01*
X134711Y242948D01*
X134718Y242908D01*
X134721Y242879D01*
Y242859D01*
Y242856D01*
Y242853D01*
X134718Y242797D01*
X134708Y242744D01*
X134698Y242702D01*
X134685Y242662D01*
X134669Y242633D01*
X134659Y242610D01*
X134649Y242593D01*
X134646Y242590D01*
X134616Y242551D01*
X134580Y242518D01*
X134547Y242492D01*
X134514Y242469D01*
X134485Y242449D01*
X134462Y242436D01*
X134446Y242429D01*
X134439Y242426D01*
X134413Y242416D01*
X134383Y242403D01*
X134314Y242380D01*
X134239Y242357D01*
X134163Y242334D01*
X134095Y242315D01*
X134062Y242308D01*
X134036Y242298D01*
X134016Y242292D01*
X133996Y242288D01*
X133986Y242285D01*
X133983D01*
X133944Y242275D01*
X133907Y242262D01*
X133875Y242256D01*
X133845Y242246D01*
X133819Y242239D01*
X133796Y242233D01*
X133760Y242223D01*
X133734Y242216D01*
X133717Y242210D01*
X133711Y242206D01*
X133707D01*
X133681Y242193D01*
X133655Y242180D01*
X133635Y242167D01*
X133619Y242154D01*
X133606Y242141D01*
X133596Y242131D01*
X133593Y242128D01*
X133589Y242124D01*
X133576Y242105D01*
X133570Y242085D01*
X133557Y242052D01*
Y242036D01*
X133553Y242026D01*
Y242019D01*
Y242016D01*
X133557Y241980D01*
X133566Y241951D01*
X133583Y241921D01*
X133599Y241898D01*
X133612Y241878D01*
X133629Y241865D01*
X133639Y241855D01*
X133642Y241852D01*
X133681Y241829D01*
X133727Y241810D01*
X133780Y241796D01*
X133829Y241790D01*
X133875Y241783D01*
X133911Y241780D01*
X133947D01*
X134012Y241783D01*
X134068Y241793D01*
X134117Y241806D01*
X134157Y241819D01*
X134190Y241836D01*
X134209Y241849D01*
X134226Y241859D01*
X134229Y241862D01*
X134262Y241895D01*
X134288Y241928D01*
X134311Y241964D01*
X134327Y242000D01*
X134337Y242029D01*
X134344Y242056D01*
X134350Y242072D01*
Y242078D01*
X134652Y242036D01*
X134639Y241973D01*
X134623Y241918D01*
X134606Y241872D01*
X134587Y241832D01*
X134570Y241800D01*
X134557Y241777D01*
X134547Y241760D01*
X134544Y241757D01*
X134511Y241718D01*
X134472Y241685D01*
X134432Y241655D01*
X134393Y241632D01*
X134357Y241613D01*
X134327Y241596D01*
X134308Y241590D01*
X134304Y241586D01*
X134301D01*
X134239Y241567D01*
X134177Y241550D01*
X134111Y241541D01*
X134055Y241531D01*
X134003Y241527D01*
X133983D01*
X133963Y241524D01*
X133875D01*
X133826Y241531D01*
X133780Y241537D01*
X133740Y241544D01*
X133704Y241550D01*
X133681Y241557D01*
X133665Y241560D01*
X133658Y241564D01*
X133616Y241577D01*
X133576Y241593D01*
X133540Y241606D01*
X133514Y241623D01*
X133491Y241632D01*
X133475Y241642D01*
X133465Y241649D01*
X133461Y241652D01*
X133429Y241678D01*
X133399Y241708D01*
X133373Y241737D01*
X133350Y241764D01*
X133334Y241790D01*
X133320Y241810D01*
X133314Y241823D01*
X133311Y241826D01*
X133291Y241865D01*
X133278Y241905D01*
X133268Y241944D01*
X133261Y241977D01*
X133258Y242010D01*
X133255Y242033D01*
Y242046D01*
Y242052D01*
X133258Y242101D01*
X133265Y242147D01*
X133274Y242190D01*
X133288Y242226D01*
X133301Y242256D01*
X133311Y242279D01*
X133317Y242292D01*
X133320Y242298D01*
X133350Y242338D01*
X133379Y242370D01*
X133416Y242400D01*
X133445Y242423D01*
X133475Y242443D01*
X133498Y242456D01*
X133514Y242465D01*
X133520Y242469D01*
X133547Y242482D01*
X133580Y242492D01*
X133612Y242505D01*
X133648Y242518D01*
X133727Y242544D01*
X133806Y242567D01*
X133878Y242587D01*
X133911Y242597D01*
X133937Y242603D01*
X133960Y242610D01*
X133976Y242616D01*
X133990Y242620D01*
X133993D01*
X134039Y242630D01*
X134078Y242643D01*
X134117Y242653D01*
X134150Y242662D01*
X134180Y242672D01*
X134206Y242679D01*
X134226Y242685D01*
X134245Y242695D01*
X134278Y242705D01*
X134298Y242715D01*
X134308Y242718D01*
X134311Y242721D01*
X134341Y242748D01*
X134363Y242774D01*
X134380Y242800D01*
X134393Y242826D01*
X134399Y242849D01*
X134403Y242869D01*
Y242882D01*
Y242885D01*
X134399Y242928D01*
X134386Y242967D01*
X134370Y243000D01*
X134350Y243030D01*
X134331Y243056D01*
X134314Y243072D01*
X134301Y243085D01*
X134298Y243089D01*
X134255Y243118D01*
X134203Y243138D01*
X134150Y243154D01*
X134101Y243164D01*
X134052Y243171D01*
X134016Y243174D01*
X133980D01*
X133904Y243171D01*
X133839Y243158D01*
X133783Y243144D01*
X133734Y243125D01*
X133698Y243108D01*
X133671Y243092D01*
X133655Y243082D01*
X133648Y243079D01*
X133609Y243039D01*
X133576Y242994D01*
X133553Y242948D01*
X133534Y242902D01*
X133520Y242859D01*
X133514Y242826D01*
X133511Y242813D01*
X133507Y242803D01*
Y242800D01*
Y242797D01*
X133202Y242846D01*
X133212Y242899D01*
X133225Y242948D01*
X133242Y242994D01*
X133261Y243036D01*
X133278Y243076D01*
X133298Y243112D01*
X133320Y243144D01*
X133340Y243174D01*
X133360Y243200D01*
X133376Y243223D01*
X133393Y243243D01*
X133409Y243259D01*
X133422Y243269D01*
X133432Y243279D01*
X133435Y243282D01*
X133439Y243285D01*
X133475Y243312D01*
X133517Y243331D01*
X133602Y243368D01*
X133694Y243394D01*
X133780Y243410D01*
X133822Y243417D01*
X133862Y243423D01*
X133894Y243427D01*
X133924D01*
X133950Y243430D01*
X133983D01*
X134062Y243427D01*
D02*
G37*
G36*
X125052D02*
X125124Y243420D01*
X125190Y243407D01*
X125246Y243394D01*
X125292Y243381D01*
X125328Y243368D01*
X125341Y243364D01*
X125351Y243361D01*
X125354Y243358D01*
X125357D01*
X125416Y243328D01*
X125469Y243292D01*
X125515Y243259D01*
X125554Y243223D01*
X125580Y243194D01*
X125603Y243171D01*
X125616Y243154D01*
X125620Y243148D01*
X125649Y243095D01*
X125672Y243043D01*
X125688Y242994D01*
X125701Y242948D01*
X125708Y242908D01*
X125711Y242879D01*
Y242859D01*
Y242856D01*
Y242853D01*
X125708Y242797D01*
X125698Y242744D01*
X125688Y242702D01*
X125675Y242662D01*
X125659Y242633D01*
X125649Y242610D01*
X125639Y242593D01*
X125636Y242590D01*
X125606Y242551D01*
X125570Y242518D01*
X125538Y242492D01*
X125505Y242469D01*
X125475Y242449D01*
X125452Y242436D01*
X125436Y242429D01*
X125429Y242426D01*
X125403Y242416D01*
X125374Y242403D01*
X125305Y242380D01*
X125229Y242357D01*
X125154Y242334D01*
X125085Y242315D01*
X125052Y242308D01*
X125026Y242298D01*
X125006Y242292D01*
X124987Y242288D01*
X124977Y242285D01*
X124973D01*
X124934Y242275D01*
X124898Y242262D01*
X124865Y242256D01*
X124836Y242246D01*
X124809Y242239D01*
X124786Y242233D01*
X124750Y242223D01*
X124724Y242216D01*
X124708Y242210D01*
X124701Y242206D01*
X124698D01*
X124672Y242193D01*
X124645Y242180D01*
X124626Y242167D01*
X124609Y242154D01*
X124596Y242141D01*
X124586Y242131D01*
X124583Y242128D01*
X124580Y242124D01*
X124567Y242105D01*
X124560Y242085D01*
X124547Y242052D01*
Y242036D01*
X124544Y242026D01*
Y242019D01*
Y242016D01*
X124547Y241980D01*
X124557Y241951D01*
X124573Y241921D01*
X124590Y241898D01*
X124603Y241878D01*
X124619Y241865D01*
X124629Y241855D01*
X124632Y241852D01*
X124672Y241829D01*
X124718Y241810D01*
X124770Y241796D01*
X124819Y241790D01*
X124865Y241783D01*
X124901Y241780D01*
X124937D01*
X125003Y241783D01*
X125059Y241793D01*
X125108Y241806D01*
X125147Y241819D01*
X125180Y241836D01*
X125200Y241849D01*
X125216Y241859D01*
X125219Y241862D01*
X125252Y241895D01*
X125278Y241928D01*
X125301Y241964D01*
X125318Y242000D01*
X125328Y242029D01*
X125334Y242056D01*
X125341Y242072D01*
Y242078D01*
X125643Y242036D01*
X125629Y241973D01*
X125613Y241918D01*
X125597Y241872D01*
X125577Y241832D01*
X125560Y241800D01*
X125547Y241777D01*
X125538Y241760D01*
X125534Y241757D01*
X125502Y241718D01*
X125462Y241685D01*
X125423Y241655D01*
X125383Y241632D01*
X125347Y241613D01*
X125318Y241596D01*
X125298Y241590D01*
X125295Y241586D01*
X125292D01*
X125229Y241567D01*
X125167Y241550D01*
X125101Y241541D01*
X125046Y241531D01*
X124993Y241527D01*
X124973D01*
X124954Y241524D01*
X124865D01*
X124816Y241531D01*
X124770Y241537D01*
X124731Y241544D01*
X124695Y241550D01*
X124672Y241557D01*
X124655Y241560D01*
X124649Y241564D01*
X124606Y241577D01*
X124567Y241593D01*
X124531Y241606D01*
X124504Y241623D01*
X124481Y241632D01*
X124465Y241642D01*
X124455Y241649D01*
X124452Y241652D01*
X124419Y241678D01*
X124390Y241708D01*
X124363Y241737D01*
X124340Y241764D01*
X124324Y241790D01*
X124311Y241810D01*
X124304Y241823D01*
X124301Y241826D01*
X124281Y241865D01*
X124268Y241905D01*
X124258Y241944D01*
X124252Y241977D01*
X124249Y242010D01*
X124245Y242033D01*
Y242046D01*
Y242052D01*
X124249Y242101D01*
X124255Y242147D01*
X124265Y242190D01*
X124278Y242226D01*
X124291Y242256D01*
X124301Y242279D01*
X124308Y242292D01*
X124311Y242298D01*
X124340Y242338D01*
X124370Y242370D01*
X124406Y242400D01*
X124435Y242423D01*
X124465Y242443D01*
X124488Y242456D01*
X124504Y242465D01*
X124511Y242469D01*
X124537Y242482D01*
X124570Y242492D01*
X124603Y242505D01*
X124639Y242518D01*
X124718Y242544D01*
X124796Y242567D01*
X124868Y242587D01*
X124901Y242597D01*
X124927Y242603D01*
X124950Y242610D01*
X124967Y242616D01*
X124980Y242620D01*
X124983D01*
X125029Y242630D01*
X125068Y242643D01*
X125108Y242653D01*
X125141Y242662D01*
X125170Y242672D01*
X125196Y242679D01*
X125216Y242685D01*
X125236Y242695D01*
X125269Y242705D01*
X125288Y242715D01*
X125298Y242718D01*
X125301Y242721D01*
X125331Y242748D01*
X125354Y242774D01*
X125370Y242800D01*
X125383Y242826D01*
X125390Y242849D01*
X125393Y242869D01*
Y242882D01*
Y242885D01*
X125390Y242928D01*
X125377Y242967D01*
X125360Y243000D01*
X125341Y243030D01*
X125321Y243056D01*
X125305Y243072D01*
X125292Y243085D01*
X125288Y243089D01*
X125246Y243118D01*
X125193Y243138D01*
X125141Y243154D01*
X125092Y243164D01*
X125042Y243171D01*
X125006Y243174D01*
X124970D01*
X124895Y243171D01*
X124829Y243158D01*
X124773Y243144D01*
X124724Y243125D01*
X124688Y243108D01*
X124662Y243092D01*
X124645Y243082D01*
X124639Y243079D01*
X124600Y243039D01*
X124567Y242994D01*
X124544Y242948D01*
X124524Y242902D01*
X124511Y242859D01*
X124504Y242826D01*
X124501Y242813D01*
X124498Y242803D01*
Y242800D01*
Y242797D01*
X124193Y242846D01*
X124203Y242899D01*
X124216Y242948D01*
X124232Y242994D01*
X124252Y243036D01*
X124268Y243076D01*
X124288Y243112D01*
X124311Y243144D01*
X124330Y243174D01*
X124350Y243200D01*
X124367Y243223D01*
X124383Y243243D01*
X124399Y243259D01*
X124413Y243269D01*
X124422Y243279D01*
X124426Y243282D01*
X124429Y243285D01*
X124465Y243312D01*
X124508Y243331D01*
X124593Y243368D01*
X124685Y243394D01*
X124770Y243410D01*
X124813Y243417D01*
X124852Y243423D01*
X124885Y243427D01*
X124914D01*
X124941Y243430D01*
X124973D01*
X125052Y243427D01*
D02*
G37*
G36*
X122792Y243387D02*
X122871Y243384D01*
X122940Y243377D01*
X122999Y243368D01*
X123048Y243361D01*
X123068Y243358D01*
X123084Y243354D01*
X123097Y243351D01*
X123107D01*
X123110Y243348D01*
X123114D01*
X123176Y243331D01*
X123235Y243312D01*
X123287Y243289D01*
X123330Y243269D01*
X123366Y243253D01*
X123392Y243236D01*
X123409Y243227D01*
X123415Y243223D01*
X123461Y243187D01*
X123507Y243151D01*
X123546Y243112D01*
X123579Y243076D01*
X123609Y243043D01*
X123628Y243017D01*
X123645Y243000D01*
X123648Y242994D01*
X123684Y242938D01*
X123720Y242876D01*
X123750Y242813D01*
X123773Y242754D01*
X123792Y242705D01*
X123799Y242682D01*
X123805Y242662D01*
X123812Y242649D01*
X123815Y242636D01*
X123819Y242630D01*
Y242626D01*
X123842Y242541D01*
X123858Y242452D01*
X123871Y242367D01*
X123878Y242288D01*
X123881Y242252D01*
X123884Y242219D01*
Y242190D01*
X123888Y242167D01*
Y242144D01*
Y242131D01*
Y242121D01*
Y242118D01*
X123884Y241997D01*
X123871Y241882D01*
X123865Y241829D01*
X123855Y241780D01*
X123845Y241734D01*
X123838Y241691D01*
X123828Y241652D01*
X123819Y241619D01*
X123809Y241590D01*
X123802Y241564D01*
X123796Y241544D01*
X123789Y241531D01*
X123786Y241521D01*
Y241518D01*
X123747Y241423D01*
X123697Y241340D01*
X123648Y241265D01*
X123599Y241203D01*
X123576Y241177D01*
X123556Y241154D01*
X123537Y241134D01*
X123520Y241117D01*
X123507Y241104D01*
X123497Y241094D01*
X123491Y241091D01*
X123487Y241088D01*
X123428Y241042D01*
X123366Y241003D01*
X123304Y240973D01*
X123245Y240947D01*
X123196Y240931D01*
X123172Y240924D01*
X123153Y240917D01*
X123140Y240914D01*
X123127Y240911D01*
X123120Y240908D01*
X123117D01*
X123054Y240894D01*
X122982Y240885D01*
X122907Y240878D01*
X122835Y240871D01*
X122772D01*
X122743Y240868D01*
X121801D01*
Y243390D01*
X122710D01*
X122792Y243387D01*
D02*
G37*
G36*
X119308Y240868D02*
X119000D01*
Y241222D01*
X119308D01*
Y240868D01*
D02*
G37*
G36*
X128161Y243430D02*
X128253Y243417D01*
X128335Y243400D01*
X128404Y243384D01*
X128437Y243374D01*
X128463Y243364D01*
X128486Y243358D01*
X128509Y243351D01*
X128522Y243345D01*
X128535Y243338D01*
X128542Y243335D01*
X128545D01*
X128620Y243295D01*
X128689Y243249D01*
X128745Y243203D01*
X128791Y243161D01*
X128827Y243122D01*
X128856Y243089D01*
X128863Y243076D01*
X128869Y243066D01*
X128876Y243062D01*
Y243059D01*
X128915Y242994D01*
X128945Y242925D01*
X128965Y242862D01*
X128981Y242803D01*
X128988Y242754D01*
X128991Y242735D01*
Y242715D01*
X128994Y242702D01*
Y242692D01*
Y242685D01*
Y242682D01*
X128991Y242607D01*
X128978Y242541D01*
X128961Y242479D01*
X128942Y242426D01*
X128919Y242384D01*
X128902Y242351D01*
X128896Y242341D01*
X128889Y242331D01*
X128886Y242328D01*
Y242324D01*
X128843Y242269D01*
X128791Y242216D01*
X128738Y242174D01*
X128686Y242134D01*
X128637Y242105D01*
X128597Y242085D01*
X128581Y242075D01*
X128571Y242069D01*
X128564Y242065D01*
X128561D01*
X128532Y242052D01*
X128496Y242039D01*
X128453Y242026D01*
X128410Y242010D01*
X128318Y241983D01*
X128227Y241960D01*
X128181Y241947D01*
X128141Y241937D01*
X128102Y241928D01*
X128069Y241921D01*
X128043Y241915D01*
X128020Y241908D01*
X128007Y241905D01*
X128004D01*
X127931Y241888D01*
X127866Y241872D01*
X127807Y241855D01*
X127754Y241839D01*
X127708Y241823D01*
X127669Y241810D01*
X127633Y241793D01*
X127600Y241780D01*
X127577Y241770D01*
X127554Y241760D01*
X127538Y241751D01*
X127525Y241741D01*
X127515Y241737D01*
X127508Y241731D01*
X127502Y241727D01*
X127469Y241691D01*
X127446Y241655D01*
X127429Y241619D01*
X127420Y241583D01*
X127413Y241550D01*
X127407Y241527D01*
Y241511D01*
Y241505D01*
X127413Y241449D01*
X127429Y241396D01*
X127449Y241350D01*
X127476Y241311D01*
X127502Y241278D01*
X127521Y241255D01*
X127538Y241242D01*
X127544Y241235D01*
X127571Y241216D01*
X127603Y241199D01*
X127672Y241170D01*
X127744Y241150D01*
X127817Y241137D01*
X127882Y241131D01*
X127908Y241127D01*
X127935Y241124D01*
X128036D01*
X128085Y241131D01*
X128131Y241134D01*
X128174Y241144D01*
X128214Y241154D01*
X128250Y241163D01*
X128282Y241173D01*
X128312Y241183D01*
X128335Y241196D01*
X128358Y241206D01*
X128377Y241216D01*
X128394Y241226D01*
X128404Y241235D01*
X128414Y241239D01*
X128420Y241245D01*
X128473Y241295D01*
X128512Y241354D01*
X128542Y241413D01*
X128564Y241468D01*
X128581Y241521D01*
X128587Y241544D01*
X128591Y241564D01*
X128594Y241580D01*
X128597Y241593D01*
Y241600D01*
Y241603D01*
X128919Y241580D01*
X128912Y241501D01*
X128896Y241426D01*
X128876Y241360D01*
X128853Y241301D01*
X128830Y241252D01*
X128820Y241232D01*
X128814Y241216D01*
X128804Y241203D01*
X128801Y241193D01*
X128794Y241190D01*
Y241186D01*
X128748Y241124D01*
X128692Y241068D01*
X128640Y241022D01*
X128584Y240986D01*
X128538Y240957D01*
X128499Y240934D01*
X128482Y240927D01*
X128473Y240921D01*
X128466Y240917D01*
X128463D01*
X128381Y240888D01*
X128296Y240865D01*
X128214Y240848D01*
X128138Y240835D01*
X128102Y240832D01*
X128069Y240829D01*
X128043D01*
X128017Y240826D01*
X127971D01*
X127879Y240829D01*
X127790Y240839D01*
X127712Y240855D01*
X127643Y240868D01*
X127613Y240878D01*
X127587Y240885D01*
X127564Y240894D01*
X127544Y240901D01*
X127528Y240904D01*
X127518Y240911D01*
X127512Y240914D01*
X127508D01*
X127436Y240950D01*
X127371Y240989D01*
X127318Y241032D01*
X127272Y241072D01*
X127239Y241108D01*
X127213Y241140D01*
X127200Y241160D01*
X127193Y241163D01*
Y241167D01*
X127157Y241229D01*
X127131Y241291D01*
X127111Y241350D01*
X127098Y241406D01*
X127092Y241455D01*
X127088Y241491D01*
X127085Y241505D01*
Y241514D01*
Y241521D01*
Y241524D01*
X127088Y241586D01*
X127098Y241646D01*
X127111Y241701D01*
X127128Y241747D01*
X127144Y241787D01*
X127157Y241813D01*
X127167Y241832D01*
X127170Y241836D01*
Y241839D01*
X127207Y241888D01*
X127249Y241934D01*
X127295Y241973D01*
X127338Y242006D01*
X127377Y242036D01*
X127410Y242056D01*
X127423Y242062D01*
X127433Y242069D01*
X127436Y242072D01*
X127439D01*
X127469Y242085D01*
X127502Y242101D01*
X127574Y242128D01*
X127656Y242157D01*
X127735Y242180D01*
X127810Y242203D01*
X127840Y242210D01*
X127869Y242219D01*
X127892Y242223D01*
X127908Y242229D01*
X127922Y242233D01*
X127925D01*
X127987Y242249D01*
X128043Y242262D01*
X128095Y242275D01*
X128141Y242285D01*
X128184Y242298D01*
X128220Y242308D01*
X128253Y242315D01*
X128279Y242324D01*
X128305Y242331D01*
X128325Y242338D01*
X128341Y242341D01*
X128355Y242347D01*
X128368Y242351D01*
X128374Y242354D01*
X128430Y242377D01*
X128476Y242403D01*
X128515Y242426D01*
X128548Y242449D01*
X128571Y242469D01*
X128587Y242485D01*
X128597Y242498D01*
X128601Y242502D01*
X128623Y242534D01*
X128643Y242570D01*
X128656Y242607D01*
X128663Y242639D01*
X128669Y242666D01*
X128673Y242689D01*
Y242702D01*
Y242708D01*
X128669Y242751D01*
X128663Y242790D01*
X128650Y242826D01*
X128637Y242859D01*
X128623Y242885D01*
X128610Y242908D01*
X128604Y242921D01*
X128601Y242925D01*
X128571Y242961D01*
X128535Y242990D01*
X128499Y243017D01*
X128463Y243039D01*
X128430Y243056D01*
X128404Y243069D01*
X128387Y243076D01*
X128384Y243079D01*
X128381D01*
X128325Y243099D01*
X128269Y243112D01*
X128210Y243122D01*
X128161Y243128D01*
X128115Y243131D01*
X128079Y243135D01*
X128046D01*
X127968Y243131D01*
X127895Y243125D01*
X127830Y243112D01*
X127774Y243099D01*
X127725Y243085D01*
X127705Y243079D01*
X127689Y243072D01*
X127675Y243069D01*
X127666Y243066D01*
X127662Y243062D01*
X127659D01*
X127600Y243033D01*
X127548Y243000D01*
X127505Y242967D01*
X127469Y242935D01*
X127443Y242908D01*
X127423Y242885D01*
X127410Y242872D01*
X127407Y242866D01*
X127380Y242816D01*
X127357Y242764D01*
X127338Y242711D01*
X127325Y242662D01*
X127315Y242616D01*
X127308Y242584D01*
Y242570D01*
X127305Y242561D01*
Y242554D01*
Y242551D01*
X126990Y242577D01*
X126997Y242669D01*
X127013Y242757D01*
X127036Y242833D01*
X127062Y242902D01*
X127075Y242931D01*
X127085Y242957D01*
X127098Y242977D01*
X127108Y242997D01*
X127115Y243013D01*
X127121Y243023D01*
X127128Y243030D01*
Y243033D01*
X127180Y243102D01*
X127239Y243164D01*
X127298Y243217D01*
X127357Y243259D01*
X127410Y243292D01*
X127433Y243305D01*
X127449Y243315D01*
X127466Y243325D01*
X127479Y243331D01*
X127485Y243335D01*
X127489D01*
X127580Y243368D01*
X127675Y243390D01*
X127774Y243410D01*
X127863Y243420D01*
X127905Y243423D01*
X127941Y243427D01*
X127977Y243430D01*
X128007D01*
X128030Y243433D01*
X128063D01*
X128161Y243430D01*
D02*
G37*
G36*
X19632Y123057D02*
X19658Y123002D01*
X19675Y122946D01*
X19688Y122897D01*
X19694Y122857D01*
X19701Y122824D01*
Y122798D01*
X19698Y122759D01*
X19691Y122723D01*
X19681Y122687D01*
X19671Y122657D01*
X19658Y122634D01*
X19648Y122615D01*
X19642Y122601D01*
X19639Y122598D01*
X19609Y122565D01*
X19573Y122529D01*
X19530Y122496D01*
X19484Y122467D01*
X19445Y122444D01*
X19412Y122421D01*
X19399Y122414D01*
X19389Y122408D01*
X19383Y122405D01*
X19662D01*
Y122126D01*
X17835D01*
Y122434D01*
X18786D01*
X18858Y122437D01*
X18927Y122441D01*
X18986Y122450D01*
X19042Y122460D01*
X19084Y122467D01*
X19117Y122477D01*
X19130Y122480D01*
X19140D01*
X19143Y122483D01*
X19147D01*
X19186Y122500D01*
X19219Y122516D01*
X19248Y122536D01*
X19271Y122555D01*
X19291Y122572D01*
X19307Y122585D01*
X19314Y122595D01*
X19317Y122598D01*
X19337Y122631D01*
X19353Y122660D01*
X19363Y122693D01*
X19373Y122719D01*
X19376Y122746D01*
X19379Y122765D01*
Y122782D01*
X19376Y122824D01*
X19370Y122867D01*
X19360Y122906D01*
X19347Y122939D01*
X19334Y122969D01*
X19324Y122992D01*
X19317Y123005D01*
X19314Y123011D01*
X19599Y123120D01*
X19632Y123057D01*
D02*
G37*
G36*
X18851Y121762D02*
X18927Y121755D01*
X18996Y121742D01*
X19061Y121729D01*
X19124Y121709D01*
X19179Y121689D01*
X19229Y121667D01*
X19275Y121647D01*
X19314Y121624D01*
X19350Y121601D01*
X19383Y121581D01*
X19406Y121562D01*
X19425Y121548D01*
X19442Y121535D01*
X19448Y121529D01*
X19452Y121526D01*
X19494Y121480D01*
X19534Y121430D01*
X19566Y121381D01*
X19596Y121329D01*
X19619Y121276D01*
X19639Y121224D01*
X19658Y121175D01*
X19671Y121129D01*
X19681Y121083D01*
X19688Y121040D01*
X19694Y121004D01*
X19698Y120971D01*
X19701Y120945D01*
Y120909D01*
X19698Y120847D01*
X19691Y120788D01*
X19681Y120732D01*
X19668Y120676D01*
X19655Y120627D01*
X19635Y120578D01*
X19619Y120535D01*
X19599Y120496D01*
X19580Y120459D01*
X19563Y120427D01*
X19544Y120401D01*
X19530Y120378D01*
X19517Y120358D01*
X19507Y120345D01*
X19501Y120338D01*
X19498Y120335D01*
X19448Y120286D01*
X19396Y120243D01*
X19337Y120207D01*
X19278Y120174D01*
X19216Y120148D01*
X19153Y120125D01*
X19091Y120105D01*
X19028Y120092D01*
X18973Y120079D01*
X18920Y120072D01*
X18871Y120066D01*
X18828Y120059D01*
X18796D01*
X18769Y120056D01*
X18753D01*
X18746D01*
X18661Y120059D01*
X18582Y120066D01*
X18510Y120079D01*
X18441Y120092D01*
X18376Y120112D01*
X18320Y120132D01*
X18268Y120151D01*
X18218Y120174D01*
X18176Y120197D01*
X18140Y120217D01*
X18110Y120237D01*
X18084Y120256D01*
X18064Y120269D01*
X18051Y120282D01*
X18041Y120289D01*
X18038Y120292D01*
X17995Y120338D01*
X17959Y120387D01*
X17926Y120437D01*
X17897Y120489D01*
X17874Y120542D01*
X17854Y120591D01*
X17838Y120640D01*
X17825Y120689D01*
X17815Y120735D01*
X17808Y120778D01*
X17802Y120814D01*
X17798Y120847D01*
Y120873D01*
X17795Y120893D01*
Y120909D01*
X17798Y120997D01*
X17812Y121079D01*
X17831Y121155D01*
X17851Y121217D01*
X17871Y121273D01*
X17880Y121296D01*
X17890Y121312D01*
X17897Y121329D01*
X17903Y121339D01*
X17907Y121345D01*
Y121348D01*
X17953Y121421D01*
X18002Y121483D01*
X18054Y121535D01*
X18104Y121578D01*
X18149Y121614D01*
X18186Y121637D01*
X18199Y121647D01*
X18209Y121653D01*
X18215Y121657D01*
X18218D01*
X18258Y121676D01*
X18300Y121693D01*
X18392Y121719D01*
X18484Y121739D01*
X18573Y121752D01*
X18612Y121755D01*
X18651Y121758D01*
X18684Y121762D01*
X18714Y121765D01*
X18740D01*
X18756D01*
X18769D01*
X18773D01*
X18851Y121762D01*
D02*
G37*
G36*
X18428Y119800D02*
X18481Y119790D01*
X18523Y119781D01*
X18563Y119767D01*
X18592Y119751D01*
X18615Y119741D01*
X18632Y119731D01*
X18635Y119728D01*
X18674Y119699D01*
X18707Y119662D01*
X18733Y119630D01*
X18756Y119597D01*
X18776Y119567D01*
X18789Y119544D01*
X18796Y119528D01*
X18799Y119521D01*
X18809Y119495D01*
X18822Y119466D01*
X18845Y119397D01*
X18868Y119321D01*
X18891Y119246D01*
X18910Y119177D01*
X18917Y119144D01*
X18927Y119118D01*
X18933Y119098D01*
X18937Y119079D01*
X18940Y119069D01*
Y119065D01*
X18950Y119026D01*
X18963Y118990D01*
X18970Y118957D01*
X18979Y118928D01*
X18986Y118902D01*
X18992Y118878D01*
X19002Y118842D01*
X19009Y118816D01*
X19015Y118800D01*
X19019Y118793D01*
Y118790D01*
X19032Y118764D01*
X19045Y118737D01*
X19058Y118718D01*
X19071Y118701D01*
X19084Y118688D01*
X19094Y118678D01*
X19097Y118675D01*
X19101Y118672D01*
X19120Y118659D01*
X19140Y118652D01*
X19173Y118639D01*
X19189D01*
X19199Y118636D01*
X19206D01*
X19209D01*
X19245Y118639D01*
X19275Y118649D01*
X19304Y118665D01*
X19327Y118682D01*
X19347Y118695D01*
X19360Y118711D01*
X19370Y118721D01*
X19373Y118724D01*
X19396Y118764D01*
X19416Y118810D01*
X19429Y118862D01*
X19435Y118911D01*
X19442Y118957D01*
X19445Y118993D01*
Y119029D01*
X19442Y119095D01*
X19432Y119151D01*
X19419Y119200D01*
X19406Y119239D01*
X19389Y119272D01*
X19376Y119292D01*
X19366Y119308D01*
X19363Y119311D01*
X19330Y119344D01*
X19297Y119371D01*
X19261Y119394D01*
X19225Y119410D01*
X19196Y119420D01*
X19170Y119426D01*
X19153Y119433D01*
X19147D01*
X19189Y119735D01*
X19252Y119721D01*
X19307Y119705D01*
X19353Y119689D01*
X19393Y119669D01*
X19425Y119653D01*
X19448Y119640D01*
X19465Y119630D01*
X19468Y119626D01*
X19507Y119594D01*
X19540Y119554D01*
X19570Y119515D01*
X19593Y119475D01*
X19612Y119439D01*
X19629Y119410D01*
X19635Y119390D01*
X19639Y119387D01*
Y119384D01*
X19658Y119321D01*
X19675Y119259D01*
X19684Y119193D01*
X19694Y119138D01*
X19698Y119085D01*
Y119065D01*
X19701Y119046D01*
Y118957D01*
X19694Y118908D01*
X19688Y118862D01*
X19681Y118823D01*
X19675Y118787D01*
X19668Y118764D01*
X19665Y118747D01*
X19662Y118741D01*
X19648Y118698D01*
X19632Y118659D01*
X19619Y118623D01*
X19602Y118596D01*
X19593Y118573D01*
X19583Y118557D01*
X19576Y118547D01*
X19573Y118544D01*
X19547Y118511D01*
X19517Y118482D01*
X19488Y118455D01*
X19462Y118432D01*
X19435Y118416D01*
X19416Y118403D01*
X19402Y118396D01*
X19399Y118393D01*
X19360Y118373D01*
X19320Y118360D01*
X19281Y118351D01*
X19248Y118344D01*
X19216Y118341D01*
X19193Y118337D01*
X19179D01*
X19173D01*
X19124Y118341D01*
X19078Y118347D01*
X19035Y118357D01*
X18999Y118370D01*
X18970Y118383D01*
X18947Y118393D01*
X18933Y118400D01*
X18927Y118403D01*
X18888Y118432D01*
X18855Y118462D01*
X18825Y118498D01*
X18802Y118528D01*
X18782Y118557D01*
X18769Y118580D01*
X18760Y118596D01*
X18756Y118603D01*
X18743Y118629D01*
X18733Y118662D01*
X18720Y118695D01*
X18707Y118731D01*
X18681Y118810D01*
X18658Y118888D01*
X18638Y118960D01*
X18628Y118993D01*
X18622Y119020D01*
X18615Y119043D01*
X18609Y119059D01*
X18605Y119072D01*
Y119075D01*
X18596Y119121D01*
X18582Y119161D01*
X18573Y119200D01*
X18563Y119233D01*
X18553Y119262D01*
X18546Y119289D01*
X18540Y119308D01*
X18530Y119328D01*
X18520Y119361D01*
X18510Y119380D01*
X18507Y119390D01*
X18504Y119394D01*
X18477Y119423D01*
X18451Y119446D01*
X18425Y119462D01*
X18399Y119475D01*
X18376Y119482D01*
X18356Y119485D01*
X18343D01*
X18340D01*
X18297Y119482D01*
X18258Y119469D01*
X18225Y119453D01*
X18195Y119433D01*
X18169Y119413D01*
X18153Y119397D01*
X18140Y119384D01*
X18136Y119380D01*
X18107Y119338D01*
X18087Y119285D01*
X18071Y119233D01*
X18061Y119184D01*
X18054Y119134D01*
X18051Y119098D01*
Y119062D01*
X18054Y118987D01*
X18067Y118921D01*
X18081Y118865D01*
X18100Y118816D01*
X18117Y118780D01*
X18133Y118754D01*
X18143Y118737D01*
X18146Y118731D01*
X18186Y118692D01*
X18232Y118659D01*
X18277Y118636D01*
X18323Y118616D01*
X18366Y118603D01*
X18399Y118596D01*
X18412Y118593D01*
X18422Y118590D01*
X18425D01*
X18428D01*
X18379Y118285D01*
X18327Y118295D01*
X18277Y118308D01*
X18232Y118324D01*
X18189Y118344D01*
X18149Y118360D01*
X18113Y118380D01*
X18081Y118403D01*
X18051Y118423D01*
X18025Y118442D01*
X18002Y118459D01*
X17982Y118475D01*
X17966Y118491D01*
X17956Y118505D01*
X17946Y118515D01*
X17943Y118518D01*
X17940Y118521D01*
X17913Y118557D01*
X17894Y118600D01*
X17858Y118685D01*
X17831Y118777D01*
X17815Y118862D01*
X17808Y118905D01*
X17802Y118944D01*
X17798Y118977D01*
Y119007D01*
X17795Y119033D01*
Y119065D01*
X17798Y119144D01*
X17805Y119216D01*
X17818Y119282D01*
X17831Y119338D01*
X17844Y119384D01*
X17858Y119420D01*
X17861Y119433D01*
X17864Y119443D01*
X17867Y119446D01*
Y119449D01*
X17897Y119508D01*
X17933Y119561D01*
X17966Y119607D01*
X18002Y119646D01*
X18031Y119672D01*
X18054Y119695D01*
X18071Y119708D01*
X18077Y119712D01*
X18130Y119741D01*
X18182Y119764D01*
X18232Y119781D01*
X18277Y119794D01*
X18317Y119800D01*
X18346Y119804D01*
X18366D01*
X18369D01*
X18372D01*
X18428Y119800D01*
D02*
G37*
G36*
X19094Y117931D02*
X19143Y117927D01*
X19186Y117924D01*
X19216Y117921D01*
X19238Y117918D01*
X19252Y117914D01*
X19255D01*
X19304Y117901D01*
X19347Y117888D01*
X19386Y117872D01*
X19419Y117859D01*
X19448Y117842D01*
X19468Y117829D01*
X19481Y117822D01*
X19484Y117819D01*
X19517Y117790D01*
X19550Y117757D01*
X19576Y117724D01*
X19596Y117691D01*
X19616Y117658D01*
X19629Y117635D01*
X19635Y117619D01*
X19639Y117613D01*
X19658Y117560D01*
X19675Y117508D01*
X19684Y117455D01*
X19694Y117409D01*
X19698Y117367D01*
X19701Y117337D01*
Y117307D01*
X19698Y117239D01*
X19688Y117173D01*
X19675Y117114D01*
X19655Y117058D01*
X19632Y117006D01*
X19606Y116960D01*
X19580Y116917D01*
X19550Y116878D01*
X19521Y116842D01*
X19494Y116812D01*
X19468Y116789D01*
X19445Y116766D01*
X19429Y116750D01*
X19412Y116740D01*
X19402Y116733D01*
X19399Y116730D01*
X19662D01*
Y116451D01*
X17835D01*
Y116760D01*
X18828D01*
X18891Y116763D01*
X18950Y116766D01*
X19002Y116773D01*
X19051Y116783D01*
X19094Y116793D01*
X19133Y116806D01*
X19166Y116819D01*
X19199Y116832D01*
X19225Y116845D01*
X19245Y116855D01*
X19265Y116868D01*
X19278Y116878D01*
X19291Y116888D01*
X19297Y116894D01*
X19304Y116901D01*
X19347Y116956D01*
X19379Y117016D01*
X19402Y117075D01*
X19416Y117127D01*
X19425Y117173D01*
X19429Y117212D01*
X19432Y117225D01*
Y117245D01*
X19429Y117288D01*
X19422Y117330D01*
X19412Y117367D01*
X19402Y117396D01*
X19393Y117422D01*
X19383Y117442D01*
X19376Y117455D01*
X19373Y117458D01*
X19350Y117491D01*
X19327Y117517D01*
X19301Y117540D01*
X19278Y117557D01*
X19255Y117570D01*
X19238Y117580D01*
X19225Y117586D01*
X19222D01*
X19183Y117599D01*
X19140Y117609D01*
X19094Y117616D01*
X19048Y117622D01*
X19009D01*
X18973Y117626D01*
X18960D01*
X18953D01*
X18947D01*
X18943D01*
X17835D01*
Y117934D01*
X18956D01*
X19032D01*
X19094Y117931D01*
D02*
G37*
G36*
X18832Y116068D02*
X18910Y116061D01*
X18983Y116048D01*
X19051Y116035D01*
X19114Y116018D01*
X19170Y115999D01*
X19222Y115976D01*
X19271Y115956D01*
X19314Y115933D01*
X19350Y115910D01*
X19379Y115891D01*
X19406Y115874D01*
X19425Y115861D01*
X19439Y115848D01*
X19448Y115841D01*
X19452Y115838D01*
X19494Y115792D01*
X19534Y115746D01*
X19566Y115697D01*
X19596Y115645D01*
X19619Y115595D01*
X19639Y115546D01*
X19658Y115497D01*
X19671Y115451D01*
X19681Y115408D01*
X19688Y115366D01*
X19694Y115330D01*
X19698Y115300D01*
X19701Y115274D01*
Y115238D01*
X19698Y115169D01*
X19691Y115103D01*
X19678Y115041D01*
X19662Y114982D01*
X19642Y114929D01*
X19619Y114877D01*
X19596Y114831D01*
X19573Y114788D01*
X19550Y114752D01*
X19527Y114719D01*
X19504Y114690D01*
X19484Y114667D01*
X19468Y114647D01*
X19455Y114634D01*
X19448Y114628D01*
X19445Y114624D01*
X19396Y114582D01*
X19343Y114546D01*
X19284Y114516D01*
X19225Y114487D01*
X19166Y114464D01*
X19107Y114447D01*
X19048Y114431D01*
X18992Y114418D01*
X18940Y114408D01*
X18891Y114401D01*
X18845Y114395D01*
X18805Y114392D01*
X18776D01*
X18750Y114388D01*
X18737D01*
X18730D01*
X18648Y114392D01*
X18573Y114398D01*
X18504Y114411D01*
X18435Y114424D01*
X18376Y114441D01*
X18317Y114460D01*
X18268Y114483D01*
X18218Y114506D01*
X18179Y114526D01*
X18143Y114549D01*
X18113Y114569D01*
X18087Y114585D01*
X18067Y114598D01*
X18054Y114611D01*
X18045Y114618D01*
X18041Y114621D01*
X17999Y114667D01*
X17959Y114716D01*
X17926Y114769D01*
X17900Y114821D01*
X17874Y114874D01*
X17854Y114926D01*
X17838Y114979D01*
X17825Y115028D01*
X17815Y115074D01*
X17808Y115120D01*
X17802Y115159D01*
X17798Y115192D01*
Y115218D01*
X17795Y115241D01*
Y115257D01*
X17798Y115316D01*
X17802Y115372D01*
X17818Y115474D01*
X17831Y115520D01*
X17844Y115562D01*
X17858Y115602D01*
X17874Y115638D01*
X17887Y115671D01*
X17900Y115697D01*
X17913Y115723D01*
X17926Y115743D01*
X17936Y115759D01*
X17943Y115769D01*
X17949Y115776D01*
Y115779D01*
X18012Y115848D01*
X18084Y115907D01*
X18156Y115956D01*
X18225Y115995D01*
X18287Y116022D01*
X18317Y116035D01*
X18340Y116041D01*
X18359Y116051D01*
X18372Y116054D01*
X18382Y116058D01*
X18386D01*
X18428Y115736D01*
X18359Y115710D01*
X18300Y115677D01*
X18248Y115645D01*
X18209Y115615D01*
X18179Y115589D01*
X18156Y115566D01*
X18143Y115553D01*
X18140Y115546D01*
X18110Y115500D01*
X18087Y115451D01*
X18074Y115402D01*
X18061Y115359D01*
X18054Y115316D01*
X18051Y115287D01*
Y115257D01*
X18054Y115215D01*
X18058Y115175D01*
X18077Y115100D01*
X18100Y115034D01*
X18130Y114979D01*
X18159Y114936D01*
X18186Y114900D01*
X18195Y114890D01*
X18202Y114880D01*
X18205Y114877D01*
X18209Y114874D01*
X18241Y114847D01*
X18274Y114824D01*
X18346Y114785D01*
X18422Y114756D01*
X18497Y114733D01*
X18563Y114719D01*
X18592Y114716D01*
X18619Y114713D01*
X18638Y114710D01*
X18655Y114706D01*
X18664D01*
X18668D01*
Y116068D01*
X18704Y116071D01*
X18730D01*
X18743D01*
X18750D01*
X18832Y116068D01*
D02*
G37*
G36*
X18619Y114073D02*
X18684Y114060D01*
X18746Y114044D01*
X18799Y114024D01*
X18842Y114001D01*
X18874Y113985D01*
X18884Y113978D01*
X18894Y113972D01*
X18897Y113968D01*
X18901D01*
X18956Y113926D01*
X19009Y113873D01*
X19051Y113821D01*
X19091Y113768D01*
X19120Y113719D01*
X19140Y113680D01*
X19150Y113663D01*
X19156Y113654D01*
X19160Y113647D01*
Y113644D01*
X19173Y113614D01*
X19186Y113578D01*
X19199Y113535D01*
X19216Y113493D01*
X19242Y113401D01*
X19265Y113309D01*
X19278Y113263D01*
X19288Y113224D01*
X19297Y113184D01*
X19304Y113152D01*
X19311Y113125D01*
X19317Y113102D01*
X19320Y113089D01*
Y113086D01*
X19337Y113014D01*
X19353Y112948D01*
X19370Y112889D01*
X19386Y112837D01*
X19402Y112791D01*
X19416Y112751D01*
X19432Y112715D01*
X19445Y112683D01*
X19455Y112660D01*
X19465Y112637D01*
X19475Y112620D01*
X19484Y112607D01*
X19488Y112597D01*
X19494Y112591D01*
X19498Y112584D01*
X19534Y112551D01*
X19570Y112529D01*
X19606Y112512D01*
X19642Y112502D01*
X19675Y112496D01*
X19698Y112489D01*
X19714D01*
X19721D01*
X19776Y112496D01*
X19829Y112512D01*
X19875Y112532D01*
X19914Y112558D01*
X19947Y112584D01*
X19970Y112604D01*
X19983Y112620D01*
X19990Y112627D01*
X20009Y112653D01*
X20026Y112686D01*
X20055Y112755D01*
X20075Y112827D01*
X20088Y112899D01*
X20095Y112965D01*
X20098Y112991D01*
X20101Y113017D01*
Y113119D01*
X20095Y113168D01*
X20091Y113214D01*
X20081Y113257D01*
X20072Y113296D01*
X20062Y113332D01*
X20052Y113365D01*
X20042Y113394D01*
X20029Y113417D01*
X20019Y113440D01*
X20009Y113460D01*
X19999Y113476D01*
X19990Y113486D01*
X19986Y113496D01*
X19980Y113503D01*
X19930Y113555D01*
X19872Y113594D01*
X19812Y113624D01*
X19757Y113647D01*
X19704Y113663D01*
X19681Y113670D01*
X19662Y113673D01*
X19645Y113677D01*
X19632Y113680D01*
X19625D01*
X19622D01*
X19645Y114001D01*
X19724Y113995D01*
X19799Y113978D01*
X19865Y113959D01*
X19924Y113936D01*
X19973Y113913D01*
X19993Y113903D01*
X20009Y113896D01*
X20022Y113886D01*
X20032Y113883D01*
X20035Y113876D01*
X20039D01*
X20101Y113831D01*
X20157Y113775D01*
X20203Y113722D01*
X20239Y113667D01*
X20268Y113621D01*
X20291Y113581D01*
X20298Y113565D01*
X20304Y113555D01*
X20308Y113549D01*
Y113545D01*
X20337Y113463D01*
X20360Y113378D01*
X20377Y113296D01*
X20390Y113221D01*
X20393Y113184D01*
X20396Y113152D01*
Y113125D01*
X20400Y113099D01*
Y113053D01*
X20396Y112961D01*
X20386Y112873D01*
X20370Y112794D01*
X20357Y112725D01*
X20347Y112696D01*
X20340Y112670D01*
X20331Y112647D01*
X20324Y112627D01*
X20321Y112610D01*
X20314Y112601D01*
X20311Y112594D01*
Y112591D01*
X20275Y112519D01*
X20236Y112453D01*
X20193Y112400D01*
X20154Y112355D01*
X20118Y112322D01*
X20085Y112296D01*
X20065Y112283D01*
X20062Y112276D01*
X20058D01*
X19996Y112240D01*
X19934Y112214D01*
X19875Y112194D01*
X19819Y112181D01*
X19770Y112174D01*
X19734Y112171D01*
X19721Y112168D01*
X19711D01*
X19704D01*
X19701D01*
X19639Y112171D01*
X19580Y112181D01*
X19524Y112194D01*
X19478Y112210D01*
X19439Y112227D01*
X19412Y112240D01*
X19393Y112250D01*
X19389Y112253D01*
X19386D01*
X19337Y112289D01*
X19291Y112332D01*
X19252Y112378D01*
X19219Y112420D01*
X19189Y112460D01*
X19170Y112492D01*
X19163Y112505D01*
X19156Y112515D01*
X19153Y112519D01*
Y112522D01*
X19140Y112551D01*
X19124Y112584D01*
X19097Y112656D01*
X19068Y112738D01*
X19045Y112817D01*
X19022Y112893D01*
X19015Y112922D01*
X19006Y112952D01*
X19002Y112975D01*
X18996Y112991D01*
X18992Y113004D01*
Y113007D01*
X18976Y113070D01*
X18963Y113125D01*
X18950Y113178D01*
X18940Y113224D01*
X18927Y113267D01*
X18917Y113303D01*
X18910Y113335D01*
X18901Y113362D01*
X18894Y113388D01*
X18888Y113408D01*
X18884Y113424D01*
X18878Y113437D01*
X18874Y113450D01*
X18871Y113457D01*
X18848Y113513D01*
X18822Y113558D01*
X18799Y113598D01*
X18776Y113630D01*
X18756Y113654D01*
X18740Y113670D01*
X18727Y113680D01*
X18723Y113683D01*
X18691Y113706D01*
X18655Y113726D01*
X18619Y113739D01*
X18586Y113745D01*
X18560Y113752D01*
X18537Y113755D01*
X18523D01*
X18517D01*
X18474Y113752D01*
X18435Y113745D01*
X18399Y113732D01*
X18366Y113719D01*
X18340Y113706D01*
X18317Y113693D01*
X18304Y113686D01*
X18300Y113683D01*
X18264Y113654D01*
X18235Y113617D01*
X18209Y113581D01*
X18186Y113545D01*
X18169Y113513D01*
X18156Y113486D01*
X18149Y113470D01*
X18146Y113467D01*
Y113463D01*
X18126Y113408D01*
X18113Y113352D01*
X18104Y113293D01*
X18097Y113243D01*
X18094Y113198D01*
X18090Y113162D01*
Y113129D01*
X18094Y113050D01*
X18100Y112978D01*
X18113Y112912D01*
X18126Y112856D01*
X18140Y112807D01*
X18146Y112788D01*
X18153Y112771D01*
X18156Y112758D01*
X18159Y112748D01*
X18163Y112745D01*
Y112742D01*
X18192Y112683D01*
X18225Y112630D01*
X18258Y112587D01*
X18291Y112551D01*
X18317Y112525D01*
X18340Y112505D01*
X18353Y112492D01*
X18359Y112489D01*
X18409Y112463D01*
X18461Y112440D01*
X18514Y112420D01*
X18563Y112407D01*
X18609Y112397D01*
X18642Y112391D01*
X18655D01*
X18664Y112387D01*
X18671D01*
X18674D01*
X18648Y112073D01*
X18556Y112079D01*
X18468Y112095D01*
X18392Y112118D01*
X18323Y112145D01*
X18294Y112158D01*
X18268Y112168D01*
X18248Y112181D01*
X18228Y112191D01*
X18212Y112197D01*
X18202Y112204D01*
X18195Y112210D01*
X18192D01*
X18123Y112263D01*
X18061Y112322D01*
X18008Y112381D01*
X17966Y112440D01*
X17933Y112492D01*
X17920Y112515D01*
X17910Y112532D01*
X17900Y112548D01*
X17894Y112561D01*
X17890Y112568D01*
Y112571D01*
X17858Y112663D01*
X17835Y112758D01*
X17815Y112856D01*
X17805Y112945D01*
X17802Y112988D01*
X17798Y113024D01*
X17795Y113060D01*
Y113089D01*
X17792Y113112D01*
Y113145D01*
X17795Y113243D01*
X17808Y113335D01*
X17825Y113417D01*
X17841Y113486D01*
X17851Y113519D01*
X17861Y113545D01*
X17867Y113568D01*
X17874Y113591D01*
X17880Y113604D01*
X17887Y113617D01*
X17890Y113624D01*
Y113627D01*
X17930Y113703D01*
X17976Y113772D01*
X18022Y113827D01*
X18064Y113873D01*
X18104Y113909D01*
X18136Y113939D01*
X18149Y113945D01*
X18159Y113952D01*
X18163Y113959D01*
X18166D01*
X18232Y113998D01*
X18300Y114027D01*
X18363Y114047D01*
X18422Y114064D01*
X18471Y114070D01*
X18491Y114073D01*
X18510D01*
X18523Y114077D01*
X18533D01*
X18540D01*
X18543D01*
X18619Y114073D01*
D02*
G37*
G36*
Y111719D02*
X18684Y111706D01*
X18746Y111689D01*
X18799Y111670D01*
X18842Y111647D01*
X18874Y111630D01*
X18884Y111624D01*
X18894Y111617D01*
X18897Y111614D01*
X18901D01*
X18956Y111571D01*
X19009Y111519D01*
X19051Y111466D01*
X19091Y111414D01*
X19120Y111365D01*
X19140Y111325D01*
X19150Y111309D01*
X19156Y111299D01*
X19160Y111293D01*
Y111289D01*
X19173Y111260D01*
X19186Y111224D01*
X19199Y111181D01*
X19216Y111138D01*
X19242Y111047D01*
X19265Y110955D01*
X19278Y110909D01*
X19288Y110869D01*
X19297Y110830D01*
X19304Y110797D01*
X19311Y110771D01*
X19317Y110748D01*
X19320Y110735D01*
Y110732D01*
X19337Y110659D01*
X19353Y110594D01*
X19370Y110535D01*
X19386Y110482D01*
X19402Y110436D01*
X19416Y110397D01*
X19432Y110361D01*
X19445Y110328D01*
X19455Y110305D01*
X19465Y110282D01*
X19475Y110266D01*
X19484Y110253D01*
X19488Y110243D01*
X19494Y110236D01*
X19498Y110230D01*
X19534Y110197D01*
X19570Y110174D01*
X19606Y110158D01*
X19642Y110148D01*
X19675Y110141D01*
X19698Y110135D01*
X19714D01*
X19721D01*
X19776Y110141D01*
X19829Y110158D01*
X19875Y110177D01*
X19914Y110204D01*
X19947Y110230D01*
X19970Y110249D01*
X19983Y110266D01*
X19990Y110272D01*
X20009Y110299D01*
X20026Y110331D01*
X20055Y110400D01*
X20075Y110473D01*
X20088Y110545D01*
X20095Y110610D01*
X20098Y110636D01*
X20101Y110663D01*
Y110764D01*
X20095Y110814D01*
X20091Y110860D01*
X20081Y110902D01*
X20072Y110942D01*
X20062Y110978D01*
X20052Y111010D01*
X20042Y111040D01*
X20029Y111063D01*
X20019Y111086D01*
X20009Y111106D01*
X19999Y111122D01*
X19990Y111132D01*
X19986Y111142D01*
X19980Y111148D01*
X19930Y111201D01*
X19872Y111240D01*
X19812Y111269D01*
X19757Y111293D01*
X19704Y111309D01*
X19681Y111315D01*
X19662Y111319D01*
X19645Y111322D01*
X19632Y111325D01*
X19625D01*
X19622D01*
X19645Y111647D01*
X19724Y111640D01*
X19799Y111624D01*
X19865Y111604D01*
X19924Y111581D01*
X19973Y111558D01*
X19993Y111548D01*
X20009Y111542D01*
X20022Y111532D01*
X20032Y111529D01*
X20035Y111522D01*
X20039D01*
X20101Y111476D01*
X20157Y111420D01*
X20203Y111368D01*
X20239Y111312D01*
X20268Y111266D01*
X20291Y111227D01*
X20298Y111211D01*
X20304Y111201D01*
X20308Y111194D01*
Y111191D01*
X20337Y111109D01*
X20360Y111023D01*
X20377Y110942D01*
X20390Y110866D01*
X20393Y110830D01*
X20396Y110797D01*
Y110771D01*
X20400Y110745D01*
Y110699D01*
X20396Y110607D01*
X20386Y110518D01*
X20370Y110440D01*
X20357Y110371D01*
X20347Y110341D01*
X20340Y110315D01*
X20331Y110292D01*
X20324Y110272D01*
X20321Y110256D01*
X20314Y110246D01*
X20311Y110240D01*
Y110236D01*
X20275Y110164D01*
X20236Y110099D01*
X20193Y110046D01*
X20154Y110000D01*
X20118Y109967D01*
X20085Y109941D01*
X20065Y109928D01*
X20062Y109921D01*
X20058D01*
X19996Y109885D01*
X19934Y109859D01*
X19875Y109839D01*
X19819Y109826D01*
X19770Y109820D01*
X19734Y109817D01*
X19721Y109813D01*
X19711D01*
X19704D01*
X19701D01*
X19639Y109817D01*
X19580Y109826D01*
X19524Y109839D01*
X19478Y109856D01*
X19439Y109872D01*
X19412Y109885D01*
X19393Y109895D01*
X19389Y109898D01*
X19386D01*
X19337Y109934D01*
X19291Y109977D01*
X19252Y110023D01*
X19219Y110066D01*
X19189Y110105D01*
X19170Y110138D01*
X19163Y110151D01*
X19156Y110161D01*
X19153Y110164D01*
Y110167D01*
X19140Y110197D01*
X19124Y110230D01*
X19097Y110302D01*
X19068Y110384D01*
X19045Y110463D01*
X19022Y110538D01*
X19015Y110568D01*
X19006Y110597D01*
X19002Y110620D01*
X18996Y110636D01*
X18992Y110650D01*
Y110653D01*
X18976Y110715D01*
X18963Y110771D01*
X18950Y110823D01*
X18940Y110869D01*
X18927Y110912D01*
X18917Y110948D01*
X18910Y110981D01*
X18901Y111007D01*
X18894Y111033D01*
X18888Y111053D01*
X18884Y111069D01*
X18878Y111082D01*
X18874Y111096D01*
X18871Y111102D01*
X18848Y111158D01*
X18822Y111204D01*
X18799Y111243D01*
X18776Y111276D01*
X18756Y111299D01*
X18740Y111315D01*
X18727Y111325D01*
X18723Y111328D01*
X18691Y111352D01*
X18655Y111371D01*
X18619Y111384D01*
X18586Y111391D01*
X18560Y111397D01*
X18537Y111401D01*
X18523D01*
X18517D01*
X18474Y111397D01*
X18435Y111391D01*
X18399Y111378D01*
X18366Y111365D01*
X18340Y111352D01*
X18317Y111338D01*
X18304Y111332D01*
X18300Y111328D01*
X18264Y111299D01*
X18235Y111263D01*
X18209Y111227D01*
X18186Y111191D01*
X18169Y111158D01*
X18156Y111132D01*
X18149Y111115D01*
X18146Y111112D01*
Y111109D01*
X18126Y111053D01*
X18113Y110997D01*
X18104Y110938D01*
X18097Y110889D01*
X18094Y110843D01*
X18090Y110807D01*
Y110774D01*
X18094Y110696D01*
X18100Y110623D01*
X18113Y110558D01*
X18126Y110502D01*
X18140Y110453D01*
X18146Y110433D01*
X18153Y110417D01*
X18156Y110404D01*
X18159Y110394D01*
X18163Y110390D01*
Y110387D01*
X18192Y110328D01*
X18225Y110276D01*
X18258Y110233D01*
X18291Y110197D01*
X18317Y110171D01*
X18340Y110151D01*
X18353Y110138D01*
X18359Y110135D01*
X18409Y110108D01*
X18461Y110085D01*
X18514Y110066D01*
X18563Y110053D01*
X18609Y110043D01*
X18642Y110036D01*
X18655D01*
X18664Y110033D01*
X18671D01*
X18674D01*
X18648Y109718D01*
X18556Y109725D01*
X18468Y109741D01*
X18392Y109764D01*
X18323Y109790D01*
X18294Y109803D01*
X18268Y109813D01*
X18248Y109826D01*
X18228Y109836D01*
X18212Y109843D01*
X18202Y109849D01*
X18195Y109856D01*
X18192D01*
X18123Y109908D01*
X18061Y109967D01*
X18008Y110026D01*
X17966Y110085D01*
X17933Y110138D01*
X17920Y110161D01*
X17910Y110177D01*
X17900Y110194D01*
X17894Y110207D01*
X17890Y110213D01*
Y110217D01*
X17858Y110309D01*
X17835Y110404D01*
X17815Y110502D01*
X17805Y110591D01*
X17802Y110633D01*
X17798Y110669D01*
X17795Y110705D01*
Y110735D01*
X17792Y110758D01*
Y110791D01*
X17795Y110889D01*
X17808Y110981D01*
X17825Y111063D01*
X17841Y111132D01*
X17851Y111165D01*
X17861Y111191D01*
X17867Y111214D01*
X17874Y111237D01*
X17880Y111250D01*
X17887Y111263D01*
X17890Y111269D01*
Y111273D01*
X17930Y111348D01*
X17976Y111417D01*
X18022Y111473D01*
X18064Y111519D01*
X18104Y111555D01*
X18136Y111584D01*
X18149Y111591D01*
X18159Y111598D01*
X18163Y111604D01*
X18166D01*
X18232Y111643D01*
X18300Y111673D01*
X18363Y111693D01*
X18422Y111709D01*
X18471Y111716D01*
X18491Y111719D01*
X18510D01*
X18523Y111722D01*
X18533D01*
X18540D01*
X18543D01*
X18619Y111719D01*
D02*
G37*
G36*
X19229Y109367D02*
X19343Y109354D01*
X19396Y109347D01*
X19445Y109338D01*
X19491Y109328D01*
X19534Y109321D01*
X19573Y109311D01*
X19606Y109301D01*
X19635Y109292D01*
X19662Y109285D01*
X19681Y109279D01*
X19694Y109272D01*
X19704Y109269D01*
X19707D01*
X19803Y109229D01*
X19885Y109180D01*
X19960Y109131D01*
X20022Y109082D01*
X20049Y109059D01*
X20072Y109039D01*
X20091Y109019D01*
X20108Y109003D01*
X20121Y108990D01*
X20131Y108980D01*
X20134Y108974D01*
X20137Y108970D01*
X20183Y108911D01*
X20222Y108849D01*
X20252Y108787D01*
X20278Y108728D01*
X20295Y108678D01*
X20301Y108655D01*
X20308Y108636D01*
X20311Y108623D01*
X20314Y108609D01*
X20318Y108603D01*
Y108600D01*
X20331Y108537D01*
X20340Y108465D01*
X20347Y108390D01*
X20354Y108317D01*
Y108255D01*
X20357Y108226D01*
Y107284D01*
X17835D01*
Y108193D01*
X17838Y108275D01*
X17841Y108354D01*
X17848Y108423D01*
X17858Y108482D01*
X17864Y108531D01*
X17867Y108550D01*
X17871Y108567D01*
X17874Y108580D01*
Y108590D01*
X17877Y108593D01*
Y108596D01*
X17894Y108659D01*
X17913Y108718D01*
X17936Y108770D01*
X17956Y108813D01*
X17972Y108849D01*
X17989Y108875D01*
X17999Y108891D01*
X18002Y108898D01*
X18038Y108944D01*
X18074Y108990D01*
X18113Y109029D01*
X18149Y109062D01*
X18182Y109092D01*
X18209Y109111D01*
X18225Y109128D01*
X18232Y109131D01*
X18287Y109167D01*
X18350Y109203D01*
X18412Y109233D01*
X18471Y109256D01*
X18520Y109275D01*
X18543Y109282D01*
X18563Y109288D01*
X18576Y109295D01*
X18589Y109298D01*
X18596Y109301D01*
X18599D01*
X18684Y109325D01*
X18773Y109341D01*
X18858Y109354D01*
X18937Y109361D01*
X18973Y109364D01*
X19006Y109367D01*
X19035D01*
X19058Y109370D01*
X19081D01*
X19094D01*
X19104D01*
X19107D01*
X19229Y109367D01*
D02*
G37*
G36*
X17850Y107000D02*
X17848D01*
Y107005D01*
X17835D01*
Y107007D01*
X17848D01*
Y107012D01*
X17850D01*
Y107000D01*
D02*
G37*
G36*
X54773Y17874D02*
X54465D01*
Y18229D01*
X54773D01*
Y17874D01*
D02*
G37*
G36*
X51527Y17569D02*
X51606Y17563D01*
X51678Y17553D01*
X51737Y17540D01*
X51789Y17527D01*
X51809Y17523D01*
X51825Y17517D01*
X51839Y17514D01*
X51849Y17510D01*
X51855Y17507D01*
X51858D01*
X51921Y17481D01*
X51976Y17451D01*
X52022Y17422D01*
X52062Y17392D01*
X52091Y17363D01*
X52114Y17343D01*
X52127Y17330D01*
X52131Y17323D01*
X52163Y17277D01*
X52193Y17225D01*
X52216Y17172D01*
X52232Y17123D01*
X52249Y17081D01*
X52258Y17044D01*
X52262Y17031D01*
Y17021D01*
X52265Y17015D01*
Y17012D01*
X51963Y16969D01*
X51944Y17035D01*
X51917Y17094D01*
X51894Y17140D01*
X51868Y17176D01*
X51849Y17205D01*
X51829Y17225D01*
X51816Y17235D01*
X51812Y17238D01*
X51770Y17264D01*
X51717Y17284D01*
X51665Y17297D01*
X51609Y17307D01*
X51563Y17313D01*
X51524Y17317D01*
X51488D01*
X51406Y17313D01*
X51334Y17300D01*
X51275Y17284D01*
X51222Y17264D01*
X51183Y17245D01*
X51156Y17228D01*
X51140Y17215D01*
X51134Y17212D01*
X51104Y17179D01*
X51081Y17136D01*
X51068Y17094D01*
X51055Y17048D01*
X51048Y17008D01*
X51045Y16972D01*
Y16962D01*
Y16953D01*
Y16946D01*
Y16943D01*
Y16936D01*
Y16923D01*
Y16897D01*
X51048Y16884D01*
Y16874D01*
Y16867D01*
Y16864D01*
X51084Y16854D01*
X51124Y16841D01*
X51209Y16821D01*
X51301Y16802D01*
X51389Y16785D01*
X51432Y16779D01*
X51471Y16772D01*
X51507Y16769D01*
X51537Y16766D01*
X51563Y16759D01*
X51583D01*
X51596Y16756D01*
X51599D01*
X51665Y16746D01*
X51721Y16739D01*
X51767Y16733D01*
X51806Y16723D01*
X51835Y16720D01*
X51858Y16713D01*
X51872Y16710D01*
X51875D01*
X51921Y16697D01*
X51963Y16680D01*
X51999Y16664D01*
X52032Y16648D01*
X52058Y16631D01*
X52081Y16618D01*
X52095Y16612D01*
X52098Y16608D01*
X52134Y16582D01*
X52163Y16553D01*
X52193Y16523D01*
X52216Y16497D01*
X52232Y16470D01*
X52249Y16451D01*
X52255Y16438D01*
X52258Y16431D01*
X52278Y16388D01*
X52291Y16346D01*
X52304Y16303D01*
X52311Y16267D01*
X52314Y16234D01*
X52318Y16208D01*
Y16192D01*
Y16185D01*
X52314Y16142D01*
X52311Y16103D01*
X52291Y16031D01*
X52265Y15969D01*
X52236Y15913D01*
X52206Y15870D01*
X52183Y15837D01*
X52163Y15818D01*
X52160Y15814D01*
X52157Y15811D01*
X52124Y15785D01*
X52091Y15765D01*
X52016Y15729D01*
X51940Y15703D01*
X51865Y15687D01*
X51799Y15673D01*
X51770Y15670D01*
X51744D01*
X51724Y15667D01*
X51694D01*
X51629Y15670D01*
X51566Y15677D01*
X51507Y15687D01*
X51458Y15696D01*
X51415Y15706D01*
X51383Y15716D01*
X51373Y15719D01*
X51363Y15723D01*
X51360Y15726D01*
X51357D01*
X51297Y15752D01*
X51235Y15785D01*
X51179Y15821D01*
X51130Y15854D01*
X51084Y15887D01*
X51051Y15913D01*
X51038Y15923D01*
X51029Y15929D01*
X51025Y15936D01*
X51022D01*
X51015Y15887D01*
X51006Y15844D01*
X50999Y15805D01*
X50986Y15772D01*
X50979Y15742D01*
X50969Y15723D01*
X50966Y15710D01*
X50963Y15706D01*
X50638D01*
X50658Y15746D01*
X50674Y15785D01*
X50687Y15821D01*
X50700Y15857D01*
X50707Y15883D01*
X50714Y15906D01*
X50717Y15919D01*
Y15926D01*
X50720Y15952D01*
X50723Y15982D01*
Y16018D01*
X50727Y16060D01*
X50730Y16149D01*
Y16241D01*
X50733Y16287D01*
Y16329D01*
Y16369D01*
Y16402D01*
Y16431D01*
Y16451D01*
Y16467D01*
Y16470D01*
Y16884D01*
Y16956D01*
X50737Y17015D01*
X50740Y17064D01*
Y17104D01*
X50743Y17133D01*
X50746Y17153D01*
X50750Y17166D01*
Y17169D01*
X50763Y17215D01*
X50776Y17254D01*
X50792Y17290D01*
X50809Y17320D01*
X50825Y17343D01*
X50838Y17363D01*
X50845Y17372D01*
X50848Y17376D01*
X50878Y17405D01*
X50910Y17435D01*
X50946Y17458D01*
X50983Y17477D01*
X51015Y17494D01*
X51042Y17507D01*
X51058Y17514D01*
X51061Y17517D01*
X51065D01*
X51124Y17537D01*
X51183Y17550D01*
X51248Y17559D01*
X51307Y17566D01*
X51360Y17569D01*
X51383Y17573D01*
X51442D01*
X51527Y17569D01*
D02*
G37*
G36*
X52460Y15702D02*
X52457D01*
Y15706D01*
X52454D01*
X52452Y15707D01*
X52451Y15708D01*
X52451Y15710D01*
Y15711D01*
Y15713D01*
X52451Y15714D01*
Y15715D01*
X52452Y15716D01*
X52455Y15717D01*
X52456D01*
X52457Y15716D01*
Y15717D01*
X52460D01*
Y15702D01*
D02*
G37*
G36*
X50483Y15706D02*
X50484D01*
Y15705D01*
X50485D01*
Y15704D01*
X50486D01*
Y15703D01*
X50485Y15702D01*
X50484Y15703D01*
X50483Y15704D01*
X50482Y15705D01*
X50481Y15706D01*
X50477Y15717D01*
X50479D01*
X50481Y15710D01*
X50482Y15709D01*
Y15708D01*
X50483Y15710D01*
Y15711D01*
X50486Y15717D01*
X50487D01*
X50483Y15706D01*
D02*
G37*
G36*
X57279D02*
X56370D01*
X56288Y15710D01*
X56209Y15713D01*
X56141Y15719D01*
X56082Y15729D01*
X56032Y15736D01*
X56013Y15739D01*
X55996Y15742D01*
X55983Y15746D01*
X55973D01*
X55970Y15749D01*
X55967D01*
X55905Y15765D01*
X55845Y15785D01*
X55793Y15808D01*
X55750Y15828D01*
X55714Y15844D01*
X55688Y15860D01*
X55672Y15870D01*
X55665Y15874D01*
X55619Y15910D01*
X55573Y15946D01*
X55534Y15985D01*
X55501Y16021D01*
X55471Y16054D01*
X55452Y16080D01*
X55435Y16097D01*
X55432Y16103D01*
X55396Y16159D01*
X55360Y16221D01*
X55330Y16284D01*
X55308Y16343D01*
X55288Y16392D01*
X55281Y16415D01*
X55275Y16434D01*
X55268Y16447D01*
X55265Y16461D01*
X55262Y16467D01*
Y16470D01*
X55239Y16556D01*
X55222Y16644D01*
X55209Y16730D01*
X55203Y16808D01*
X55199Y16844D01*
X55196Y16877D01*
Y16907D01*
X55193Y16930D01*
Y16953D01*
Y16966D01*
Y16976D01*
Y16979D01*
X55196Y17100D01*
X55209Y17215D01*
X55216Y17267D01*
X55225Y17317D01*
X55235Y17363D01*
X55242Y17405D01*
X55252Y17445D01*
X55262Y17477D01*
X55271Y17507D01*
X55278Y17533D01*
X55285Y17553D01*
X55291Y17566D01*
X55294Y17576D01*
Y17579D01*
X55334Y17674D01*
X55383Y17756D01*
X55432Y17832D01*
X55481Y17894D01*
X55504Y17920D01*
X55524Y17943D01*
X55544Y17963D01*
X55560Y17979D01*
X55573Y17992D01*
X55583Y18002D01*
X55590Y18006D01*
X55593Y18009D01*
X55652Y18055D01*
X55714Y18094D01*
X55777Y18124D01*
X55836Y18150D01*
X55885Y18166D01*
X55908Y18173D01*
X55927Y18179D01*
X55941Y18183D01*
X55954Y18186D01*
X55960Y18189D01*
X55963D01*
X56026Y18202D01*
X56098Y18212D01*
X56173Y18219D01*
X56246Y18225D01*
X56308D01*
X56337Y18229D01*
X57279D01*
Y15706D01*
D02*
G37*
G36*
X54773D02*
X54465D01*
Y17533D01*
X54773D01*
Y15706D01*
D02*
G37*
G36*
X52448D02*
X52447D01*
Y15721D01*
X52448D01*
Y15706D01*
D02*
G37*
G36*
X53490Y17566D02*
X53536Y17559D01*
X53576Y17553D01*
X53612Y17546D01*
X53635Y17540D01*
X53651Y17537D01*
X53658Y17533D01*
X53700Y17520D01*
X53740Y17504D01*
X53776Y17491D01*
X53802Y17474D01*
X53825Y17464D01*
X53841Y17455D01*
X53851Y17448D01*
X53855Y17445D01*
X53887Y17418D01*
X53917Y17389D01*
X53943Y17359D01*
X53966Y17333D01*
X53982Y17307D01*
X53996Y17287D01*
X54002Y17274D01*
X54005Y17271D01*
X54025Y17231D01*
X54038Y17192D01*
X54048Y17153D01*
X54054Y17120D01*
X54058Y17087D01*
X54061Y17064D01*
Y17051D01*
Y17044D01*
X54058Y16995D01*
X54051Y16949D01*
X54041Y16907D01*
X54028Y16871D01*
X54015Y16841D01*
X54005Y16818D01*
X53999Y16805D01*
X53996Y16799D01*
X53966Y16759D01*
X53936Y16726D01*
X53900Y16697D01*
X53871Y16674D01*
X53841Y16654D01*
X53818Y16641D01*
X53802Y16631D01*
X53795Y16628D01*
X53769Y16615D01*
X53736Y16605D01*
X53704Y16592D01*
X53667Y16579D01*
X53589Y16553D01*
X53510Y16530D01*
X53438Y16510D01*
X53405Y16500D01*
X53379Y16493D01*
X53356Y16487D01*
X53339Y16480D01*
X53326Y16477D01*
X53323D01*
X53277Y16467D01*
X53238Y16454D01*
X53198Y16444D01*
X53166Y16434D01*
X53136Y16425D01*
X53110Y16418D01*
X53090Y16411D01*
X53071Y16402D01*
X53038Y16392D01*
X53018Y16382D01*
X53008Y16379D01*
X53005Y16375D01*
X52975Y16349D01*
X52952Y16323D01*
X52936Y16297D01*
X52923Y16270D01*
X52916Y16247D01*
X52913Y16228D01*
Y16215D01*
Y16211D01*
X52916Y16169D01*
X52930Y16129D01*
X52946Y16097D01*
X52966Y16067D01*
X52985Y16041D01*
X53002Y16024D01*
X53015Y16011D01*
X53018Y16008D01*
X53061Y15979D01*
X53113Y15959D01*
X53166Y15942D01*
X53215Y15933D01*
X53264Y15926D01*
X53300Y15923D01*
X53336D01*
X53412Y15926D01*
X53477Y15939D01*
X53533Y15952D01*
X53582Y15972D01*
X53618Y15988D01*
X53645Y16005D01*
X53661Y16015D01*
X53667Y16018D01*
X53707Y16057D01*
X53740Y16103D01*
X53763Y16149D01*
X53782Y16195D01*
X53795Y16238D01*
X53802Y16270D01*
X53805Y16284D01*
X53809Y16293D01*
Y16297D01*
Y16300D01*
X54114Y16251D01*
X54104Y16198D01*
X54091Y16149D01*
X54074Y16103D01*
X54054Y16060D01*
X54038Y16021D01*
X54018Y15985D01*
X53996Y15952D01*
X53976Y15923D01*
X53956Y15897D01*
X53940Y15874D01*
X53923Y15854D01*
X53907Y15837D01*
X53894Y15828D01*
X53884Y15818D01*
X53881Y15814D01*
X53877Y15811D01*
X53841Y15785D01*
X53799Y15765D01*
X53713Y15729D01*
X53622Y15703D01*
X53536Y15687D01*
X53494Y15680D01*
X53454Y15673D01*
X53421Y15670D01*
X53392D01*
X53366Y15667D01*
X53333D01*
X53254Y15670D01*
X53182Y15677D01*
X53117Y15690D01*
X53061Y15703D01*
X53015Y15716D01*
X52979Y15729D01*
X52966Y15732D01*
X52956Y15736D01*
X52952Y15739D01*
X52949D01*
X52890Y15769D01*
X52838Y15805D01*
X52792Y15837D01*
X52752Y15874D01*
X52726Y15903D01*
X52703Y15926D01*
X52690Y15942D01*
X52687Y15949D01*
X52657Y16001D01*
X52634Y16054D01*
X52618Y16103D01*
X52605Y16149D01*
X52598Y16188D01*
X52595Y16218D01*
Y16238D01*
Y16241D01*
Y16244D01*
X52598Y16300D01*
X52608Y16352D01*
X52618Y16395D01*
X52631Y16434D01*
X52647Y16464D01*
X52657Y16487D01*
X52667Y16503D01*
X52670Y16507D01*
X52700Y16546D01*
X52736Y16579D01*
X52769Y16605D01*
X52802Y16628D01*
X52831Y16648D01*
X52854Y16661D01*
X52871Y16667D01*
X52877Y16671D01*
X52903Y16680D01*
X52933Y16693D01*
X53002Y16716D01*
X53077Y16739D01*
X53153Y16762D01*
X53221Y16782D01*
X53254Y16789D01*
X53281Y16799D01*
X53300Y16805D01*
X53320Y16808D01*
X53330Y16812D01*
X53333D01*
X53372Y16821D01*
X53408Y16835D01*
X53441Y16841D01*
X53471Y16851D01*
X53497Y16858D01*
X53520Y16864D01*
X53556Y16874D01*
X53582Y16881D01*
X53599Y16887D01*
X53605Y16890D01*
X53609D01*
X53635Y16903D01*
X53661Y16917D01*
X53681Y16930D01*
X53697Y16943D01*
X53710Y16956D01*
X53720Y16966D01*
X53723Y16969D01*
X53727Y16972D01*
X53740Y16992D01*
X53746Y17012D01*
X53759Y17044D01*
Y17061D01*
X53763Y17071D01*
Y17077D01*
Y17081D01*
X53759Y17117D01*
X53750Y17146D01*
X53733Y17176D01*
X53717Y17199D01*
X53704Y17218D01*
X53687Y17231D01*
X53677Y17241D01*
X53674Y17245D01*
X53635Y17267D01*
X53589Y17287D01*
X53536Y17300D01*
X53487Y17307D01*
X53441Y17313D01*
X53405Y17317D01*
X53369D01*
X53303Y17313D01*
X53248Y17304D01*
X53198Y17290D01*
X53159Y17277D01*
X53126Y17261D01*
X53107Y17248D01*
X53090Y17238D01*
X53087Y17235D01*
X53054Y17202D01*
X53028Y17169D01*
X53005Y17133D01*
X52988Y17097D01*
X52979Y17067D01*
X52972Y17041D01*
X52966Y17025D01*
Y17018D01*
X52664Y17061D01*
X52677Y17123D01*
X52693Y17179D01*
X52710Y17225D01*
X52729Y17264D01*
X52746Y17297D01*
X52759Y17320D01*
X52769Y17336D01*
X52772Y17340D01*
X52805Y17379D01*
X52844Y17412D01*
X52884Y17441D01*
X52923Y17464D01*
X52959Y17484D01*
X52988Y17500D01*
X53008Y17507D01*
X53012Y17510D01*
X53015D01*
X53077Y17530D01*
X53139Y17546D01*
X53205Y17556D01*
X53261Y17566D01*
X53313Y17569D01*
X53333D01*
X53353Y17573D01*
X53441D01*
X53490Y17566D01*
D02*
G37*
%LPC*%
G36*
X112698Y15556D02*
X112694D01*
X112693Y15555D01*
X112692Y15554D01*
Y15553D01*
X112693Y15552D01*
X112698D01*
Y15556D01*
D02*
G37*
G36*
X179128Y15683D02*
X179123D01*
Y15677D01*
X179127D01*
Y15678D01*
X179128D01*
Y15679D01*
X179129D01*
Y15680D01*
Y15682D01*
X179128Y15683D01*
D02*
G37*
G36*
X182982Y14602D02*
X181962D01*
X181972Y14516D01*
X181992Y14444D01*
X182018Y14378D01*
X182047Y14323D01*
X182074Y14280D01*
X182097Y14251D01*
X182113Y14231D01*
X182120Y14224D01*
X182149Y14198D01*
X182179Y14175D01*
X182238Y14142D01*
X182300Y14116D01*
X182356Y14096D01*
X182405Y14087D01*
X182428Y14083D01*
X182444D01*
X182461Y14080D01*
X182480D01*
X182523Y14083D01*
X182566Y14087D01*
X182641Y14109D01*
X182707Y14136D01*
X182763Y14169D01*
X182805Y14205D01*
X182838Y14231D01*
X182848Y14244D01*
X182858Y14254D01*
X182864Y14257D01*
Y14260D01*
X182897Y14306D01*
X182923Y14362D01*
X182943Y14418D01*
X182959Y14474D01*
X182969Y14523D01*
X182976Y14546D01*
Y14565D01*
X182979Y14579D01*
X182982Y14592D01*
Y14598D01*
Y14602D01*
D02*
G37*
G36*
X188171Y15474D02*
X188148D01*
X188106Y15471D01*
X188066Y15467D01*
X187991Y15448D01*
X187925Y15418D01*
X187870Y15385D01*
X187827Y15356D01*
X187791Y15326D01*
X187781Y15317D01*
X187771Y15307D01*
X187768Y15303D01*
X187765Y15300D01*
X187738Y15264D01*
X187715Y15228D01*
X187676Y15146D01*
X187650Y15057D01*
X187633Y14975D01*
X187627Y14936D01*
X187620Y14897D01*
X187617Y14864D01*
Y14834D01*
X187614Y14811D01*
Y14795D01*
Y14782D01*
Y14779D01*
X187617Y14716D01*
X187620Y14654D01*
X187627Y14598D01*
X187637Y14549D01*
X187650Y14500D01*
X187663Y14457D01*
X187676Y14418D01*
X187689Y14385D01*
X187702Y14352D01*
X187715Y14326D01*
X187728Y14306D01*
X187742Y14287D01*
X187751Y14274D01*
X187758Y14260D01*
X187765Y14257D01*
Y14254D01*
X187794Y14224D01*
X187827Y14195D01*
X187856Y14172D01*
X187889Y14152D01*
X187955Y14123D01*
X188014Y14103D01*
X188066Y14090D01*
X188089Y14087D01*
X188109Y14083D01*
X188125Y14080D01*
X188148D01*
X188191Y14083D01*
X188230Y14087D01*
X188306Y14106D01*
X188371Y14136D01*
X188427Y14169D01*
X188470Y14201D01*
X188506Y14231D01*
X188516Y14241D01*
X188525Y14251D01*
X188529Y14254D01*
X188532Y14257D01*
X188558Y14290D01*
X188584Y14329D01*
X188621Y14411D01*
X188650Y14497D01*
X188666Y14579D01*
X188673Y14618D01*
X188680Y14654D01*
X188683Y14683D01*
Y14713D01*
X188686Y14736D01*
Y14752D01*
Y14765D01*
Y14769D01*
Y14834D01*
X188680Y14893D01*
X188673Y14949D01*
X188663Y15002D01*
X188650Y15051D01*
X188637Y15093D01*
X188624Y15133D01*
X188611Y15169D01*
X188594Y15199D01*
X188581Y15225D01*
X188568Y15248D01*
X188555Y15267D01*
X188545Y15281D01*
X188539Y15290D01*
X188535Y15297D01*
X188532Y15300D01*
X188503Y15330D01*
X188473Y15356D01*
X188440Y15382D01*
X188407Y15402D01*
X188342Y15431D01*
X188283Y15451D01*
X188230Y15464D01*
X188207Y15467D01*
X188188Y15471D01*
X188171Y15474D01*
D02*
G37*
G36*
X223056Y71765D02*
X223040D01*
X223026D01*
X223023D01*
X222958D01*
X222899Y71758D01*
X222843Y71752D01*
X222790Y71742D01*
X222741Y71729D01*
X222698Y71716D01*
X222659Y71702D01*
X222623Y71689D01*
X222593Y71673D01*
X222567Y71660D01*
X222544Y71647D01*
X222525Y71634D01*
X222512Y71624D01*
X222502Y71617D01*
X222495Y71614D01*
X222492Y71611D01*
X222462Y71581D01*
X222436Y71552D01*
X222410Y71519D01*
X222390Y71486D01*
X222361Y71420D01*
X222341Y71361D01*
X222328Y71309D01*
X222325Y71286D01*
X222321Y71266D01*
X222318Y71250D01*
Y71227D01*
X222321Y71184D01*
X222325Y71145D01*
X222344Y71070D01*
X222374Y71004D01*
X222407Y70948D01*
X222436Y70906D01*
X222466Y70869D01*
X222475Y70860D01*
X222485Y70850D01*
X222489Y70846D01*
X222492Y70843D01*
X222528Y70817D01*
X222564Y70794D01*
X222646Y70755D01*
X222735Y70728D01*
X222817Y70712D01*
X222856Y70705D01*
X222895Y70699D01*
X222928Y70696D01*
X222958D01*
X222981Y70692D01*
X222997D01*
X223010D01*
X223013D01*
X223076Y70696D01*
X223138Y70699D01*
X223194Y70705D01*
X223243Y70715D01*
X223292Y70728D01*
X223335Y70741D01*
X223374Y70755D01*
X223407Y70768D01*
X223440Y70781D01*
X223466Y70794D01*
X223486Y70807D01*
X223505Y70820D01*
X223518Y70830D01*
X223532Y70837D01*
X223535Y70843D01*
X223538D01*
X223568Y70873D01*
X223597Y70906D01*
X223620Y70935D01*
X223640Y70968D01*
X223669Y71033D01*
X223689Y71092D01*
X223702Y71145D01*
X223705Y71168D01*
X223709Y71188D01*
X223712Y71204D01*
Y71227D01*
X223709Y71270D01*
X223705Y71309D01*
X223686Y71384D01*
X223656Y71450D01*
X223623Y71506D01*
X223591Y71548D01*
X223561Y71584D01*
X223551Y71594D01*
X223541Y71604D01*
X223538Y71607D01*
X223535Y71611D01*
X223502Y71637D01*
X223463Y71663D01*
X223381Y71699D01*
X223295Y71729D01*
X223213Y71745D01*
X223174Y71752D01*
X223138Y71758D01*
X223109Y71762D01*
X223079D01*
X223056Y71765D01*
D02*
G37*
G36*
X223200Y66061D02*
X223194D01*
X223190D01*
Y65041D01*
X223276Y65051D01*
X223348Y65070D01*
X223413Y65097D01*
X223469Y65126D01*
X223512Y65152D01*
X223541Y65175D01*
X223561Y65192D01*
X223568Y65198D01*
X223594Y65228D01*
X223617Y65257D01*
X223650Y65316D01*
X223676Y65379D01*
X223696Y65434D01*
X223705Y65484D01*
X223709Y65507D01*
Y65523D01*
X223712Y65539D01*
Y65559D01*
X223709Y65602D01*
X223705Y65644D01*
X223682Y65720D01*
X223656Y65785D01*
X223623Y65841D01*
X223587Y65884D01*
X223561Y65917D01*
X223548Y65926D01*
X223538Y65936D01*
X223535Y65943D01*
X223532D01*
X223486Y65976D01*
X223430Y66002D01*
X223374Y66022D01*
X223318Y66038D01*
X223269Y66048D01*
X223246Y66054D01*
X223227D01*
X223213Y66058D01*
X223200Y66061D01*
D02*
G37*
G36*
X222108Y57904D02*
X222107D01*
X222105D01*
X222104Y57903D01*
Y57901D01*
X222105Y57900D01*
Y57899D01*
X222106D01*
X222107D01*
X222109D01*
X222110D01*
X222111Y57900D01*
Y57902D01*
X222110Y57903D01*
X222108Y57904D01*
D02*
G37*
G36*
X221837Y114094D02*
X221836D01*
X221834D01*
X221833Y114093D01*
Y114089D01*
X221835D01*
X221836D01*
X221838D01*
X221839D01*
X221840Y114090D01*
Y114092D01*
X221839Y114093D01*
X221837Y114094D01*
D02*
G37*
G36*
X222930Y113595D02*
X222924D01*
X222920D01*
Y112575D01*
X223006Y112584D01*
X223078Y112604D01*
X223143Y112630D01*
X223199Y112660D01*
X223242Y112686D01*
X223271Y112709D01*
X223291Y112725D01*
X223298Y112732D01*
X223324Y112761D01*
X223347Y112791D01*
X223379Y112850D01*
X223406Y112912D01*
X223425Y112968D01*
X223435Y113017D01*
X223439Y113040D01*
Y113057D01*
X223442Y113073D01*
Y113093D01*
X223439Y113135D01*
X223435Y113178D01*
X223412Y113253D01*
X223386Y113319D01*
X223353Y113375D01*
X223317Y113417D01*
X223291Y113450D01*
X223278Y113460D01*
X223268Y113470D01*
X223265Y113477D01*
X223261D01*
X223216Y113509D01*
X223160Y113536D01*
X223104Y113555D01*
X223048Y113572D01*
X222999Y113582D01*
X222976Y113588D01*
X222956D01*
X222943Y113591D01*
X222930Y113595D01*
D02*
G37*
G36*
X173100Y244345D02*
X173080D01*
X173038Y244342D01*
X172995Y244338D01*
X172919Y244316D01*
X172854Y244289D01*
X172798Y244256D01*
X172756Y244220D01*
X172723Y244194D01*
X172713Y244181D01*
X172703Y244171D01*
X172696Y244168D01*
Y244165D01*
X172664Y244119D01*
X172637Y244063D01*
X172618Y244007D01*
X172601Y243951D01*
X172591Y243902D01*
X172585Y243879D01*
Y243860D01*
X172582Y243846D01*
X172578Y243833D01*
Y243827D01*
Y243824D01*
X173598D01*
X173589Y243909D01*
X173569Y243981D01*
X173543Y244046D01*
X173513Y244102D01*
X173487Y244145D01*
X173464Y244174D01*
X173448Y244194D01*
X173441Y244201D01*
X173412Y244227D01*
X173382Y244250D01*
X173323Y244283D01*
X173261Y244309D01*
X173205Y244329D01*
X173156Y244338D01*
X173133Y244342D01*
X173116D01*
X173100Y244345D01*
D02*
G37*
G36*
X176436Y242747D02*
X176433D01*
X176432Y242746D01*
X176431Y242745D01*
X176430Y242744D01*
X176429Y242742D01*
Y242741D01*
X176430Y242739D01*
X176431Y242738D01*
X176433Y242739D01*
X176434D01*
Y242738D01*
X176433Y242737D01*
X176434D01*
X176437Y242738D01*
X176438D01*
X176439Y242740D01*
Y242741D01*
X176438Y242744D01*
Y242745D01*
X176436Y242747D01*
D02*
G37*
G36*
X167435Y244345D02*
X167412D01*
X167370Y244342D01*
X167330Y244338D01*
X167255Y244319D01*
X167189Y244289D01*
X167134Y244256D01*
X167091Y244224D01*
X167055Y244194D01*
X167045Y244184D01*
X167035Y244174D01*
X167032Y244171D01*
X167029Y244168D01*
X167002Y244135D01*
X166976Y244096D01*
X166940Y244014D01*
X166911Y243928D01*
X166894Y243846D01*
X166888Y243807D01*
X166881Y243771D01*
X166878Y243741D01*
Y243712D01*
X166874Y243689D01*
Y243673D01*
Y243659D01*
Y243656D01*
Y243591D01*
X166881Y243532D01*
X166888Y243476D01*
X166897Y243423D01*
X166911Y243374D01*
X166924Y243332D01*
X166937Y243292D01*
X166950Y243256D01*
X166966Y243227D01*
X166979Y243200D01*
X166992Y243177D01*
X167006Y243158D01*
X167016Y243144D01*
X167022Y243135D01*
X167025Y243128D01*
X167029Y243125D01*
X167058Y243095D01*
X167088Y243069D01*
X167120Y243043D01*
X167153Y243023D01*
X167219Y242994D01*
X167278Y242974D01*
X167330Y242961D01*
X167353Y242958D01*
X167373Y242954D01*
X167389Y242951D01*
X167412D01*
X167455Y242954D01*
X167494Y242958D01*
X167570Y242977D01*
X167635Y243007D01*
X167691Y243040D01*
X167734Y243069D01*
X167770Y243099D01*
X167780Y243108D01*
X167790Y243118D01*
X167793Y243122D01*
X167796Y243125D01*
X167822Y243161D01*
X167845Y243197D01*
X167885Y243279D01*
X167911Y243368D01*
X167927Y243450D01*
X167934Y243489D01*
X167940Y243528D01*
X167944Y243561D01*
Y243591D01*
X167947Y243614D01*
Y243630D01*
Y243643D01*
Y243646D01*
X167944Y243709D01*
X167940Y243771D01*
X167934Y243827D01*
X167924Y243876D01*
X167911Y243925D01*
X167898Y243968D01*
X167885Y244007D01*
X167872Y244040D01*
X167858Y244073D01*
X167845Y244099D01*
X167832Y244119D01*
X167819Y244138D01*
X167809Y244151D01*
X167803Y244165D01*
X167796Y244168D01*
Y244171D01*
X167767Y244201D01*
X167734Y244230D01*
X167704Y244253D01*
X167672Y244273D01*
X167606Y244302D01*
X167547Y244322D01*
X167494Y244335D01*
X167471Y244338D01*
X167452Y244342D01*
X167435Y244345D01*
D02*
G37*
G36*
X117786Y243389D02*
X117782D01*
Y243387D01*
Y243386D01*
Y243384D01*
Y243383D01*
X117783Y243382D01*
X117785D01*
X117786Y243383D01*
X117787Y243385D01*
Y243386D01*
Y243388D01*
X117786Y243389D01*
D02*
G37*
G36*
X117772D02*
X117770D01*
X117768Y243388D01*
X117767D01*
X117766Y243386D01*
Y243384D01*
X117767Y243380D01*
Y243379D01*
X117769Y243377D01*
X117772D01*
X117773Y243378D01*
X117774Y243379D01*
X117775Y243380D01*
X117776Y243383D01*
Y243384D01*
X117775Y243387D01*
X117774Y243388D01*
X117772Y243389D01*
D02*
G37*
G36*
X130660Y242302D02*
X129640D01*
X129650Y242216D01*
X129670Y242144D01*
X129696Y242078D01*
X129726Y242023D01*
X129752Y241980D01*
X129775Y241951D01*
X129791Y241931D01*
X129798Y241924D01*
X129827Y241898D01*
X129857Y241875D01*
X129916Y241842D01*
X129978Y241816D01*
X130034Y241796D01*
X130083Y241787D01*
X130106Y241783D01*
X130122D01*
X130139Y241780D01*
X130158D01*
X130201Y241783D01*
X130244Y241787D01*
X130319Y241810D01*
X130385Y241836D01*
X130441Y241869D01*
X130483Y241905D01*
X130516Y241931D01*
X130526Y241944D01*
X130536Y241954D01*
X130542Y241957D01*
Y241960D01*
X130575Y242006D01*
X130601Y242062D01*
X130621Y242118D01*
X130637Y242174D01*
X130647Y242223D01*
X130654Y242246D01*
Y242265D01*
X130657Y242279D01*
X130660Y242292D01*
Y242298D01*
Y242302D01*
D02*
G37*
G36*
X120417Y243187D02*
X120388D01*
X120325Y243184D01*
X120270Y243174D01*
X120220Y243161D01*
X120181Y243144D01*
X120151Y243131D01*
X120129Y243118D01*
X120115Y243108D01*
X120112Y243105D01*
X120083Y243072D01*
X120060Y243039D01*
X120043Y243003D01*
X120033Y242974D01*
X120027Y242944D01*
X120020Y242921D01*
Y242908D01*
Y242902D01*
X120024Y242872D01*
X120027Y242843D01*
X120033Y242820D01*
X120043Y242797D01*
X120050Y242780D01*
X120056Y242764D01*
X120060Y242757D01*
X120063Y242754D01*
X120079Y242731D01*
X120099Y242711D01*
X120138Y242679D01*
X120158Y242669D01*
X120171Y242662D01*
X120181Y242656D01*
X120184D01*
X120217Y242643D01*
X120260Y242630D01*
X120306Y242620D01*
X120348Y242610D01*
X120388Y242603D01*
X120424Y242597D01*
X120437D01*
X120443Y242593D01*
X120453D01*
X120516Y242584D01*
X120571Y242574D01*
X120624Y242564D01*
X120673Y242554D01*
X120719Y242544D01*
X120762Y242534D01*
X120798Y242525D01*
X120830Y242515D01*
X120860Y242508D01*
X120886Y242498D01*
X120909Y242492D01*
X120925Y242485D01*
X120942Y242482D01*
X120952Y242479D01*
X120955Y242475D01*
X120958D01*
Y242590D01*
X120955Y242662D01*
X120952Y242725D01*
X120942Y242777D01*
X120935Y242820D01*
X120925Y242856D01*
X120916Y242879D01*
X120912Y242892D01*
X120909Y242899D01*
X120883Y242948D01*
X120850Y242987D01*
X120814Y243026D01*
X120781Y243056D01*
X120752Y243079D01*
X120726Y243099D01*
X120709Y243108D01*
X120706Y243112D01*
X120703D01*
X120650Y243138D01*
X120594Y243154D01*
X120542Y243167D01*
X120493Y243177D01*
X120450Y243184D01*
X120417Y243187D01*
D02*
G37*
G36*
X135849Y243174D02*
X135826D01*
X135784Y243171D01*
X135744Y243167D01*
X135669Y243148D01*
X135603Y243118D01*
X135548Y243085D01*
X135505Y243056D01*
X135469Y243026D01*
X135459Y243017D01*
X135449Y243007D01*
X135446Y243003D01*
X135443Y243000D01*
X135416Y242964D01*
X135393Y242928D01*
X135354Y242846D01*
X135328Y242757D01*
X135311Y242675D01*
X135305Y242636D01*
X135298Y242597D01*
X135295Y242564D01*
Y242534D01*
X135292Y242511D01*
Y242495D01*
Y242482D01*
Y242479D01*
X135295Y242416D01*
X135298Y242354D01*
X135305Y242298D01*
X135315Y242249D01*
X135328Y242200D01*
X135341Y242157D01*
X135354Y242118D01*
X135367Y242085D01*
X135380Y242052D01*
X135393Y242026D01*
X135406Y242006D01*
X135420Y241987D01*
X135430Y241973D01*
X135436Y241960D01*
X135443Y241957D01*
Y241954D01*
X135472Y241924D01*
X135505Y241895D01*
X135534Y241872D01*
X135567Y241852D01*
X135633Y241823D01*
X135692Y241803D01*
X135744Y241790D01*
X135767Y241787D01*
X135787Y241783D01*
X135803Y241780D01*
X135826D01*
X135869Y241783D01*
X135908Y241787D01*
X135984Y241806D01*
X136049Y241836D01*
X136105Y241869D01*
X136148Y241901D01*
X136184Y241931D01*
X136194Y241941D01*
X136204Y241951D01*
X136207Y241954D01*
X136210Y241957D01*
X136236Y241990D01*
X136263Y242029D01*
X136299Y242111D01*
X136328Y242197D01*
X136345Y242279D01*
X136351Y242318D01*
X136358Y242354D01*
X136361Y242384D01*
Y242413D01*
X136364Y242436D01*
Y242452D01*
Y242465D01*
Y242469D01*
Y242534D01*
X136358Y242593D01*
X136351Y242649D01*
X136341Y242702D01*
X136328Y242751D01*
X136315Y242793D01*
X136302Y242833D01*
X136289Y242869D01*
X136272Y242899D01*
X136259Y242925D01*
X136246Y242948D01*
X136233Y242967D01*
X136223Y242981D01*
X136217Y242990D01*
X136213Y242997D01*
X136210Y243000D01*
X136181Y243030D01*
X136151Y243056D01*
X136118Y243082D01*
X136085Y243102D01*
X136020Y243131D01*
X135961Y243151D01*
X135908Y243164D01*
X135885Y243167D01*
X135866Y243171D01*
X135849Y243174D01*
D02*
G37*
G36*
X122736Y243092D02*
X122136D01*
Y241167D01*
X122720D01*
X122769Y241170D01*
X122815D01*
X122858Y241173D01*
X122897Y241180D01*
X122933Y241183D01*
X122966Y241186D01*
X122992Y241193D01*
X123018Y241196D01*
X123038Y241203D01*
X123058Y241206D01*
X123071Y241209D01*
X123084Y241213D01*
X123091Y241216D01*
X123097Y241219D01*
X123130Y241235D01*
X123163Y241252D01*
X123225Y241295D01*
X123277Y241340D01*
X123323Y241390D01*
X123360Y241432D01*
X123389Y241468D01*
X123399Y241485D01*
X123405Y241495D01*
X123412Y241501D01*
Y241505D01*
X123435Y241547D01*
X123455Y241593D01*
X123487Y241688D01*
X123510Y241790D01*
X123527Y241888D01*
X123533Y241934D01*
X123537Y241977D01*
X123540Y242013D01*
Y242046D01*
X123543Y242072D01*
Y242095D01*
Y242108D01*
Y242111D01*
X123540Y242213D01*
X123533Y242308D01*
X123520Y242390D01*
X123514Y242426D01*
X123510Y242462D01*
X123504Y242492D01*
X123497Y242518D01*
X123491Y242541D01*
X123484Y242561D01*
X123481Y242577D01*
X123477Y242587D01*
X123474Y242593D01*
Y242597D01*
X123448Y242669D01*
X123418Y242731D01*
X123389Y242787D01*
X123360Y242833D01*
X123330Y242869D01*
X123310Y242895D01*
X123297Y242912D01*
X123291Y242918D01*
X123258Y242948D01*
X123218Y242974D01*
X123182Y242994D01*
X123146Y243013D01*
X123114Y243026D01*
X123087Y243036D01*
X123071Y243043D01*
X123068Y243046D01*
X123064D01*
X123009Y243062D01*
X122943Y243072D01*
X122877Y243082D01*
X122815Y243085D01*
X122759Y243089D01*
X122736Y243092D01*
D02*
G37*
G36*
X18789Y121447D02*
X18773D01*
X18760D01*
X18756D01*
X18691D01*
X18632Y121440D01*
X18576Y121434D01*
X18523Y121424D01*
X18474Y121411D01*
X18432Y121398D01*
X18392Y121385D01*
X18356Y121371D01*
X18327Y121355D01*
X18300Y121342D01*
X18277Y121329D01*
X18258Y121316D01*
X18245Y121306D01*
X18235Y121299D01*
X18228Y121296D01*
X18225Y121293D01*
X18195Y121263D01*
X18169Y121234D01*
X18143Y121201D01*
X18123Y121168D01*
X18094Y121102D01*
X18074Y121043D01*
X18061Y120991D01*
X18058Y120968D01*
X18054Y120948D01*
X18051Y120932D01*
Y120909D01*
X18054Y120866D01*
X18058Y120827D01*
X18077Y120751D01*
X18107Y120686D01*
X18140Y120630D01*
X18169Y120587D01*
X18199Y120551D01*
X18209Y120542D01*
X18218Y120532D01*
X18222Y120528D01*
X18225Y120525D01*
X18261Y120499D01*
X18297Y120476D01*
X18379Y120437D01*
X18468Y120410D01*
X18550Y120394D01*
X18589Y120387D01*
X18628Y120381D01*
X18661Y120378D01*
X18691D01*
X18714Y120374D01*
X18730D01*
X18743D01*
X18746D01*
X18809Y120378D01*
X18871Y120381D01*
X18927Y120387D01*
X18976Y120397D01*
X19025Y120410D01*
X19068Y120423D01*
X19107Y120437D01*
X19140Y120450D01*
X19173Y120463D01*
X19199Y120476D01*
X19219Y120489D01*
X19238Y120502D01*
X19252Y120512D01*
X19265Y120519D01*
X19268Y120525D01*
X19271D01*
X19301Y120555D01*
X19330Y120587D01*
X19353Y120617D01*
X19373Y120650D01*
X19402Y120715D01*
X19422Y120774D01*
X19435Y120827D01*
X19439Y120850D01*
X19442Y120870D01*
X19445Y120886D01*
Y120909D01*
X19442Y120951D01*
X19439Y120991D01*
X19419Y121066D01*
X19389Y121132D01*
X19356Y121188D01*
X19324Y121230D01*
X19294Y121266D01*
X19284Y121276D01*
X19275Y121286D01*
X19271Y121289D01*
X19268Y121293D01*
X19235Y121319D01*
X19196Y121345D01*
X19114Y121381D01*
X19028Y121411D01*
X18947Y121427D01*
X18907Y121434D01*
X18871Y121440D01*
X18842Y121443D01*
X18812D01*
X18789Y121447D01*
D02*
G37*
G36*
X18933Y115743D02*
X18927D01*
X18924D01*
Y114723D01*
X19009Y114733D01*
X19081Y114752D01*
X19147Y114778D01*
X19202Y114808D01*
X19245Y114834D01*
X19275Y114857D01*
X19294Y114874D01*
X19301Y114880D01*
X19327Y114910D01*
X19350Y114939D01*
X19383Y114998D01*
X19409Y115061D01*
X19429Y115116D01*
X19439Y115166D01*
X19442Y115189D01*
Y115205D01*
X19445Y115221D01*
Y115241D01*
X19442Y115284D01*
X19439Y115326D01*
X19416Y115402D01*
X19389Y115467D01*
X19356Y115523D01*
X19320Y115566D01*
X19294Y115599D01*
X19281Y115608D01*
X19271Y115618D01*
X19268Y115625D01*
X19265D01*
X19219Y115658D01*
X19163Y115684D01*
X19107Y115703D01*
X19051Y115720D01*
X19002Y115730D01*
X18979Y115736D01*
X18960D01*
X18947Y115740D01*
X18933Y115743D01*
D02*
G37*
G36*
X19153Y109026D02*
X19130D01*
X19117D01*
X19114D01*
X19012Y109023D01*
X18917Y109016D01*
X18835Y109003D01*
X18799Y108996D01*
X18763Y108993D01*
X18733Y108987D01*
X18707Y108980D01*
X18684Y108974D01*
X18664Y108967D01*
X18648Y108964D01*
X18638Y108960D01*
X18632Y108957D01*
X18628D01*
X18556Y108931D01*
X18494Y108901D01*
X18438Y108872D01*
X18392Y108842D01*
X18356Y108813D01*
X18330Y108793D01*
X18314Y108780D01*
X18307Y108773D01*
X18277Y108741D01*
X18251Y108701D01*
X18232Y108665D01*
X18212Y108629D01*
X18199Y108596D01*
X18189Y108570D01*
X18182Y108554D01*
X18179Y108550D01*
Y108547D01*
X18163Y108491D01*
X18153Y108426D01*
X18143Y108360D01*
X18140Y108298D01*
X18136Y108242D01*
X18133Y108219D01*
Y107619D01*
X20058D01*
Y108203D01*
X20055Y108252D01*
Y108298D01*
X20052Y108341D01*
X20045Y108380D01*
X20042Y108416D01*
X20039Y108449D01*
X20032Y108475D01*
X20029Y108501D01*
X20022Y108521D01*
X20019Y108541D01*
X20016Y108554D01*
X20012Y108567D01*
X20009Y108573D01*
X20006Y108580D01*
X19990Y108613D01*
X19973Y108645D01*
X19930Y108708D01*
X19885Y108760D01*
X19835Y108806D01*
X19793Y108842D01*
X19757Y108872D01*
X19740Y108882D01*
X19730Y108888D01*
X19724Y108895D01*
X19721D01*
X19678Y108918D01*
X19632Y108937D01*
X19537Y108970D01*
X19435Y108993D01*
X19337Y109010D01*
X19291Y109016D01*
X19248Y109019D01*
X19212Y109023D01*
X19179D01*
X19153Y109026D01*
D02*
G37*
G36*
X51051Y16621D02*
X51048D01*
Y16507D01*
X51051Y16434D01*
X51055Y16372D01*
X51065Y16320D01*
X51071Y16277D01*
X51081Y16241D01*
X51091Y16218D01*
X51094Y16205D01*
X51097Y16198D01*
X51124Y16149D01*
X51156Y16110D01*
X51192Y16070D01*
X51225Y16041D01*
X51255Y16018D01*
X51281Y15998D01*
X51297Y15988D01*
X51301Y15985D01*
X51304D01*
X51357Y15959D01*
X51412Y15942D01*
X51465Y15929D01*
X51514Y15919D01*
X51557Y15913D01*
X51589Y15910D01*
X51619D01*
X51681Y15913D01*
X51737Y15923D01*
X51786Y15936D01*
X51825Y15952D01*
X51855Y15965D01*
X51878Y15979D01*
X51891Y15988D01*
X51894Y15992D01*
X51924Y16024D01*
X51947Y16057D01*
X51963Y16093D01*
X51973Y16123D01*
X51980Y16152D01*
X51986Y16175D01*
Y16188D01*
Y16195D01*
X51983Y16225D01*
X51980Y16254D01*
X51973Y16277D01*
X51963Y16300D01*
X51957Y16316D01*
X51950Y16333D01*
X51947Y16339D01*
X51944Y16343D01*
X51927Y16365D01*
X51908Y16385D01*
X51868Y16418D01*
X51849Y16428D01*
X51835Y16434D01*
X51825Y16441D01*
X51822D01*
X51789Y16454D01*
X51747Y16467D01*
X51701Y16477D01*
X51658Y16487D01*
X51619Y16493D01*
X51583Y16500D01*
X51570D01*
X51563Y16503D01*
X51553D01*
X51491Y16513D01*
X51435Y16523D01*
X51383Y16533D01*
X51334Y16543D01*
X51288Y16553D01*
X51245Y16562D01*
X51209Y16572D01*
X51176Y16582D01*
X51147Y16589D01*
X51120Y16598D01*
X51097Y16605D01*
X51081Y16612D01*
X51065Y16615D01*
X51055Y16618D01*
X51051Y16621D01*
D02*
G37*
G36*
X52456Y15715D02*
X52455D01*
X52454Y15714D01*
X52452Y15712D01*
Y15711D01*
Y15709D01*
X52454Y15708D01*
X52457D01*
Y15710D01*
Y15711D01*
Y15713D01*
Y15714D01*
X52456Y15715D01*
D02*
G37*
G36*
X56944Y17930D02*
X56360D01*
X56311Y17927D01*
X56265D01*
X56223Y17923D01*
X56183Y17917D01*
X56147Y17914D01*
X56114Y17910D01*
X56088Y17904D01*
X56062Y17901D01*
X56042Y17894D01*
X56023Y17891D01*
X56009Y17887D01*
X55996Y17884D01*
X55990Y17881D01*
X55983Y17878D01*
X55950Y17861D01*
X55918Y17845D01*
X55855Y17802D01*
X55803Y17756D01*
X55757Y17707D01*
X55721Y17664D01*
X55691Y17628D01*
X55681Y17612D01*
X55675Y17602D01*
X55668Y17595D01*
Y17592D01*
X55645Y17550D01*
X55626Y17504D01*
X55593Y17409D01*
X55570Y17307D01*
X55554Y17209D01*
X55547Y17163D01*
X55544Y17120D01*
X55540Y17084D01*
Y17051D01*
X55537Y17025D01*
Y17002D01*
Y16989D01*
Y16985D01*
X55540Y16884D01*
X55547Y16789D01*
X55560Y16707D01*
X55567Y16671D01*
X55570Y16635D01*
X55576Y16605D01*
X55583Y16579D01*
X55590Y16556D01*
X55596Y16536D01*
X55599Y16520D01*
X55603Y16510D01*
X55606Y16503D01*
Y16500D01*
X55632Y16428D01*
X55662Y16365D01*
X55691Y16310D01*
X55721Y16264D01*
X55750Y16228D01*
X55770Y16202D01*
X55783Y16185D01*
X55790Y16179D01*
X55822Y16149D01*
X55862Y16123D01*
X55898Y16103D01*
X55934Y16083D01*
X55967Y16070D01*
X55993Y16060D01*
X56009Y16054D01*
X56013Y16051D01*
X56016D01*
X56072Y16034D01*
X56137Y16024D01*
X56203Y16015D01*
X56265Y16011D01*
X56321Y16008D01*
X56344Y16005D01*
X56944D01*
Y17930D01*
D02*
G37*
%LPD*%
D10*
X96460Y27803D02*
X128940D01*
X96460Y3197D02*
Y27803D01*
Y3197D02*
X128940D01*
Y27803D01*
X144476Y4020D02*
X213767D01*
Y27446D01*
X144476D02*
X213767D01*
X144476Y4020D02*
Y27446D01*
X234513Y36818D02*
Y76582D01*
X211087D02*
X234513D01*
X211087Y36818D02*
Y76582D01*
Y36818D02*
X234513D01*
X234246Y92218D02*
Y131982D01*
X210820D02*
X234246D01*
X210820Y92218D02*
Y131982D01*
Y92218D02*
X234246D01*
X156576Y255146D02*
X196339D01*
X156576Y231720D02*
Y255146D01*
Y231720D02*
X196339D01*
Y255146D01*
X83118Y231720D02*
Y255146D01*
X152409D01*
Y231720D02*
Y255146D01*
X83118Y231720D02*
X152409D01*
X30246Y87118D02*
Y126882D01*
X6820D02*
X30246D01*
X6820Y87118D02*
Y126882D01*
Y87118D02*
X30246D01*
X32476Y27380D02*
X82082D01*
X32476Y3954D02*
Y27380D01*
Y3954D02*
X82082D01*
Y27380D01*
M02*
