G04*
G04 #@! TF.GenerationSoftware,Altium Limited,Altium Designer,24.1.2 (44)*
G04*
G04 Layer_Color=16711935*
%FSLAX25Y25*%
%MOIN*%
G70*
G04*
G04 #@! TF.SameCoordinates,9647829F-9D65-4518-952E-74710912C15A*
G04*
G04*
G04 #@! TF.FilePolarity,Positive*
G04*
G01*
G75*
%ADD10C,0.00787*%
G36*
X56753Y55404D02*
X56786Y55401D01*
X56825Y55398D01*
X56868Y55391D01*
X56914Y55385D01*
X57012Y55362D01*
X57064Y55345D01*
X57120Y55326D01*
X57173Y55303D01*
X57225Y55280D01*
X57278Y55247D01*
X57327Y55214D01*
X57330Y55211D01*
X57337Y55204D01*
X57353Y55194D01*
X57370Y55178D01*
X57389Y55158D01*
X57415Y55135D01*
X57442Y55106D01*
X57471Y55073D01*
X57501Y55037D01*
X57530Y54998D01*
X57560Y54952D01*
X57589Y54906D01*
X57619Y54853D01*
X57645Y54798D01*
X57671Y54735D01*
X57691Y54673D01*
X57363Y54594D01*
Y54597D01*
X57360Y54607D01*
X57353Y54620D01*
X57347Y54640D01*
X57337Y54663D01*
X57327Y54689D01*
X57297Y54748D01*
X57261Y54814D01*
X57219Y54879D01*
X57166Y54942D01*
X57137Y54968D01*
X57107Y54994D01*
X57104D01*
X57101Y55001D01*
X57091Y55007D01*
X57078Y55014D01*
X57061Y55024D01*
X57042Y55034D01*
X56992Y55060D01*
X56930Y55083D01*
X56858Y55102D01*
X56776Y55116D01*
X56684Y55122D01*
X56655D01*
X56635Y55119D01*
X56612D01*
X56582Y55116D01*
X56550Y55109D01*
X56514Y55106D01*
X56438Y55089D01*
X56356Y55063D01*
X56274Y55027D01*
X56235Y55007D01*
X56195Y54981D01*
X56192D01*
X56186Y54975D01*
X56176Y54968D01*
X56163Y54955D01*
X56130Y54925D01*
X56090Y54883D01*
X56044Y54830D01*
X55998Y54765D01*
X55956Y54693D01*
X55923Y54607D01*
Y54604D01*
X55920Y54597D01*
X55917Y54584D01*
X55910Y54568D01*
X55903Y54545D01*
X55897Y54519D01*
X55890Y54489D01*
X55884Y54460D01*
X55871Y54384D01*
X55857Y54302D01*
X55848Y54214D01*
X55844Y54122D01*
Y54119D01*
Y54109D01*
Y54092D01*
Y54069D01*
X55848Y54040D01*
X55851Y54007D01*
Y53971D01*
X55857Y53932D01*
X55867Y53843D01*
X55884Y53751D01*
X55907Y53653D01*
X55936Y53561D01*
Y53558D01*
X55940Y53551D01*
X55946Y53538D01*
X55956Y53522D01*
X55966Y53502D01*
X55976Y53479D01*
X56008Y53426D01*
X56051Y53367D01*
X56100Y53308D01*
X56159Y53253D01*
X56228Y53203D01*
X56231D01*
X56238Y53197D01*
X56248Y53194D01*
X56264Y53184D01*
X56281Y53177D01*
X56304Y53167D01*
X56356Y53144D01*
X56422Y53121D01*
X56494Y53105D01*
X56573Y53092D01*
X56658Y53085D01*
X56684D01*
X56704Y53089D01*
X56730Y53092D01*
X56756Y53095D01*
X56789Y53098D01*
X56822Y53105D01*
X56897Y53125D01*
X56976Y53154D01*
X57019Y53171D01*
X57058Y53194D01*
X57097Y53216D01*
X57133Y53246D01*
X57137Y53249D01*
X57143Y53253D01*
X57153Y53262D01*
X57166Y53276D01*
X57179Y53292D01*
X57199Y53315D01*
X57219Y53338D01*
X57238Y53367D01*
X57261Y53397D01*
X57284Y53433D01*
X57304Y53472D01*
X57327Y53515D01*
X57347Y53564D01*
X57366Y53613D01*
X57383Y53666D01*
X57399Y53725D01*
X57734Y53640D01*
Y53636D01*
X57727Y53623D01*
X57721Y53600D01*
X57714Y53571D01*
X57701Y53538D01*
X57684Y53499D01*
X57668Y53456D01*
X57645Y53407D01*
X57622Y53358D01*
X57593Y53305D01*
X57563Y53256D01*
X57527Y53203D01*
X57491Y53151D01*
X57448Y53102D01*
X57402Y53056D01*
X57353Y53013D01*
X57350Y53010D01*
X57340Y53003D01*
X57327Y52994D01*
X57304Y52980D01*
X57278Y52964D01*
X57245Y52944D01*
X57209Y52928D01*
X57170Y52908D01*
X57120Y52885D01*
X57071Y52869D01*
X57015Y52849D01*
X56956Y52833D01*
X56894Y52820D01*
X56828Y52810D01*
X56760Y52803D01*
X56687Y52800D01*
X56648D01*
X56618Y52803D01*
X56586Y52807D01*
X56543Y52810D01*
X56500Y52813D01*
X56451Y52820D01*
X56346Y52839D01*
X56235Y52869D01*
X56179Y52889D01*
X56123Y52912D01*
X56071Y52934D01*
X56021Y52964D01*
X56018Y52967D01*
X56012Y52970D01*
X55998Y52980D01*
X55979Y52997D01*
X55959Y53013D01*
X55933Y53033D01*
X55907Y53059D01*
X55877Y53089D01*
X55844Y53118D01*
X55815Y53154D01*
X55782Y53194D01*
X55749Y53240D01*
X55716Y53285D01*
X55687Y53335D01*
X55657Y53390D01*
X55631Y53446D01*
Y53449D01*
X55625Y53459D01*
X55618Y53479D01*
X55611Y53502D01*
X55602Y53531D01*
X55589Y53564D01*
X55579Y53604D01*
X55566Y53649D01*
X55552Y53699D01*
X55543Y53751D01*
X55529Y53807D01*
X55520Y53863D01*
X55506Y53991D01*
X55500Y54122D01*
Y54125D01*
Y54138D01*
Y54161D01*
X55503Y54187D01*
Y54224D01*
X55506Y54263D01*
X55513Y54305D01*
X55520Y54355D01*
X55526Y54407D01*
X55536Y54463D01*
X55562Y54578D01*
X55598Y54693D01*
X55621Y54751D01*
X55648Y54807D01*
X55651Y54811D01*
X55654Y54820D01*
X55664Y54837D01*
X55677Y54856D01*
X55690Y54879D01*
X55710Y54909D01*
X55733Y54939D01*
X55759Y54975D01*
X55818Y55047D01*
X55894Y55119D01*
X55979Y55191D01*
X56028Y55224D01*
X56077Y55253D01*
X56081Y55257D01*
X56090Y55260D01*
X56107Y55266D01*
X56126Y55276D01*
X56153Y55290D01*
X56182Y55303D01*
X56218Y55316D01*
X56258Y55332D01*
X56304Y55345D01*
X56349Y55358D01*
X56454Y55385D01*
X56569Y55401D01*
X56628Y55408D01*
X56727D01*
X56753Y55404D01*
D02*
G37*
G36*
X59669Y55089D02*
X59666Y55086D01*
X59659Y55076D01*
X59646Y55063D01*
X59626Y55044D01*
X59606Y55017D01*
X59580Y54984D01*
X59551Y54948D01*
X59518Y54909D01*
X59482Y54863D01*
X59446Y54811D01*
X59406Y54755D01*
X59364Y54693D01*
X59321Y54630D01*
X59279Y54558D01*
X59236Y54486D01*
X59190Y54407D01*
X59187Y54404D01*
X59180Y54387D01*
X59167Y54365D01*
X59151Y54335D01*
X59131Y54296D01*
X59111Y54250D01*
X59085Y54197D01*
X59059Y54138D01*
X59029Y54076D01*
X59000Y54007D01*
X58970Y53935D01*
X58941Y53859D01*
X58882Y53702D01*
X58829Y53535D01*
Y53531D01*
X58826Y53522D01*
X58819Y53502D01*
X58813Y53479D01*
X58806Y53449D01*
X58796Y53413D01*
X58790Y53374D01*
X58780Y53328D01*
X58770Y53279D01*
X58757Y53226D01*
X58747Y53167D01*
X58741Y53108D01*
X58724Y52980D01*
X58711Y52843D01*
X58393D01*
Y52846D01*
Y52856D01*
Y52872D01*
X58396Y52895D01*
Y52925D01*
X58399Y52957D01*
X58403Y52997D01*
X58409Y53043D01*
X58416Y53092D01*
X58422Y53148D01*
X58432Y53207D01*
X58442Y53269D01*
X58455Y53335D01*
X58472Y53407D01*
X58488Y53479D01*
X58508Y53558D01*
Y53564D01*
X58514Y53577D01*
X58521Y53600D01*
X58527Y53630D01*
X58540Y53669D01*
X58554Y53712D01*
X58570Y53761D01*
X58590Y53817D01*
X58609Y53879D01*
X58636Y53941D01*
X58688Y54079D01*
X58754Y54224D01*
X58826Y54371D01*
X58829Y54374D01*
X58836Y54387D01*
X58846Y54410D01*
X58862Y54437D01*
X58882Y54470D01*
X58905Y54509D01*
X58931Y54555D01*
X58960Y54601D01*
X59026Y54706D01*
X59101Y54817D01*
X59187Y54929D01*
X59272Y55034D01*
X58039D01*
Y55332D01*
X59669D01*
Y55089D01*
D02*
G37*
G36*
X54182Y36097D02*
X54214Y36094D01*
X54257Y36090D01*
X54300Y36087D01*
X54349Y36080D01*
X54454Y36061D01*
X54565Y36031D01*
X54621Y36011D01*
X54677Y35989D01*
X54729Y35966D01*
X54778Y35936D01*
X54782Y35933D01*
X54788Y35930D01*
X54801Y35920D01*
X54821Y35903D01*
X54841Y35887D01*
X54867Y35867D01*
X54893Y35841D01*
X54923Y35811D01*
X54956Y35782D01*
X54985Y35746D01*
X55018Y35706D01*
X55051Y35660D01*
X55084Y35615D01*
X55113Y35565D01*
X55143Y35510D01*
X55169Y35454D01*
Y35451D01*
X55175Y35441D01*
X55182Y35421D01*
X55189Y35398D01*
X55198Y35369D01*
X55212Y35336D01*
X55221Y35296D01*
X55234Y35250D01*
X55248Y35201D01*
X55257Y35149D01*
X55270Y35093D01*
X55280Y35037D01*
X55294Y34909D01*
X55300Y34778D01*
Y34775D01*
Y34762D01*
Y34739D01*
X55297Y34713D01*
Y34677D01*
X55294Y34637D01*
X55287Y34595D01*
X55280Y34545D01*
X55274Y34493D01*
X55264Y34437D01*
X55238Y34322D01*
X55202Y34207D01*
X55179Y34148D01*
X55152Y34093D01*
X55149Y34089D01*
X55146Y34080D01*
X55136Y34063D01*
X55123Y34043D01*
X55110Y34021D01*
X55090Y33991D01*
X55067Y33961D01*
X55041Y33925D01*
X54982Y33853D01*
X54906Y33781D01*
X54821Y33709D01*
X54772Y33676D01*
X54723Y33647D01*
X54720Y33643D01*
X54710Y33640D01*
X54693Y33634D01*
X54674Y33624D01*
X54647Y33610D01*
X54618Y33597D01*
X54582Y33584D01*
X54542Y33568D01*
X54496Y33555D01*
X54451Y33542D01*
X54346Y33515D01*
X54231Y33499D01*
X54172Y33492D01*
X54073D01*
X54047Y33496D01*
X54014Y33499D01*
X53975Y33502D01*
X53932Y33509D01*
X53886Y33515D01*
X53788Y33538D01*
X53736Y33555D01*
X53680Y33574D01*
X53627Y33597D01*
X53575Y33620D01*
X53522Y33653D01*
X53473Y33686D01*
X53470Y33689D01*
X53463Y33696D01*
X53447Y33706D01*
X53430Y33722D01*
X53411Y33742D01*
X53385Y33765D01*
X53358Y33794D01*
X53329Y33827D01*
X53299Y33863D01*
X53270Y33902D01*
X53240Y33948D01*
X53211Y33994D01*
X53181Y34047D01*
X53155Y34102D01*
X53129Y34165D01*
X53109Y34227D01*
X53437Y34306D01*
Y34303D01*
X53440Y34293D01*
X53447Y34280D01*
X53453Y34260D01*
X53463Y34237D01*
X53473Y34211D01*
X53503Y34152D01*
X53539Y34086D01*
X53581Y34021D01*
X53634Y33958D01*
X53663Y33932D01*
X53693Y33906D01*
X53696D01*
X53699Y33899D01*
X53709Y33893D01*
X53722Y33886D01*
X53739Y33876D01*
X53758Y33866D01*
X53808Y33840D01*
X53870Y33817D01*
X53942Y33797D01*
X54024Y33784D01*
X54116Y33778D01*
X54145D01*
X54165Y33781D01*
X54188D01*
X54218Y33784D01*
X54250Y33791D01*
X54286Y33794D01*
X54362Y33811D01*
X54444Y33837D01*
X54526Y33873D01*
X54565Y33893D01*
X54605Y33919D01*
X54608D01*
X54615Y33925D01*
X54624Y33932D01*
X54637Y33945D01*
X54670Y33975D01*
X54710Y34017D01*
X54756Y34070D01*
X54801Y34135D01*
X54844Y34207D01*
X54877Y34293D01*
Y34296D01*
X54880Y34303D01*
X54883Y34316D01*
X54890Y34332D01*
X54897Y34355D01*
X54903Y34381D01*
X54910Y34411D01*
X54916Y34440D01*
X54929Y34516D01*
X54943Y34598D01*
X54952Y34686D01*
X54956Y34778D01*
Y34782D01*
Y34791D01*
Y34808D01*
Y34831D01*
X54952Y34860D01*
X54949Y34893D01*
Y34929D01*
X54943Y34968D01*
X54933Y35057D01*
X54916Y35149D01*
X54893Y35247D01*
X54864Y35339D01*
Y35342D01*
X54861Y35349D01*
X54854Y35362D01*
X54844Y35378D01*
X54834Y35398D01*
X54824Y35421D01*
X54792Y35474D01*
X54749Y35533D01*
X54700Y35592D01*
X54641Y35647D01*
X54572Y35697D01*
X54569D01*
X54562Y35703D01*
X54552Y35706D01*
X54536Y35716D01*
X54519Y35723D01*
X54496Y35733D01*
X54444Y35756D01*
X54378Y35779D01*
X54306Y35795D01*
X54228Y35808D01*
X54142Y35815D01*
X54116D01*
X54096Y35811D01*
X54070Y35808D01*
X54044Y35805D01*
X54011Y35802D01*
X53978Y35795D01*
X53903Y35775D01*
X53824Y35746D01*
X53781Y35729D01*
X53742Y35706D01*
X53703Y35684D01*
X53667Y35654D01*
X53663Y35651D01*
X53657Y35647D01*
X53647Y35638D01*
X53634Y35624D01*
X53621Y35608D01*
X53601Y35585D01*
X53581Y35562D01*
X53562Y35533D01*
X53539Y35503D01*
X53516Y35467D01*
X53496Y35428D01*
X53473Y35385D01*
X53453Y35336D01*
X53434Y35287D01*
X53417Y35234D01*
X53401Y35175D01*
X53066Y35260D01*
Y35264D01*
X53073Y35277D01*
X53079Y35300D01*
X53086Y35329D01*
X53099Y35362D01*
X53115Y35401D01*
X53132Y35444D01*
X53155Y35493D01*
X53178Y35542D01*
X53207Y35595D01*
X53237Y35644D01*
X53273Y35697D01*
X53309Y35749D01*
X53352Y35798D01*
X53398Y35844D01*
X53447Y35887D01*
X53450Y35890D01*
X53460Y35897D01*
X53473Y35906D01*
X53496Y35920D01*
X53522Y35936D01*
X53555Y35956D01*
X53591Y35972D01*
X53631Y35992D01*
X53680Y36015D01*
X53729Y36031D01*
X53785Y36051D01*
X53844Y36067D01*
X53906Y36080D01*
X53972Y36090D01*
X54040Y36097D01*
X54113Y36100D01*
X54152D01*
X54182Y36097D01*
D02*
G37*
G36*
X52017D02*
X52049Y36094D01*
X52086Y36087D01*
X52125Y36080D01*
X52171Y36074D01*
X52266Y36048D01*
X52315Y36028D01*
X52368Y36008D01*
X52417Y35982D01*
X52466Y35952D01*
X52512Y35920D01*
X52558Y35880D01*
X52561Y35877D01*
X52568Y35870D01*
X52578Y35857D01*
X52594Y35841D01*
X52610Y35818D01*
X52630Y35792D01*
X52650Y35762D01*
X52670Y35729D01*
X52692Y35690D01*
X52712Y35651D01*
X52732Y35605D01*
X52748Y35555D01*
X52765Y35503D01*
X52774Y35447D01*
X52781Y35388D01*
X52784Y35329D01*
Y35326D01*
Y35319D01*
Y35306D01*
X52781Y35287D01*
Y35267D01*
X52778Y35244D01*
X52768Y35185D01*
X52755Y35119D01*
X52732Y35054D01*
X52702Y34985D01*
X52660Y34919D01*
Y34916D01*
X52653Y34913D01*
X52637Y34893D01*
X52607Y34863D01*
X52568Y34827D01*
X52519Y34791D01*
X52456Y34752D01*
X52387Y34719D01*
X52305Y34693D01*
X52309D01*
X52315Y34690D01*
X52325Y34686D01*
X52338Y34680D01*
X52371Y34663D01*
X52414Y34640D01*
X52460Y34611D01*
X52509Y34578D01*
X52551Y34536D01*
X52591Y34490D01*
X52594Y34483D01*
X52604Y34467D01*
X52620Y34437D01*
X52637Y34401D01*
X52653Y34355D01*
X52670Y34303D01*
X52679Y34244D01*
X52683Y34178D01*
Y34175D01*
Y34165D01*
Y34152D01*
X52679Y34132D01*
X52676Y34109D01*
X52673Y34080D01*
X52656Y34017D01*
X52633Y33945D01*
X52617Y33906D01*
X52601Y33866D01*
X52578Y33827D01*
X52551Y33788D01*
X52522Y33751D01*
X52486Y33716D01*
X52482Y33712D01*
X52476Y33706D01*
X52466Y33699D01*
X52450Y33686D01*
X52430Y33673D01*
X52407Y33656D01*
X52377Y33637D01*
X52345Y33620D01*
X52312Y33604D01*
X52273Y33584D01*
X52227Y33568D01*
X52181Y33555D01*
X52132Y33542D01*
X52079Y33532D01*
X52020Y33529D01*
X51961Y33525D01*
X51928D01*
X51905Y33529D01*
X51879Y33532D01*
X51846Y33535D01*
X51810Y33542D01*
X51771Y33548D01*
X51686Y33571D01*
X51643Y33588D01*
X51597Y33607D01*
X51554Y33630D01*
X51508Y33653D01*
X51469Y33686D01*
X51430Y33719D01*
X51426Y33722D01*
X51420Y33729D01*
X51410Y33738D01*
X51397Y33751D01*
X51384Y33771D01*
X51364Y33794D01*
X51348Y33820D01*
X51328Y33847D01*
X51292Y33916D01*
X51259Y33994D01*
X51246Y34040D01*
X51236Y34086D01*
X51230Y34135D01*
X51226Y34185D01*
Y34188D01*
Y34191D01*
Y34201D01*
Y34214D01*
X51230Y34247D01*
X51239Y34290D01*
X51249Y34339D01*
X51266Y34388D01*
X51289Y34440D01*
X51321Y34493D01*
X51325Y34499D01*
X51338Y34512D01*
X51361Y34536D01*
X51390Y34565D01*
X51430Y34598D01*
X51479Y34631D01*
X51535Y34663D01*
X51600Y34693D01*
X51597D01*
X51590Y34696D01*
X51577Y34699D01*
X51561Y34706D01*
X51541Y34716D01*
X51521Y34726D01*
X51469Y34752D01*
X51410Y34785D01*
X51351Y34827D01*
X51295Y34877D01*
X51246Y34936D01*
Y34939D01*
X51239Y34942D01*
X51236Y34952D01*
X51226Y34965D01*
X51216Y34982D01*
X51207Y35001D01*
X51184Y35047D01*
X51164Y35106D01*
X51144Y35175D01*
X51131Y35254D01*
X51125Y35339D01*
Y35342D01*
Y35352D01*
Y35369D01*
X51128Y35392D01*
X51131Y35421D01*
X51138Y35454D01*
X51144Y35487D01*
X51154Y35526D01*
X51164Y35569D01*
X51180Y35611D01*
X51200Y35657D01*
X51220Y35703D01*
X51249Y35749D01*
X51279Y35795D01*
X51315Y35838D01*
X51354Y35880D01*
X51358Y35884D01*
X51364Y35890D01*
X51377Y35900D01*
X51397Y35913D01*
X51420Y35933D01*
X51446Y35949D01*
X51479Y35969D01*
X51515Y35989D01*
X51558Y36011D01*
X51600Y36031D01*
X51649Y36048D01*
X51705Y36064D01*
X51761Y36080D01*
X51823Y36090D01*
X51886Y36097D01*
X51954Y36100D01*
X51990D01*
X52017Y36097D01*
D02*
G37*
%LPC*%
G36*
X51954Y35844D02*
X51932D01*
X51918Y35841D01*
X51899D01*
X51876Y35838D01*
X51823Y35828D01*
X51767Y35808D01*
X51705Y35785D01*
X51643Y35749D01*
X51613Y35729D01*
X51587Y35703D01*
X51584Y35700D01*
X51581Y35697D01*
X51564Y35677D01*
X51541Y35647D01*
X51515Y35605D01*
X51489Y35552D01*
X51466Y35490D01*
X51449Y35421D01*
X51443Y35382D01*
Y35342D01*
Y35339D01*
Y35333D01*
Y35319D01*
X51446Y35303D01*
Y35287D01*
X51449Y35264D01*
X51462Y35211D01*
X51479Y35152D01*
X51505Y35090D01*
X51541Y35028D01*
X51564Y34998D01*
X51590Y34972D01*
Y34968D01*
X51597Y34965D01*
X51617Y34949D01*
X51649Y34926D01*
X51692Y34896D01*
X51748Y34870D01*
X51810Y34847D01*
X51882Y34831D01*
X51922Y34824D01*
X51984D01*
X52000Y34827D01*
X52020D01*
X52040Y34831D01*
X52092Y34841D01*
X52148Y34860D01*
X52210Y34886D01*
X52269Y34919D01*
X52299Y34942D01*
X52325Y34968D01*
X52332Y34975D01*
X52348Y34995D01*
X52371Y35024D01*
X52394Y35067D01*
X52420Y35119D01*
X52443Y35182D01*
X52460Y35250D01*
X52463Y35290D01*
X52466Y35329D01*
Y35336D01*
Y35352D01*
X52463Y35378D01*
X52460Y35411D01*
X52453Y35451D01*
X52440Y35497D01*
X52427Y35542D01*
X52407Y35588D01*
X52404Y35595D01*
X52394Y35608D01*
X52381Y35631D01*
X52361Y35657D01*
X52335Y35687D01*
X52302Y35719D01*
X52263Y35749D01*
X52220Y35779D01*
X52214Y35782D01*
X52197Y35788D01*
X52174Y35798D01*
X52141Y35811D01*
X52099Y35824D01*
X52056Y35834D01*
X52007Y35841D01*
X51954Y35844D01*
D02*
G37*
G36*
X51951Y34572D02*
X51935D01*
X51922Y34568D01*
X51889Y34565D01*
X51850Y34558D01*
X51803Y34545D01*
X51754Y34526D01*
X51705Y34496D01*
X51659Y34460D01*
X51653Y34453D01*
X51639Y34440D01*
X51623Y34417D01*
X51600Y34385D01*
X51581Y34345D01*
X51561Y34296D01*
X51548Y34244D01*
X51544Y34185D01*
Y34181D01*
Y34178D01*
Y34168D01*
X51548Y34155D01*
X51551Y34126D01*
X51558Y34086D01*
X51574Y34040D01*
X51594Y33991D01*
X51623Y33945D01*
X51662Y33899D01*
X51669Y33893D01*
X51682Y33880D01*
X51708Y33863D01*
X51745Y33840D01*
X51787Y33817D01*
X51836Y33801D01*
X51892Y33788D01*
X51954Y33781D01*
X51971D01*
X51984Y33784D01*
X52017Y33788D01*
X52059Y33794D01*
X52105Y33811D01*
X52154Y33830D01*
X52204Y33856D01*
X52250Y33896D01*
X52253Y33902D01*
X52266Y33916D01*
X52286Y33942D01*
X52305Y33971D01*
X52328Y34014D01*
X52345Y34060D01*
X52358Y34112D01*
X52364Y34168D01*
Y34171D01*
Y34175D01*
Y34185D01*
X52361Y34198D01*
X52358Y34230D01*
X52351Y34270D01*
X52338Y34316D01*
X52319Y34365D01*
X52289Y34414D01*
X52253Y34460D01*
X52246Y34463D01*
X52233Y34476D01*
X52207Y34496D01*
X52171Y34516D01*
X52128Y34536D01*
X52076Y34555D01*
X52017Y34568D01*
X51951Y34572D01*
D02*
G37*
%LPD*%
D10*
X50173Y56048D02*
X60827D01*
Y49552D02*
Y56048D01*
X50173Y49552D02*
X60827D01*
X50173D02*
Y56048D01*
X49973Y32852D02*
X60627D01*
X49973D02*
Y39348D01*
X60627D01*
Y32852D02*
Y39348D01*
M02*
