G04*
G04 #@! TF.GenerationSoftware,Altium Limited,Altium Designer,24.1.2 (44)*
G04*
G04 Layer_Physical_Order=1*
G04 Layer_Color=255*
%FSLAX25Y25*%
%MOIN*%
G70*
G04*
G04 #@! TF.SameCoordinates,9647829F-9D65-4518-952E-74710912C15A*
G04*
G04*
G04 #@! TF.FilePolarity,Positive*
G04*
G01*
G75*
%ADD10C,0.00787*%
%ADD11C,0.00984*%
%ADD17R,0.07559X0.05118*%
%ADD18R,0.06693X0.04331*%
%ADD19R,0.08189X0.15000*%
%ADD20R,0.45000X0.35000*%
%ADD21R,0.04152X0.05339*%
%ADD22R,0.04331X0.06693*%
%ADD23R,0.06299X0.13780*%
%ADD24R,0.48031X0.38386*%
%ADD25R,0.07087X0.04528*%
%ADD26R,0.04921X0.07087*%
%ADD38C,0.07874*%
%ADD42R,0.06102X0.06102*%
%ADD43C,0.06102*%
%ADD44R,0.05512X0.05512*%
%ADD45C,0.05512*%
%ADD46R,0.05512X0.05512*%
%ADD51C,0.04331*%
%ADD54C,0.01575*%
%ADD55C,0.01772*%
%ADD56C,0.01181*%
%ADD57C,0.01193*%
%ADD58R,0.04724X0.04724*%
%ADD59C,0.04724*%
%ADD60C,0.07284*%
%ADD61R,0.06102X0.06102*%
%ADD62R,0.06201X0.06201*%
%ADD63C,0.06201*%
%ADD64C,0.02559*%
%ADD65R,0.06201X0.06201*%
%ADD66C,0.09843*%
%ADD67C,0.02362*%
D10*
X185680Y60961D02*
X189861D01*
X194587Y65687D01*
Y68687D01*
D11*
X117000Y63000D02*
X119132Y60868D01*
X120232D01*
X122100Y59000D01*
Y49500D02*
Y59000D01*
X114468Y59732D02*
X116095D01*
X110500Y63700D02*
X114468Y59732D01*
X116095D02*
X119800Y56027D01*
X126600Y57900D02*
X140510D01*
X141130Y57280D01*
X154667D01*
X185286Y87900D01*
X123727Y56380D02*
Y60327D01*
X127300Y63900D01*
X123727Y56380D02*
X125300Y54807D01*
Y49400D02*
Y54807D01*
X127900Y43700D02*
X137400D01*
X122100Y49500D02*
X127900Y43700D01*
X110800Y48800D02*
X116600Y54600D01*
X110700Y48800D02*
X110800D01*
X116600Y54600D02*
X116700D01*
X47427Y68100D02*
X116900D01*
X41600Y62273D02*
X47427Y68100D01*
X116900D02*
X122000Y63000D01*
X84400Y63865D02*
X86965Y61300D01*
X84400Y63865D02*
Y63900D01*
X86965Y61300D02*
X88723D01*
X75200Y62800D02*
X88800Y49200D01*
X55200Y62800D02*
X75200D01*
X119716Y69584D02*
X122100Y67200D01*
X105292Y71184D02*
X106892Y69584D01*
X48412Y71184D02*
X105292D01*
X106892Y69584D02*
X119716D01*
X41828Y64600D02*
X48412Y71184D01*
X24500Y64600D02*
X41828D01*
X89300Y55600D02*
Y60723D01*
X88723Y61300D02*
X89300Y60723D01*
X119800Y43600D02*
Y56027D01*
X41600Y41500D02*
Y62273D01*
X215300Y27300D02*
X231500D01*
X196400Y39487D02*
Y39500D01*
X188113Y31200D02*
X196400Y39487D01*
X137800Y31200D02*
X188113D01*
X132800Y36200D02*
X137800Y31200D01*
X25586Y35686D02*
X30286D01*
X24500Y34600D02*
X25586Y35686D01*
X30286D02*
X34000Y39400D01*
X24600Y24600D02*
X41500Y41500D01*
X24500Y24600D02*
X24600D01*
X41500Y41500D02*
X41600D01*
X110700Y43500D02*
X115800Y48600D01*
X59000Y43500D02*
X110700D01*
X93500Y45900D02*
Y51400D01*
X52643Y36300D02*
Y52800D01*
X52443Y36100D02*
X52643Y36300D01*
X137400Y43700D02*
X141900Y39200D01*
X119800Y43600D02*
X122500Y40900D01*
X135000D02*
X139500Y36400D01*
X122500Y40900D02*
X135000D01*
X139500Y36400D02*
X185100D01*
X96148Y20315D02*
X108561D01*
X86763Y29700D02*
X96148Y20315D01*
X112605Y24358D02*
X125495D01*
X108561Y20315D02*
X112605Y24358D01*
X94400Y26400D02*
X99700Y31700D01*
X114200Y25700D02*
Y34800D01*
X32800Y10900D02*
X44100Y22200D01*
Y26000D01*
X87200Y34100D02*
X108700D01*
X89300Y55600D02*
X93500Y51400D01*
X88800Y49200D02*
Y49200D01*
X87300Y84800D02*
Y90814D01*
X102500Y106014D02*
Y112400D01*
X87300Y90814D02*
X102500Y106014D01*
X206331Y59069D02*
X211800Y53600D01*
X206331Y59069D02*
Y66069D01*
X199123Y25600D02*
X199700Y26177D01*
X125495Y24358D02*
X126737Y25600D01*
X199123D01*
X199700Y26177D02*
Y47400D01*
X206800Y123800D02*
Y149300D01*
X178800Y52490D02*
Y68800D01*
X173000Y58517D02*
Y67800D01*
X185286Y87900D02*
X203400D01*
X206800Y149300D02*
X230150Y172650D01*
X20600Y116843D02*
X43343Y94100D01*
X48300D01*
X150900Y108900D02*
Y111200D01*
Y108900D02*
X155600Y104200D01*
X159700Y68000D02*
X160313Y68613D01*
X162380Y75100D02*
X163600D01*
X160313Y73033D02*
X162380Y75100D01*
X160313Y68613D02*
Y73033D01*
X147600Y68000D02*
X159700D01*
X141200Y61600D02*
X147600Y68000D01*
X150000Y85709D02*
X151181D01*
X158372Y92900D01*
X146527Y93400D02*
X148027Y94900D01*
X134404Y93400D02*
X146527D01*
X132312Y95492D02*
X134404Y93400D01*
X119000Y99094D02*
X122602Y95492D01*
X132312D01*
X148027Y94900D02*
X148400D01*
X119000Y99094D02*
Y102500D01*
X116673Y91500D02*
X149700D01*
X110581Y85409D02*
X116673Y91500D01*
X149700D02*
X160700Y102500D01*
X131300Y86200D02*
X136609D01*
X137200Y85609D01*
X94800Y88609D02*
X108514D01*
X119000Y99094D01*
X115300Y81300D02*
X119550Y85550D01*
X124041D01*
X124100Y85609D01*
X112600Y38000D02*
X120100D01*
X126600Y31500D01*
X108700Y34100D02*
X112600Y38000D01*
X159600Y58900D02*
X172700Y72000D01*
X159600Y43400D02*
Y58900D01*
X172700Y72000D02*
X209567D01*
X224867Y56700D01*
X185100Y36400D02*
X185200Y36500D01*
X141900Y39200D02*
X163900D01*
X115400Y24500D02*
X125353D01*
X114200Y25700D02*
X115400Y24500D01*
X160700Y102500D02*
X172500D01*
X109400Y85409D02*
X110581D01*
X213600Y235135D02*
Y245600D01*
Y235135D02*
X230150Y218585D01*
Y172650D02*
Y218585D01*
X172983Y58500D02*
X173000Y58517D01*
X172891Y46581D02*
X178800Y52490D01*
X125353Y24500D02*
X125495Y24358D01*
X3400Y6400D02*
Y136800D01*
X6300Y3500D02*
X67900D01*
X3400Y6400D02*
X6300Y3500D01*
X67900D02*
X72043Y7643D01*
Y13600D01*
X3400Y136800D02*
X34600Y168000D01*
X103500D01*
X124000Y147500D02*
X129000D01*
X103500Y168000D02*
X124000Y147500D01*
X50859Y33922D02*
X52443Y35506D01*
Y36100D01*
X65700Y55000D02*
X72194D01*
X72200Y55006D01*
X63500Y52800D02*
X65700Y55000D01*
X58357Y52800D02*
X63500D01*
D17*
X163600Y85415D02*
D03*
Y75100D02*
D03*
D18*
X199700Y47400D02*
D03*
Y58817D02*
D03*
X150000Y74291D02*
D03*
Y85709D02*
D03*
X137200Y74191D02*
D03*
Y85609D02*
D03*
X124100Y74191D02*
D03*
Y85609D02*
D03*
X94800Y88609D02*
D03*
Y77191D02*
D03*
X109400Y73991D02*
D03*
Y85409D02*
D03*
D19*
X139000Y102500D02*
D03*
X119000D02*
D03*
X192500D02*
D03*
X172500D02*
D03*
D20*
X129000Y147500D02*
D03*
X182500D02*
D03*
D21*
X52643Y52800D02*
D03*
X58357D02*
D03*
X58157Y36100D02*
D03*
X52443D02*
D03*
D22*
X172983Y58500D02*
D03*
X184400D02*
D03*
X184309Y45400D02*
D03*
X172891D02*
D03*
D23*
X65000Y105047D02*
D03*
X85000D02*
D03*
D24*
X75000Y145500D02*
D03*
D25*
X79400Y88906D02*
D03*
Y77094D02*
D03*
D26*
X62900Y88018D02*
D03*
Y77782D02*
D03*
D38*
X108126Y224606D02*
D03*
Y175394D02*
D03*
X88441Y224606D02*
D03*
Y175394D02*
D03*
X217158Y224606D02*
D03*
Y175394D02*
D03*
X197472Y224606D02*
D03*
Y175394D02*
D03*
X163201Y224606D02*
D03*
Y175394D02*
D03*
X143516Y224606D02*
D03*
Y175394D02*
D03*
X14500Y64600D02*
D03*
Y54600D02*
D03*
Y44600D02*
D03*
Y34600D02*
D03*
Y24600D02*
D03*
X24500Y64600D02*
D03*
Y54600D02*
D03*
Y44600D02*
D03*
Y34600D02*
D03*
Y24600D02*
D03*
D42*
X125495Y24358D02*
D03*
D43*
X42100Y72300D02*
D03*
X99905Y24358D02*
D03*
X125495Y6642D02*
D03*
X99905D02*
D03*
D44*
X154515Y17800D02*
D03*
X186300Y245500D02*
D03*
X93157D02*
D03*
X42515Y13600D02*
D03*
D45*
X164358Y17800D02*
D03*
X174200D02*
D03*
X184043D02*
D03*
X193885D02*
D03*
X203728D02*
D03*
X224867Y56700D02*
D03*
Y66543D02*
D03*
X224600Y112100D02*
D03*
Y121943D02*
D03*
X176457Y245500D02*
D03*
X166615D02*
D03*
X142370D02*
D03*
X132528D02*
D03*
X122685D02*
D03*
X112843D02*
D03*
X103000D02*
D03*
X20600Y107000D02*
D03*
Y116843D02*
D03*
X52357Y13600D02*
D03*
X62200D02*
D03*
X72043D02*
D03*
D46*
X224867Y46858D02*
D03*
X224600Y102258D02*
D03*
X20600Y97158D02*
D03*
D51*
X36216Y21474D02*
D03*
D54*
X214200Y10000D02*
X231500Y27300D01*
X234073Y111730D02*
Y239520D01*
X186466Y10000D02*
X214200D01*
X184866Y8400D02*
X186466Y10000D01*
X132997Y12000D02*
X136597Y8400D01*
X184866D01*
X105263Y12000D02*
X132997D01*
X83047Y23500D02*
X99905Y6642D01*
X105263Y12000D01*
X231500Y27300D02*
X232309Y28109D01*
X42622Y33922D02*
X50859D01*
X232309Y28109D02*
Y65243D01*
X224600Y72952D02*
X232309Y65243D01*
X224600Y72952D02*
Y102258D01*
X112843Y245500D02*
X117186Y249843D01*
X172114D01*
X176457Y245500D01*
X181245Y250288D01*
X218755D01*
X223443Y245600D01*
X224328Y244715D01*
X228877D01*
X224600Y102258D02*
X234073Y111730D01*
X228877Y244715D02*
X234073Y239520D01*
X189400Y105600D02*
X192500Y102500D01*
X189400Y105600D02*
Y112900D01*
X186900Y115400D02*
X189400Y112900D01*
X148494Y115400D02*
X186900D01*
X139000Y105906D02*
X148494Y115400D01*
X139000Y102500D02*
Y105906D01*
X53045Y23500D02*
X83047D01*
X42622Y33922D02*
X53045Y23500D01*
X11400Y16400D02*
X25100D01*
X42622Y33922D01*
X9300Y44600D02*
X14500D01*
X7500Y20300D02*
Y42800D01*
Y20300D02*
X11400Y16400D01*
X7500Y42800D02*
X9300Y44600D01*
D55*
X130622Y218984D02*
X157577D01*
X46618Y77782D02*
X62900D01*
X42100Y82300D02*
X46618Y77782D01*
X192500Y99094D02*
Y102500D01*
X163600Y85415D02*
X178820D01*
X192500Y99094D01*
X151181Y74291D02*
X160631Y83742D01*
X161927D01*
X150000Y74291D02*
X151181D01*
X161927Y83742D02*
X163600Y85415D01*
X137250Y74241D02*
X149950D01*
X150000Y74291D01*
X137200Y74191D02*
X137250Y74241D01*
X124100Y74191D02*
X137200D01*
X109500Y74091D02*
X124000D01*
X109400Y73991D02*
X109500Y74091D01*
X124000D02*
X124100Y74191D01*
X103060Y73991D02*
X109400D01*
X94800Y77191D02*
X95744Y76248D01*
X100804D02*
X103060Y73991D01*
X95744Y76248D02*
X100804D01*
X94752Y77143D02*
X94800Y77191D01*
X79449Y77143D02*
X94752D01*
X79400Y77094D02*
X79449Y77143D01*
X79400Y95707D02*
X85000Y101307D01*
Y105047D01*
X79400Y88906D02*
Y95707D01*
X184400Y58500D02*
Y59681D01*
X185680Y60961D01*
X194587Y68687D02*
X194700Y68800D01*
X172891Y45400D02*
Y46581D01*
X184309D02*
X185588Y47861D01*
X184309Y45400D02*
Y46581D01*
X198519Y58817D02*
X199700D01*
X200881D02*
X212841Y46858D01*
X224867D01*
X199700Y58817D02*
X200881D01*
X157577Y218984D02*
X163200Y224606D01*
X124999D02*
X130622Y218984D01*
X108126Y224606D02*
X124999D01*
X107457Y225276D02*
Y231201D01*
X93157Y245500D02*
X107457Y231201D01*
Y225276D02*
X108126Y224606D01*
X79400Y187200D02*
X108126Y215926D01*
Y224606D01*
X76853Y105047D02*
X85000D01*
X75000Y106900D02*
X76853Y105047D01*
X14500Y44600D02*
Y54600D01*
X7700Y61400D02*
Y82343D01*
Y61400D02*
X14500Y54600D01*
X62900Y77782D02*
X63587Y77094D01*
X79400D01*
X23839Y81305D02*
X24833Y82300D01*
X7700Y82343D02*
X8738Y81305D01*
X7700Y82343D02*
Y131143D01*
X24833Y82300D02*
X42100D01*
X8738Y81305D02*
X23839D01*
X7700Y131143D02*
X34300Y157743D01*
X65000Y91201D02*
Y105047D01*
X62900Y89101D02*
X65000Y91201D01*
X62900Y88018D02*
Y89101D01*
X34300Y130100D02*
Y147900D01*
X59353Y105047D02*
X65000D01*
X34300Y130100D02*
X59353Y105047D01*
X62757Y157743D02*
X75000Y145500D01*
X34300Y157743D02*
X62757D01*
D56*
X178800Y22400D02*
X201300D01*
X220600Y41700D01*
X174200Y17800D02*
X178800Y22400D01*
X164358Y17800D02*
X174200D01*
X220600Y41700D02*
X229108D01*
X229800Y42392D01*
Y57631D01*
X225416Y62015D02*
X229800Y57631D01*
X207600Y83810D02*
Y113100D01*
Y83810D02*
X224867Y66543D01*
X191780Y128920D02*
X207600Y113100D01*
X224867Y66543D02*
X225416Y65994D01*
Y62015D02*
Y65994D01*
X182500Y147500D02*
X191780Y138220D01*
Y128920D02*
Y138220D01*
X187562Y47861D02*
X198519Y58817D01*
X185588Y47861D02*
X187562D01*
X149000Y119000D02*
X177500Y147500D01*
X65300Y119000D02*
X149000D01*
X177500Y147500D02*
X182500D01*
X58157Y36100D02*
X58464Y35794D01*
X72200D01*
D57*
X115800Y191500D02*
X138200D01*
D58*
X72200Y55006D02*
D03*
D59*
Y35794D02*
D03*
D60*
X80567Y200000D02*
D03*
X116000D02*
D03*
X189598D02*
D03*
X225032D02*
D03*
X135642D02*
D03*
X171075D02*
D03*
D61*
X42100Y82300D02*
D03*
D62*
X213600Y245600D02*
D03*
D63*
X223443D02*
D03*
X34300Y147900D02*
D03*
D64*
X229742Y237726D02*
D03*
X26426Y141601D02*
D03*
D65*
X34300Y157743D02*
D03*
D66*
X10000Y165000D02*
D03*
Y10000D02*
D03*
X225800Y10200D02*
D03*
X225700Y154300D02*
D03*
X75000Y245000D02*
D03*
D67*
X117000Y63000D02*
D03*
X110500Y63700D02*
D03*
X126600Y57900D02*
D03*
X125300Y49400D02*
D03*
X110700Y48800D02*
D03*
X84400Y63900D02*
D03*
X55200Y62800D02*
D03*
X122100Y67200D02*
D03*
X122000Y63000D02*
D03*
X127300Y63900D02*
D03*
X215300Y27300D02*
D03*
X195900Y31200D02*
D03*
X196400Y39500D02*
D03*
X34000Y39400D02*
D03*
X41600Y41500D02*
D03*
X59000Y43500D02*
D03*
X93500Y45900D02*
D03*
X115800Y48600D02*
D03*
X116700Y54600D02*
D03*
X86763Y29700D02*
D03*
X99700Y31700D02*
D03*
X94400Y26400D02*
D03*
X114200Y34800D02*
D03*
X44100Y26000D02*
D03*
X32800Y10900D02*
D03*
X87200Y34100D02*
D03*
X88800Y49200D02*
D03*
X87300Y84800D02*
D03*
X102500Y112400D02*
D03*
X206331Y66069D02*
D03*
X211800Y53600D02*
D03*
X206800Y123800D02*
D03*
X178800Y68800D02*
D03*
X173000Y67800D02*
D03*
X203400Y87900D02*
D03*
X132800Y36200D02*
D03*
X48300Y94100D02*
D03*
X150900Y111200D02*
D03*
X155600Y104200D02*
D03*
X151300Y218900D02*
D03*
X141200Y61600D02*
D03*
X158372Y92900D02*
D03*
X148400Y94900D02*
D03*
X131300Y86200D02*
D03*
X115300Y81300D02*
D03*
X126600Y31500D02*
D03*
X159600Y43400D02*
D03*
X185200Y36500D02*
D03*
X163900Y39200D02*
D03*
X194700Y68800D02*
D03*
X79400Y187200D02*
D03*
X75000Y106900D02*
D03*
X65300Y119000D02*
D03*
X115800Y191500D02*
D03*
X138200D02*
D03*
M02*
