G04*
G04 #@! TF.GenerationSoftware,Altium Limited,Altium Designer,24.1.2 (44)*
G04*
G04 Layer_Color=16711935*
%FSLAX25Y25*%
%MOIN*%
G70*
G04*
G04 #@! TF.SameCoordinates,9647829F-9D65-4518-952E-74710912C15A*
G04*
G04*
G04 #@! TF.FilePolarity,Negative*
G04*
G01*
G75*
%ADD28R,0.07284X0.04921*%
%ADD34R,0.07677X0.05118*%
%ADD36R,0.05315X0.05315*%
%ADD37C,0.05315*%
%ADD38C,0.07874*%
%ADD39C,0.08465*%
%ADD40C,0.06693*%
%ADD41R,0.06693X0.06693*%
%ADD42R,0.06102X0.06102*%
%ADD43C,0.06102*%
%ADD44R,0.05512X0.05512*%
%ADD45C,0.05512*%
%ADD46R,0.05512X0.05512*%
%ADD47R,0.06791X0.06791*%
%ADD48C,0.06791*%
%ADD49C,0.03150*%
%ADD50R,0.06791X0.06791*%
%ADD51C,0.04331*%
%ADD52C,0.10433*%
%ADD53C,0.02953*%
%ADD74R,0.06890X0.13189*%
%ADD75R,0.07598X0.04803*%
%ADD76R,0.05709X0.04921*%
%ADD77R,0.06496X0.05512*%
%ADD78O,0.05906X0.02756*%
%ADD79O,0.02756X0.05906*%
D28*
X41800Y59109D02*
D03*
Y47691D02*
D03*
D34*
X150500Y48194D02*
D03*
Y60006D02*
D03*
X184400Y59805D02*
D03*
Y47994D02*
D03*
D36*
X72200Y55006D02*
D03*
D37*
Y35794D02*
D03*
D38*
X80567Y200000D02*
D03*
X116000D02*
D03*
X189598D02*
D03*
X225032D02*
D03*
X135642D02*
D03*
X171075D02*
D03*
D39*
X108126Y224606D02*
D03*
Y175394D02*
D03*
X88441Y224606D02*
D03*
Y175394D02*
D03*
X217158Y224606D02*
D03*
Y175394D02*
D03*
X197472Y224606D02*
D03*
Y175394D02*
D03*
X163201Y224606D02*
D03*
Y175394D02*
D03*
X143516Y224606D02*
D03*
Y175394D02*
D03*
X14500Y64600D02*
D03*
Y54600D02*
D03*
Y44600D02*
D03*
Y34600D02*
D03*
Y24600D02*
D03*
X24500Y64600D02*
D03*
Y54600D02*
D03*
Y44600D02*
D03*
Y34600D02*
D03*
Y24600D02*
D03*
D40*
X42100Y72300D02*
D03*
D41*
Y82300D02*
D03*
D42*
X125495Y24358D02*
D03*
D43*
X99905D02*
D03*
X125495Y6642D02*
D03*
X99905D02*
D03*
D44*
X154515Y17800D02*
D03*
X186300Y245500D02*
D03*
X93157D02*
D03*
X42515Y13600D02*
D03*
D45*
X164358Y17800D02*
D03*
X174200D02*
D03*
X184043D02*
D03*
X193885D02*
D03*
X203728D02*
D03*
X224867Y56700D02*
D03*
Y66543D02*
D03*
X224600Y112100D02*
D03*
Y121943D02*
D03*
X176457Y245500D02*
D03*
X166615D02*
D03*
X142370D02*
D03*
X132528D02*
D03*
X122685D02*
D03*
X112843D02*
D03*
X103000D02*
D03*
X20600Y107000D02*
D03*
Y116843D02*
D03*
X52357Y13600D02*
D03*
X62200D02*
D03*
X72043D02*
D03*
D46*
X224867Y46858D02*
D03*
X224600Y102258D02*
D03*
X20600Y97158D02*
D03*
D47*
X213600Y245600D02*
D03*
D48*
X223443D02*
D03*
X34300Y147900D02*
D03*
D49*
X229742Y237726D02*
D03*
X26426Y141601D02*
D03*
D50*
X34300Y157743D02*
D03*
D51*
X36216Y21474D02*
D03*
D52*
X10000Y165000D02*
D03*
Y10000D02*
D03*
X225800Y10200D02*
D03*
X225700Y154300D02*
D03*
X75000Y245000D02*
D03*
D53*
X117000Y63000D02*
D03*
X110500Y63700D02*
D03*
X126600Y57900D02*
D03*
X125300Y49400D02*
D03*
X110700Y48800D02*
D03*
X84400Y63900D02*
D03*
X55200Y62800D02*
D03*
X122100Y67200D02*
D03*
X122000Y63000D02*
D03*
X127300Y63900D02*
D03*
X215300Y27300D02*
D03*
X195900Y31200D02*
D03*
X196400Y39500D02*
D03*
X34000Y39400D02*
D03*
X41600Y41500D02*
D03*
X59000Y43500D02*
D03*
X93500Y45900D02*
D03*
X115800Y48600D02*
D03*
X116700Y54600D02*
D03*
X86763Y29700D02*
D03*
X99700Y31700D02*
D03*
X94400Y26400D02*
D03*
X114200Y34800D02*
D03*
X44100Y26000D02*
D03*
X32800Y10900D02*
D03*
X87200Y34100D02*
D03*
X88800Y49200D02*
D03*
X87300Y84800D02*
D03*
X102500Y112400D02*
D03*
X206331Y66069D02*
D03*
X211800Y53600D02*
D03*
X206800Y123800D02*
D03*
X178800Y68800D02*
D03*
X173000Y67800D02*
D03*
X203400Y87900D02*
D03*
X132800Y36200D02*
D03*
X48300Y94100D02*
D03*
X150900Y111200D02*
D03*
X155600Y104200D02*
D03*
X151300Y218900D02*
D03*
X141200Y61600D02*
D03*
X158372Y92900D02*
D03*
X148400Y94900D02*
D03*
X131300Y86200D02*
D03*
X115300Y81300D02*
D03*
X126600Y31500D02*
D03*
X159600Y43400D02*
D03*
X185200Y36500D02*
D03*
X163900Y39200D02*
D03*
X194700Y68800D02*
D03*
X79400Y187200D02*
D03*
X75000Y106900D02*
D03*
X65300Y119000D02*
D03*
X115800Y191500D02*
D03*
X138200D02*
D03*
D74*
X97800Y190157D02*
D03*
Y209843D02*
D03*
D75*
X167100Y59300D02*
D03*
Y48591D02*
D03*
D76*
X180100Y83834D02*
D03*
Y75566D02*
D03*
X194500Y75600D02*
D03*
Y83868D02*
D03*
D77*
X153600Y206091D02*
D03*
Y192509D02*
D03*
D78*
X101861Y45876D02*
D03*
Y49026D02*
D03*
Y52176D02*
D03*
Y55325D02*
D03*
Y58475D02*
D03*
Y61624D02*
D03*
Y64774D02*
D03*
Y67924D02*
D03*
X134539D02*
D03*
Y64774D02*
D03*
Y61624D02*
D03*
Y58475D02*
D03*
Y55325D02*
D03*
Y52176D02*
D03*
Y49026D02*
D03*
Y45876D02*
D03*
D79*
X107176Y73239D02*
D03*
X110326D02*
D03*
X113476D02*
D03*
X116625D02*
D03*
X119775D02*
D03*
X122924D02*
D03*
X126074D02*
D03*
X129224D02*
D03*
Y40561D02*
D03*
X126074D02*
D03*
X122924D02*
D03*
X119775D02*
D03*
X116625D02*
D03*
X113476D02*
D03*
X110326D02*
D03*
X107176D02*
D03*
M02*
